<?xml version="1.0" encoding="utf-8"?>
<!-- Generator: Adobe Illustrator 23.0.3, SVG Export Plug-In . SVG Version: 6.00 Build 0)  -->
<svg version="1.1" id="Layer_1" xmlns="http://www.w3.org/2000/svg" xmlns:xlink="http://www.w3.org/1999/xlink" x="0px" y="0px"
	 viewBox="0 0 890.2 809" style="enable-background:new 0 0 890.2 809;" xml:space="preserve">
<style type="text/css">
	.st0{fill:#666666;}
</style>
<path class="st0" d="M737,136l-51,0l44-45c10-10,15-22.7,15-38s-5-28-15-38S707.3,0,692,0s-28.3,5-39,15L525,136H372L243,15
	C233,5,220.3,0,205,0s-28,5-38,15s-15,22.7-15,38s5,28,15,38l44,45h-51c-46,1.3-83.8,17-113.5,47S1.3,250.7,0,296v346
	c1.3,49.3,16.8,89.2,46.5,119.5S114,807.7,160,809h570c46-1.3,84-16.8,114-46.5S889.3,695,890,649V296c2-45.3-11.5-83-40.5-113
	S783,137.3,737,136z M782,642c-0.7,16-6.5,29.7-17.5,41S740,700,724,700H167c-16,0-29.7-5.7-41-17s-17-25-17-41V303
	c0.7-16.7,6.3-30.3,17-41c10.7-10.7,24.3-16.3,41-17h557c16.7,0.7,30.3,6.3,41,17c10.7,10.7,16.3,24.3,17,41L782,642L782,642z
	 M282,360c-16,0.7-29.5,6.5-40.5,17.5S224.7,402,224,418v58c0.7,16,6.3,29.5,17,40.5s24.3,16.5,41,16.5s30.3-5.5,41-16.5
	s16.3-24.5,17-40.5v-58c-0.7-16-6.5-29.5-17.5-40.5S298,360.7,282,360L282,360z M615,360c-16,0.7-29.5,6.5-40.5,17.5
	S557.7,402,557,418v58c0.7,16,6.3,29.5,17,40.5s24.3,16.5,41,16.5s30.3-5.5,41-16.5s16.3-24.5,17-40.5v-58
	c-0.7-16-6.5-29.5-17.5-40.5S631,360.7,615,360L615,360z"/>
</svg>
