<?xml version="1.0" encoding="utf-8"?>
<!-- Generator: Adobe Illustrator 16.0.0, SVG Export Plug-In . SVG Version: 6.00 Build 0)  -->
<!DOCTYPE svg PUBLIC "-//W3C//DTD SVG 1.1//EN" "http://www.w3.org/Graphics/SVG/1.1/DTD/svg11.dtd">
<svg version="1.1" id="Layer_1" xmlns="http://www.w3.org/2000/svg" xmlns:xlink="http://www.w3.org/1999/xlink" x="0px" y="0px"
	 width="453.317px" height="345.65px" viewBox="0 0 453.317 345.65" enable-background="new 0 0 453.317 345.65"
	 xml:space="preserve">
<g>
	<g>
		<path fill="#292F35" d="M198.082,345.65V13.775c0-6.891-5.596-12.477-12.497-12.477H12.498C5.595,1.299,0,6.885,0,13.775V345.65
			H198.082z"/>
		<rect x="4.717" y="24.38" fill="#808080" width="188.648" height="321.27"/>
		<path fill="#EED600" d="M169.026,287.966c0,6.892-5.596,12.477-12.498,12.477H41.553c-6.902,0-12.498-5.585-12.498-12.477l0,0
			c0-6.891,5.595-12.476,12.498-12.476h114.975C163.43,275.49,169.026,281.075,169.026,287.966L169.026,287.966z"/>
		<g>
			<path d="M79.245,291.576v2.312h-1.226v-2.1c-0.708,0.135-1.395,0.258-1.979,0.371l-0.27-1.292
				c0.607-0.079,1.406-0.19,2.249-0.314v-1.258h-0.877c-0.36,0-0.776,0.067-0.866,0.169c-0.067-0.236-0.27-0.82-0.405-1.135
				c0.225-0.067,0.394-0.382,0.562-0.876c0.101-0.235,0.292-0.809,0.495-1.538h-1.012v-1.247h1.305
				c0.09-0.404,0.157-0.819,0.214-1.235l1.271,0.236c-0.067,0.325-0.124,0.662-0.202,0.988h1.72v1.258h-2.069
				c-0.236,0.774-0.518,1.527-0.776,2.178h0.641V286.5h1.226v1.594h0.877v1.202h-0.877v1.067l0.922-0.146l0.079,1.168
				L79.245,291.576z M85.374,289.016c-0.484-0.371-1.372-0.877-2.204-1.326c-0.743,0.551-1.552,0.978-2.396,1.314
				c-0.158-0.337-0.54-0.842-0.821-1.123c1.518-0.517,2.98-1.494,3.857-2.673h-3.183v-1.213h4.004l0.236-0.056l0.945,0.471
				c-0.394,0.933-0.967,1.741-1.653,2.438c0.765,0.359,1.552,0.786,2.024,1.111L85.374,289.016z M86.217,292.451v1.236h-6.151
				v-1.236h2.485v-2.066h-1.923v-1.213h5.106v1.213H83.89v2.066H86.217z"/>
			<path d="M91.313,290.834c-0.191-0.449-0.506-1.089-0.832-1.707v4.807h-1.305v-4.244c-0.303,0.943-0.663,1.773-1.057,2.347
				c-0.124-0.382-0.416-0.988-0.629-1.337c0.675-0.887,1.282-2.447,1.608-3.807h-1.473v-1.235h1.552v-2.212h1.305v2.212h1.305v1.235
				h-1.305v0.416c0.461,0.584,1.507,2.088,1.743,2.459L91.313,290.834z M94.485,284.051c-0.405,1.831-1.147,3.617-2.001,4.729
				c-0.259-0.213-0.866-0.596-1.192-0.764c0.855-0.977,1.496-2.605,1.833-4.234L94.485,284.051z M96.419,289.6
				c0.607,1.156,1.304,2.672,1.563,3.639l-1.226,0.584c-0.056-0.248-0.146-0.528-0.236-0.82c-3.408,0.438-4.037,0.539-4.431,0.707
				v0.012v-0.012l-0.023,0.012v-0.09c-0.101-0.314-0.314-0.887-0.472-1.225c0.315-0.101,0.518-0.404,0.798-0.943
				c0.304-0.527,1.181-2.571,1.653-4.458l1.417,0.505c-0.483,1.596-1.181,3.234-1.889,4.571l2.508-0.259
				c-0.248-0.605-0.529-1.213-0.788-1.752L96.419,289.6z M96.295,283.658c0.416,1.719,0.956,2.942,1.833,3.965
				c-0.382,0.291-0.821,0.764-1.023,1.145c-1.034-1.324-1.597-2.751-2.069-4.817L96.295,283.658z"/>
			<path d="M101.943,289.711v2.617c0,0.641-0.101,1-0.461,1.213c-0.349,0.225-0.844,0.27-1.563,0.27
				c-0.045-0.348-0.202-0.921-0.371-1.303c0.394,0.012,0.788,0.012,0.922,0.012s0.191-0.045,0.191-0.191v-2.234l-1.057,0.303
				l-0.292-1.27c0.382-0.09,0.843-0.201,1.35-0.336v-1.988h-1.17v-1.235h1.17v-2.111h1.282v2.111h0.934v1.235h-0.934v1.64
				l0.787-0.214l0.18,1.191L101.943,289.711z M109.781,289.97h-1.361v3.919h-1.327v-3.919h-1.259
				c-0.158,1.438-0.664,2.954-2.103,4.009c-0.191-0.258-0.607-0.719-0.911-0.943c1.214-0.764,1.597-1.965,1.72-3.065h-1.462v-1.28
				h1.518v-1.719h-1.169v-1.269h1.383c-0.168-0.505-0.517-1.224-0.843-1.763l1.158-0.461c0.371,0.572,0.798,1.359,0.967,1.864
				l-0.855,0.359h1.833c0.349-0.651,0.72-1.583,0.922-2.28l1.417,0.473c-0.326,0.605-0.664,1.258-0.979,1.808h1.091v1.269h-1.102
				v1.719h1.361V289.97z M107.093,288.689v-1.719h-1.203v1.719H107.093z"/>
			<path d="M121.13,290.98c-0.529,0.371-1.181,0.741-1.754,1.021c0.652,0.359,1.451,0.618,2.395,0.775
				c-0.258,0.258-0.596,0.752-0.753,1.09c-2.328-0.494-3.745-1.617-4.611-3.471c-0.427,0.393-0.922,0.741-1.496,1.045v1.044
				l2.429-0.46c-0.067,0.303-0.101,0.809-0.101,1.066c-3.16,0.651-3.632,0.764-3.902,0.921c-0.056-0.292-0.248-0.798-0.382-1.011
				c0.248-0.09,0.664-0.281,0.664-0.797v-0.18c-0.562,0.201-1.136,0.37-1.721,0.494c-0.158-0.281-0.483-0.708-0.731-0.955
				c1.304-0.213,2.609-0.641,3.565-1.201h-3.352v-1.057h4.386c-0.068-0.18-0.135-0.348-0.203-0.494l1.305-0.37
				c0.146,0.259,0.304,0.573,0.416,0.864h4.296v1.057h-1.282L121.13,290.98z M113.652,287.488c-0.697,0.303-1.417,0.617-2.024,0.875
				l-0.427-1.078c0.652-0.235,1.541-0.595,2.452-0.977v-2.863h1.237v5.391h-1.237V287.488z M112.797,285.927
				c-0.281-0.349-0.888-0.864-1.383-1.213l0.765-0.753c0.483,0.314,1.113,0.787,1.428,1.135L112.797,285.927z M117.689,285.904
				h-2.396v-1.156h2.396v-1.303h1.35v1.303h2.44v1.156h-2.44v1.314h2.204v1.145h-5.657v-1.145h2.103V285.904z M117.667,290.363
				c0.225,0.381,0.506,0.707,0.821,0.999c0.54-0.292,1.147-0.674,1.575-0.999H117.667z"/>
			<path d="M124.303,291.957c0-0.64,0.506-1.111,1.169-1.111s1.169,0.472,1.169,1.111c0,0.652-0.506,1.102-1.169,1.102
				S124.303,292.609,124.303,291.957z M124.505,286.23l-0.056-1.674h2.058l-0.056,1.674l-0.394,3.84h-1.158L124.505,286.23z"/>
		</g>
		<g opacity="0.6">
			<path fill="#B2B2B2" d="M45.336,82.065h0.702v5.525h-0.702V82.065z"/>
			<path fill="#B2B2B2" d="M47.547,82.065h0.725l2.017,3.482l0.589,1.139h0.038c-0.038-0.558-0.091-1.176-0.091-1.749v-2.872h0.665
				v5.525h-0.718l-2.017-3.49l-0.597-1.138h-0.03c0.03,0.558,0.083,1.146,0.083,1.726v2.902h-0.665V82.065z"/>
			<path fill="#B2B2B2" d="M52.596,86.867l0.416-0.475c0.4,0.414,0.959,0.686,1.533,0.686c0.725,0,1.163-0.361,1.163-0.904
				c0-0.565-0.4-0.746-0.921-0.98l-0.801-0.347c-0.514-0.218-1.125-0.61-1.125-1.417c0-0.852,0.74-1.47,1.745-1.47
				c0.657,0,1.239,0.279,1.631,0.687l-0.37,0.444c-0.34-0.316-0.748-0.521-1.261-0.521c-0.627,0-1.035,0.316-1.035,0.814
				c0,0.535,0.483,0.738,0.914,0.92l0.793,0.339c0.642,0.279,1.141,0.655,1.141,1.478c0,0.874-0.725,1.567-1.88,1.567
				C53.751,87.688,53.079,87.372,52.596,86.867z"/>
			<path fill="#B2B2B2" d="M58.492,82.653h-1.677v-0.588h4.056v0.588h-1.677v4.938h-0.702V82.653z"/>
			<path fill="#B2B2B2" d="M64.9,87.591l-1.345-2.345h-0.997v2.345h-0.702v-5.525h1.737c1.125,0,1.934,0.399,1.934,1.553
				c0,0.859-0.499,1.372-1.254,1.553l1.42,2.42H64.9z M62.559,84.682h0.929c0.869,0,1.345-0.348,1.345-1.063
				c0-0.731-0.476-0.987-1.345-0.987h-0.929V84.682z"/>
			<path fill="#B2B2B2" d="M66.626,85.307v-3.241h0.703v3.264c0,1.335,0.566,1.749,1.284,1.749c0.74,0,1.322-0.414,1.322-1.749
				v-3.264h0.672v3.241c0,1.779-0.861,2.382-1.994,2.382C67.487,87.688,66.626,87.086,66.626,85.307z"/>
			<path fill="#B2B2B2" d="M71.773,84.832c0-1.786,1.05-2.872,2.455-2.872c0.672,0,1.201,0.332,1.518,0.687l-0.378,0.452
				c-0.287-0.31-0.657-0.528-1.133-0.528c-1.05,0-1.745,0.859-1.745,2.239c0,1.395,0.665,2.269,1.722,2.269
				c0.528,0,0.929-0.233,1.284-0.618l0.385,0.438c-0.438,0.505-0.982,0.791-1.699,0.791C72.808,87.688,71.773,86.626,71.773,84.832z
				"/>
			<path fill="#B2B2B2" d="M77.91,82.653h-1.677v-0.588h4.056v0.588h-1.677v4.938H77.91V82.653z"/>
			<path fill="#B2B2B2" d="M81.275,82.065h0.702v5.525h-0.702V82.065z"/>
			<path fill="#B2B2B2" d="M83.169,84.81c0-1.771,0.975-2.85,2.364-2.85s2.364,1.078,2.364,2.85s-0.975,2.879-2.364,2.879
				S83.169,86.581,83.169,84.81z M87.18,84.81c0-1.387-0.657-2.239-1.646-2.239c-0.997,0-1.646,0.853-1.646,2.239
				c0,1.379,0.649,2.269,1.646,2.269C86.523,87.078,87.18,86.188,87.18,84.81z"/>
			<path fill="#B2B2B2" d="M89.086,82.065h0.725l2.017,3.482l0.589,1.139h0.038c-0.038-0.558-0.091-1.176-0.091-1.749v-2.872h0.665
				v5.525h-0.718l-2.017-3.49l-0.597-1.138h-0.03c0.03,0.558,0.083,1.146,0.083,1.726v2.902h-0.665V82.065z"/>
			<path fill="#B2B2B2" d="M94.135,86.867l0.416-0.475c0.4,0.414,0.959,0.686,1.533,0.686c0.725,0,1.163-0.361,1.163-0.904
				c0-0.565-0.4-0.746-0.921-0.98l-0.801-0.347c-0.514-0.218-1.125-0.61-1.125-1.417c0-0.852,0.74-1.47,1.745-1.47
				c0.657,0,1.239,0.279,1.631,0.687l-0.37,0.444c-0.34-0.316-0.748-0.521-1.261-0.521c-0.627,0-1.035,0.316-1.035,0.814
				c0,0.535,0.483,0.738,0.914,0.92l0.793,0.339c0.642,0.279,1.141,0.655,1.141,1.478c0,0.874-0.725,1.567-1.881,1.567
				C95.291,87.688,94.619,87.372,94.135,86.867z"/>
			<path fill="#B2B2B2" d="M100.731,82.065h0.846l1.065,2.955c0.128,0.385,0.257,0.769,0.393,1.153h0.038
				c0.128-0.385,0.25-0.769,0.378-1.153l1.057-2.955h0.846v5.525h-0.657V84.53c0-0.475,0.053-1.146,0.091-1.628h-0.03l-0.438,1.259
				l-1.05,2.872h-0.468l-1.05-2.872l-0.438-1.259h-0.03c0.03,0.482,0.083,1.153,0.083,1.628v3.061h-0.634V82.065z"/>
			<path fill="#B2B2B2" d="M106.86,82.065h0.702v5.525h-0.702V82.065z"/>
			<path fill="#B2B2B2" d="M109.071,82.065h0.725l2.017,3.482l0.589,1.139h0.038c-0.038-0.558-0.091-1.176-0.091-1.749v-2.872h0.665
				v5.525h-0.718l-2.017-3.49l-0.597-1.138h-0.03c0.03,0.558,0.083,1.146,0.083,1.726v2.902h-0.665V82.065z"/>
			<path fill="#B2B2B2" d="M114.52,82.065h0.702v5.525h-0.702V82.065z"/>
			<path fill="#B2B2B2" d="M118.422,82.065h1.579c1.246,0,2.077,0.415,2.077,1.621c0,1.168-0.831,1.711-2.04,1.711h-0.914v2.193
				h-0.702V82.065z M119.948,84.832c0.974,0,1.435-0.354,1.435-1.146c0-0.8-0.491-1.056-1.465-1.056h-0.793v2.201H119.948z"/>
			<path fill="#B2B2B2" d="M126.236,87.591l-1.345-2.345h-0.997v2.345h-0.702v-5.525h1.737c1.125,0,1.934,0.399,1.934,1.553
				c0,0.859-0.499,1.372-1.254,1.553l1.42,2.42H126.236z M123.894,84.682h0.929c0.869,0,1.345-0.348,1.345-1.063
				c0-0.731-0.476-0.987-1.345-0.987h-0.929V84.682z"/>
			<path fill="#B2B2B2" d="M127.667,84.81c0-1.771,0.975-2.85,2.364-2.85s2.364,1.078,2.364,2.85s-0.975,2.879-2.364,2.879
				S127.667,86.581,127.667,84.81z M131.678,84.81c0-1.387-0.657-2.239-1.646-2.239c-0.997,0-1.646,0.853-1.646,2.239
				c0,1.379,0.649,2.269,1.646,2.269C131.021,87.078,131.678,86.188,131.678,84.81z"/>
			<path fill="#B2B2B2" d="M133.267,84.832c0-1.786,1.073-2.872,2.538-2.872c0.771,0,1.276,0.347,1.594,0.687l-0.378,0.452
				c-0.279-0.294-0.634-0.528-1.201-0.528c-1.11,0-1.835,0.859-1.835,2.239c0,1.395,0.657,2.269,1.843,2.269
				c0.4,0,0.786-0.12,1.004-0.324v-1.447h-1.17v-0.58h1.812v2.321c-0.355,0.369-0.967,0.641-1.714,0.641
				C134.301,87.688,133.267,86.626,133.267,84.832z"/>
			<path fill="#B2B2B2" d="M141.828,87.591l-1.345-2.345h-0.997v2.345h-0.702v-5.525h1.737c1.125,0,1.934,0.399,1.934,1.553
				c0,0.859-0.499,1.372-1.254,1.553l1.42,2.42H141.828z M139.486,84.682h0.929c0.869,0,1.345-0.348,1.345-1.063
				c0-0.731-0.476-0.987-1.345-0.987h-0.929V84.682z"/>
			<path fill="#B2B2B2" d="M146.084,85.902h-2.024l-0.537,1.688h-0.71l1.881-5.525h0.778l1.881,5.525h-0.74L146.084,85.902z
				 M145.911,85.345l-0.265-0.845c-0.204-0.625-0.377-1.229-0.559-1.869h-0.03c-0.174,0.648-0.355,1.244-0.552,1.869l-0.271,0.845
				H145.911z"/>
			<path fill="#B2B2B2" d="M148.127,82.065h0.846l1.065,2.955c0.128,0.385,0.257,0.769,0.393,1.153h0.038
				c0.128-0.385,0.25-0.769,0.378-1.153l1.057-2.955h0.846v5.525h-0.657V84.53c0-0.475,0.053-1.146,0.091-1.628h-0.03l-0.438,1.259
				l-1.05,2.872h-0.468l-1.05-2.872l-0.438-1.259h-0.03c0.03,0.482,0.083,1.153,0.083,1.628v3.061h-0.634V82.065z"/>
		</g>
		<g>
			<path fill="#FFFFFF" d="M40.694,64.684v4.764c0,0.712-0.153,1.067-0.578,1.288c-0.408,0.203-1.07,0.254-2.106,0.254
				c-0.068-0.339-0.221-0.881-0.391-1.254c0.713,0.033,1.359,0.033,1.545,0.017c0.238,0,0.306-0.067,0.306-0.305V65.09l-1.97,0.645
				l-0.323-1.221c0.628-0.187,1.427-0.407,2.292-0.678V60.14h-2.072v-1.17h2.072v-3.39h1.223v3.39h1.681v1.17h-1.681v3.306
				l1.494-0.475l0.17,1.153L40.694,64.684z M52.735,64.938h-2.463v6.052h-1.24v-6.052h-2.479c-0.187,2.119-0.883,4.51-3.329,6.188
				c-0.17-0.271-0.577-0.712-0.849-0.898c2.208-1.373,2.785-3.458,2.938-5.289h-2.547v-1.221h2.582V63.53v-3.187h-2.021V59.14h5.468
				c0.561-1,1.206-2.475,1.562-3.543l1.291,0.475c-0.476,0.983-1.036,2.17-1.562,3.068h2.259v1.204h-2.072v3.373h2.463V64.938z
				 M45.823,59.089c-0.255-0.78-0.883-2.018-1.495-2.933l1.07-0.441c0.611,0.882,1.291,2.103,1.58,2.849L45.823,59.089z
				 M49.032,63.717v-3.373h-2.445v3.203v0.17H49.032z"/>
			<path fill="#FFFFFF" d="M59.101,60.987c-1.257,0.576-2.497,1.17-3.532,1.61l-0.425-1.051c1.019-0.39,2.479-1.068,3.957-1.729
				v-4.255h1.189v7.934h-1.189V60.987z M69.597,66.514c-0.883,0.61-2.038,1.238-3.023,1.695c1.138,0.797,2.564,1.373,4.161,1.695
				c-0.271,0.237-0.594,0.695-0.73,1.034c-3.329-0.813-5.774-2.628-7.133-5.391c-0.73,0.661-1.665,1.288-2.717,1.813v2.188
				l4.127-0.865c-0.034,0.306-0.068,0.78-0.051,1.034c-4.823,1.052-5.417,1.221-5.757,1.407c-0.051-0.271-0.271-0.779-0.441-1.017
				c0.34-0.103,0.883-0.373,0.883-1.052v-1.118c-1.002,0.424-2.055,0.745-3.057,0.982c-0.153-0.288-0.476-0.694-0.696-0.932
				c2.14-0.424,4.535-1.322,6.097-2.441h-5.876v-1.034h7.133c-0.17-0.373-0.391-0.797-0.594-1.119l1.223-0.339
				c0.306,0.44,0.595,1,0.781,1.458h6.606v1.034h-6.454c0.458,0.763,1.019,1.458,1.698,2.051c0.985-0.508,2.174-1.221,2.904-1.746
				L69.597,66.514z M57.743,59.038c-0.425-0.543-1.325-1.306-2.072-1.814l0.765-0.712c0.747,0.475,1.664,1.187,2.106,1.729
				L57.743,59.038z M65.062,59.004h-4.042v-1.119h4.042v-2.322h1.24v2.322h3.991v1.119h-3.991v2.679h3.668v1.119h-8.44v-1.119h3.533
				V59.004z"/>
			<path fill="#FFFFFF" d="M78.936,63.988l-2.242,0.695v4.882c0,0.712-0.169,1.051-0.611,1.255c-0.424,0.203-1.104,0.237-2.242,0.22
				c-0.051-0.322-0.221-0.83-0.391-1.152c0.764,0.017,1.478,0.017,1.681,0c0.238,0,0.323-0.068,0.323-0.322v-4.51
				c-0.798,0.237-1.545,0.458-2.208,0.661l-0.357-1.22c0.713-0.187,1.597-0.424,2.564-0.695v-3.645h-2.36v-1.17h2.36V55.58h1.24
				v3.407h1.987v1.17h-1.987v3.271c0.68-0.187,1.393-0.39,2.089-0.61L78.936,63.988z M86.12,61.089c0.934,0,1.087-0.288,1.189-2.119
				c0.289,0.221,0.815,0.407,1.155,0.492c-0.187,2.204-0.578,2.78-2.259,2.78h-3.957c-1.936,0-2.462-0.373-2.462-1.831v-4.78h1.24
				v2.525c2.004-0.424,4.161-1.017,5.435-1.576l0.968,0.933c-1.715,0.678-4.195,1.254-6.402,1.678v1.221
				c0,0.576,0.204,0.678,1.291,0.678H86.12z M79.785,63.649h7.948v7.323h-1.24v-0.712h-5.502v0.779h-1.206V63.649z M80.991,64.734
				v1.678h5.502v-1.678H80.991z M86.493,69.227v-1.78h-5.502v1.78H86.493z"/>
			<path fill="#FFFFFF" d="M99.126,58.444c-0.085,0.628-0.187,1.255-0.271,1.797h6.3v9.341c0,0.746-0.187,1.085-0.73,1.271
				c-0.543,0.204-1.512,0.204-2.87,0.204c-0.085-0.34-0.289-0.814-0.458-1.136c1.07,0.051,2.106,0.051,2.395,0.033
				c0.306-0.017,0.391-0.102,0.391-0.373v-8.171H93.369v9.629h-1.24V60.241h5.52c0.085-0.525,0.153-1.152,0.221-1.797h-6.657v-1.187
				h6.776c0.051-0.61,0.102-1.203,0.119-1.712l1.359,0.152c-0.051,0.491-0.119,1.034-0.187,1.56h6.776v1.187H99.126z M99.177,67.734
				v2.983h-1.206v-2.983H94.32v-1.051h3.651v-1.712h-3.295v-1.034h1.783c-0.153-0.56-0.543-1.407-0.934-2.001l1.002-0.254
				c0.407,0.594,0.832,1.424,0.985,1.967l-0.917,0.288h3.04c0.357-0.712,0.748-1.661,0.968-2.322l1.138,0.254
				c-0.322,0.712-0.662,1.44-0.985,2.068h1.919v1.034h-3.499v1.712h3.788v1.051H99.177z"/>
			<path fill="#FFFFFF" d="M112.812,60.021c-0.577,2.509-1.579,5.594-3.176,7.51c-0.271-0.221-0.798-0.576-1.121-0.746
				c1.545-1.78,2.479-4.729,2.904-7.019L112.812,60.021z M117.177,55.834v13.46c0,0.933-0.254,1.322-0.832,1.56
				c-0.611,0.204-1.647,0.237-3.244,0.237c-0.085-0.373-0.306-1-0.51-1.355c1.24,0.033,2.429,0.033,2.769,0.017
				c0.339,0,0.476-0.119,0.476-0.458v-13.46H117.177z M121.066,59.58c1.478,2.374,2.904,5.459,3.329,7.459l-1.308,0.594
				c-0.408-1.983-1.749-5.137-3.193-7.544L121.066,59.58z"/>
			<path fill="#FFFFFF" d="M131.594,65.903c-0.221-0.542-0.764-1.56-1.24-2.407v7.562h-1.189V63.92
				c-0.594,1.628-1.324,3.204-2.089,4.188c-0.119-0.339-0.441-0.882-0.662-1.203c0.951-1.221,1.987-3.408,2.564-5.323h-2.191v-1.187
				h2.377v-2.729c-0.611,0.136-1.24,0.254-1.817,0.355c-0.068-0.288-0.238-0.712-0.374-1c1.579-0.305,3.43-0.797,4.483-1.322
				l0.798,1.018c-0.543,0.254-1.206,0.475-1.902,0.661v3.018h2.089v1.187h-2.089v0.39c0.476,0.576,1.766,2.407,2.055,2.882
				L131.594,65.903z M141.954,69.43v1.17h-9.833v-1.17h4.45v-2.339h-3.294v-1.136h3.294v-2.204h-3.702v-1.153h8.712v1.153h-3.771
				v2.204h3.396v1.136h-3.396v2.339H141.954z M140.986,61.157h-7.795v-5.001h7.795V61.157z M139.763,57.241h-5.384v2.813h5.384
				V57.241z"/>
			<path fill="#FFFFFF" d="M159.699,57.461v1.188h-12.771v3.475c0,2.611-0.238,6.442-1.681,8.985
				c-0.221-0.221-0.781-0.576-1.053-0.712c1.375-2.407,1.494-5.815,1.494-8.273v-4.662h6.708c-0.221-0.508-0.526-1.136-0.781-1.61
				l1.206-0.355c0.34,0.593,0.781,1.407,1.019,1.966H159.699z M158.748,63.971l0.9,0.391c-0.866,1.203-1.834,2.56-2.684,3.391
				l-1.002-0.509c0.543-0.543,1.189-1.322,1.749-2.103h-3.651V69.6c0,0.763-0.187,1.085-0.798,1.288
				c-0.595,0.187-1.613,0.187-3.142,0.187c-0.068-0.373-0.254-0.831-0.424-1.187c1.24,0.051,2.377,0.034,2.7,0.017
				c0.323-0.017,0.408-0.085,0.408-0.322v-4.441h-5.248v-1.085h5.944c-1.087-0.576-2.446-1.221-3.566-1.712l0.764-0.729
				c0.764,0.321,1.647,0.694,2.479,1.102c0.934-0.475,1.936-1.17,2.717-1.848h-7.371v-1.052h8.475l0.289-0.067l0.815,0.627
				c-1.002,1.034-2.445,2.103-3.838,2.865c0.492,0.254,0.934,0.475,1.273,0.678l-0.136,0.136h3.142L158.748,63.971z"/>
		</g>
		<g>
			<rect x="38.503" y="126.205" fill="#FFFFFF" width="121.496" height="121.495"/>
		</g>
		<g>
			<polygon fill="#EED600" points="40.1,130.12 72.575,130.12 72.575,126.641 40.1,126.641 36.62,126.641 36.62,130.12 
				36.62,162.596 40.1,162.596 			"/>
			<polygon fill="#EED600" points="158.403,130.12 158.403,162.596 161.883,162.596 161.883,130.12 161.883,126.641 
				158.403,126.641 125.928,126.641 125.928,130.12 			"/>
			<polygon fill="#EED600" points="158.403,243.785 125.928,243.785 125.928,247.265 158.403,247.265 161.883,247.265 
				161.883,243.785 161.883,211.31 158.403,211.31 			"/>
			<polygon fill="#EED600" points="40.1,243.785 40.1,211.31 36.62,211.31 36.62,243.785 36.62,247.265 40.1,247.265 
				72.575,247.265 72.575,243.785 			"/>
		</g>
		<g id="qr_program">
			<circle fill="#FFFFFF" cx="99.251" cy="188.18" r="52.557"/>
			<path fill="#231F20" d="M121.003,188.082c0,12.023-9.749,21.771-21.77,21.771c-12.026,0-21.772-9.748-21.772-21.771
				c0-12.025,9.747-21.771,21.772-21.771C111.254,166.311,121.003,176.057,121.003,188.082z"/>
			<g>
				<circle fill="#FFFFFF" cx="99.25" cy="188.18" r="11.72"/>
				<g>
					<g>
						<circle fill="#231F20" cx="99.251" cy="188.18" r="6.853"/>
						<path fill="#4A80BC" d="M99.25,195.758c-4.178,0-7.576-3.4-7.576-7.578c0-4.179,3.397-7.578,7.576-7.578
							s7.575,3.399,7.575,7.578C106.826,192.357,103.429,195.758,99.25,195.758z M99.25,182.054c-3.375,0-6.125,2.749-6.125,6.126
							c0,3.376,2.75,6.127,6.125,6.127c3.377,0,6.127-2.751,6.127-6.127C105.378,184.803,102.628,182.054,99.25,182.054z"/>
					</g>
					<g>
						<circle fill="#FFFFFF" cx="96.264" cy="186.673" r="2.273"/>
						<circle fill="#FFFFFF" cx="98.098" cy="183.716" r="0.684"/>
					</g>
				</g>
			</g>
			<g>
				<path fill="#231F20" d="M70.394,154.66c-2.474,0-4.48,2.009-4.48,4.485c0,2.472,2.006,4.481,4.48,4.481
					c2.476,0,4.483-2.01,4.483-4.481C74.877,156.669,72.87,154.66,70.394,154.66z M70.394,162.197c-1.685,0-3.053-1.368-3.053-3.052
					c0-1.688,1.369-3.056,3.053-3.056c1.689,0,3.055,1.368,3.055,3.056C73.449,160.829,72.083,162.197,70.394,162.197z"/>
				<path fill="#231F20" d="M71.282,159.146c0,0.485-0.397,0.884-0.888,0.884c-0.487,0-0.886-0.398-0.886-0.884
					c0-0.492,0.399-0.889,0.886-0.889C70.885,158.257,71.282,158.653,71.282,159.146z"/>
			</g>
			<g>
				<path fill="#231F20" d="M128.348,154.66c-2.474,0-4.483,2.009-4.483,4.485c0,2.474,2.009,4.481,4.483,4.481
					s4.48-2.008,4.48-4.481C132.828,156.669,130.822,154.66,128.348,154.66z M128.348,162.197c-1.687,0-3.055-1.368-3.055-3.052
					c0-1.688,1.369-3.056,3.055-3.056c1.687,0,3.056,1.368,3.056,3.056C131.403,160.829,130.035,162.197,128.348,162.197z"/>
				<path fill="#231F20" d="M129.234,159.146c0,0.485-0.397,0.884-0.886,0.884c-0.491,0-0.886-0.398-0.886-0.884
					c0-0.492,0.395-0.889,0.886-0.889C128.837,158.257,129.234,158.653,129.234,159.146z"/>
			</g>
			<g>
				<path fill="#231F20" d="M70.394,212.615c-2.474,0-4.48,2.007-4.48,4.483s2.006,4.482,4.48,4.482
					c2.476,0,4.483-2.006,4.483-4.482S72.87,212.615,70.394,212.615z M70.394,220.154c-1.685,0-3.053-1.368-3.053-3.056
					c0-1.687,1.369-3.052,3.053-3.052c1.689,0,3.055,1.365,3.055,3.052C73.449,218.786,72.083,220.154,70.394,220.154z"/>
				<path fill="#231F20" d="M71.282,217.099c0,0.49-0.397,0.888-0.888,0.888c-0.487,0-0.886-0.397-0.886-0.888
					c0-0.489,0.399-0.885,0.886-0.885C70.885,216.214,71.282,216.609,71.282,217.099z"/>
			</g>
			<circle fill="#231F20" cx="79.287" cy="174.069" r="0.887"/>
			<path fill="#231F20" d="M77.91,177.856c0,0.488-0.396,0.883-0.886,0.883c-0.492,0-0.888-0.395-0.888-0.883
				c0-0.491,0.396-0.889,0.888-0.889C77.514,176.968,77.91,177.365,77.91,177.856z"/>
			<circle fill="#231F20" cx="75.562" cy="181.795" r="0.887"/>
			<path fill="#231F20" d="M75.739,186.086c0,0.491-0.395,0.889-0.886,0.889c-0.489,0-0.887-0.397-0.887-0.889
				c0-0.486,0.397-0.883,0.887-0.883C75.344,185.203,75.739,185.6,75.739,186.086z"/>
			<path fill="#231F20" d="M75.743,190.367c0,0.487-0.399,0.885-0.888,0.885s-0.886-0.397-0.886-0.885
				c0-0.492,0.397-0.889,0.886-0.889S75.743,189.875,75.743,190.367z"/>
			<circle fill="#231F20" cx="77.023" cy="198.442" r="0.887"/>
			<circle fill="#231F20" cx="92.982" cy="211.836" r="0.886"/>
			<circle fill="#231F20" cx="123.815" cy="186.025" r="0.887"/>
			<path fill="#231F20" d="M122.531,177.913c0,0.489-0.395,0.885-0.886,0.885c-0.489,0-0.886-0.396-0.886-0.885
				c0-0.492,0.397-0.887,0.886-0.887C122.137,177.026,122.531,177.421,122.531,177.913z"/>
			<circle fill="#231F20" cx="113.473" cy="168.074" r="0.886"/>
			<circle fill="#231F20" cx="109.729" cy="165.905" r="0.887"/>
			<circle fill="#231F20" cx="101.453" cy="163.639" r="0.887"/>
			<circle fill="#231F20" cx="97.215" cy="163.629" r="0.888"/>
			<circle fill="#231F20" cx="93.078" cy="164.416" r="0.887"/>
			<circle fill="#231F20" cx="96.825" cy="159.994" r="0.886"/>
			<path fill="#231F20" d="M97.514,156.494c0,0.489-0.397,0.886-0.887,0.886c-0.491,0-0.886-0.396-0.886-0.886
				c0-0.492,0.395-0.887,0.886-0.887C97.116,155.607,97.514,156.002,97.514,156.494z"/>
			<circle fill="#231F20" cx="89.631" cy="152.103" r="0.886"/>
			<circle fill="#231F20" cx="90.716" cy="155.607" r="0.887"/>
			<circle fill="#231F20" cx="85.889" cy="159.352" r="0.886"/>
			<path fill="#231F20" d="M103.027,156.534c0,0.49-0.397,0.889-0.886,0.889c-0.489,0-0.886-0.398-0.886-0.889
				c0-0.487,0.397-0.885,0.886-0.885C102.63,155.649,103.027,156.047,103.027,156.534z"/>
			<path fill="#231F20" d="M103.522,150.978c0,0.489-0.396,0.884-0.886,0.884s-0.888-0.395-0.888-0.884s0.399-0.889,0.888-0.889
				S103.522,150.488,103.522,150.978z"/>
			<circle fill="#231F20" cx="117.315" cy="149.302" r="0.887"/>
			<circle fill="#231F20" cx="134.85" cy="171.675" r="0.887"/>
			<circle fill="#231F20" cx="129.333" cy="185.573" r="0.886"/>
			<circle fill="#231F20" cx="132.978" cy="185.18" r="0.886"/>
			<circle fill="#231F20" cx="136.524" cy="184.981" r="0.886"/>
			<circle fill="#231F20" cx="140.168" cy="184.589" r="0.887"/>
			<circle fill="#231F20" cx="126.575" cy="200.843" r="0.887"/>
			<circle fill="#231F20" cx="112.779" cy="217.12" r="0.887"/>
			<circle fill="#231F20" cx="114.36" cy="220.391" r="0.886"/>
			<path fill="#231F20" d="M110.712,227.682c0,0.488-0.395,0.886-0.887,0.886c-0.489,0-0.883-0.397-0.883-0.886
				c0-0.49,0.395-0.887,0.883-0.887C110.317,226.795,110.712,227.191,110.712,227.682z"/>
			<circle fill="#231F20" cx="102.931" cy="228.962" r="0.886"/>
			<circle fill="#231F20" cx="89.632" cy="224.135" r="0.887"/>
			<path fill="#231F20" d="M89.628,227.758c0,0.492-0.395,0.888-0.883,0.888c-0.492,0-0.889-0.396-0.889-0.888
				c0-0.486,0.397-0.887,0.889-0.887C89.234,226.871,89.628,227.271,89.628,227.758z"/>
			<circle fill="#231F20" cx="81.357" cy="227.092" r="0.887"/>
			<circle fill="#231F20" cx="86.678" cy="215.366" r="0.887"/>
			<path fill="#231F20" d="M78.796,218.718c0,0.488-0.397,0.884-0.886,0.884c-0.491,0-0.886-0.396-0.886-0.884
				c0-0.491,0.395-0.887,0.886-0.887C78.399,217.831,78.796,218.227,78.796,218.718z"/>
			<circle fill="#231F20" cx="76.904" cy="210.688" r="0.886"/>
			<circle fill="#231F20" cx="73.178" cy="206.479" r="0.887"/>
			<circle fill="#231F20" cx="68.825" cy="209.603" r="0.887"/>
			<circle fill="#231F20" cx="64.293" cy="212.754" r="0.887"/>
			<circle fill="#231F20" cx="68.825" cy="202.412" r="0.887"/>
			<circle fill="#231F20" cx="61.534" cy="198.371" r="0.887"/>
			<circle fill="#231F20" cx="63.999" cy="185.143" r="0.886"/>
			<circle fill="#231F20" cx="71.288" cy="185.734" r="0.887"/>
			<circle fill="#231F20" cx="60.255" cy="184.749" r="0.886"/>
			<circle fill="#231F20" cx="65.082" cy="178.959" r="0.886"/>
			<path fill="#231F20" d="M61.454,170.23c0,0.488-0.397,0.886-0.886,0.886s-0.886-0.397-0.886-0.886
				c0-0.492,0.397-0.889,0.886-0.889S61.454,169.738,61.454,170.23z"/>
			<path fill="#231F20" d="M88.984,163.818h-0.002c0,0,0-0.001-0.002-0.001c-0.214-0.441-0.743-0.624-1.184-0.409
				c-0.441,0.216-0.622,0.746-0.408,1.188l0.002,0.001l-0.004,0.003l0.841,1.727l0.005-0.006c0.223,0.424,0.743,0.596,1.173,0.386
				c0.429-0.211,0.614-0.724,0.419-1.159l0.004-0.002L88.984,163.818z"/>
			<path fill="#231F20" d="M83.582,152.277h-0.004v-0.001c-0.21-0.443-0.739-0.632-1.182-0.421c-0.442,0.21-0.631,0.738-0.421,1.182
				c0.002,0,0.002,0,0.002,0l-0.002,0.004l0.825,1.734l0.004-0.001c0.218,0.423,0.735,0.601,1.167,0.396
				c0.434-0.206,0.623-0.72,0.432-1.154l0.005-0.004L83.582,152.277z"/>
			<path fill="#231F20" d="M96.822,149.091h-0.004v-0.002c-0.031-0.488-0.454-0.856-0.941-0.828
				c-0.489,0.034-0.859,0.453-0.829,0.945v0.002h-0.002l0.355,3.762h0.004c0.046,0.473,0.46,0.827,0.938,0.798
				c0.48-0.033,0.845-0.438,0.829-0.915h0.002L96.822,149.091z"/>
			<path fill="#231F20" d="M125.142,182.166v-0.006l0.002-0.002c0.472-0.136,0.741-0.627,0.601-1.098
				c-0.138-0.469-0.629-0.739-1.101-0.602c0,0,0,0-0.002,0.003v-0.005l-1.842,0.541v0.006c-0.452,0.147-0.708,0.631-0.573,1.091
				c0.134,0.46,0.609,0.725,1.072,0.605v0.007L125.142,182.166z"/>
			<path fill="#231F20" d="M107.067,162.874h-0.002v-0.005c0.125-0.473-0.156-0.958-0.627-1.086
				c-0.476-0.122-0.963,0.158-1.088,0.632c0,0.002,0,0.002,0,0.002h-0.002l-0.494,1.856l0.004,0.003
				c-0.105,0.464,0.174,0.931,0.636,1.057c0.464,0.119,0.941-0.147,1.077-0.604h0.004L107.067,162.874z"/>
			<path fill="#231F20" d="M112.912,161.335h-0.004c0.002-0.003,0.002-0.003,0.002-0.003c0.224-0.438,0.051-0.969-0.383-1.193
				c-0.439-0.223-0.973-0.051-1.193,0.386c-0.002,0-0.002,0-0.002,0.003l-0.002-0.003l-0.875,1.714h0.004
				c-0.204,0.432-0.03,0.949,0.397,1.167c0.428,0.219,0.947,0.056,1.177-0.36l0.007,0.002L112.912,161.335z"/>
			<path fill="#231F20" d="M115.945,154.76h-0.004c0,0,0-0.002,0-0.006c0.223-0.436,0.046-0.97-0.391-1.19
				c-0.439-0.219-0.971-0.044-1.191,0.395v0.003l-0.004-0.003l-0.864,1.716l0.004,0.002c-0.202,0.431-0.024,0.947,0.404,1.164
				c0.428,0.218,0.95,0.051,1.178-0.368l0.004,0.005L115.945,154.76z"/>
			<path fill="#231F20" d="M109.898,152.416h-0.002c0.002,0,0.002,0,0.002-0.002c0.13-0.471-0.145-0.961-0.616-1.093
				c-0.474-0.131-0.963,0.146-1.092,0.616v0.004h-0.004l-0.516,1.851h0.004c-0.114,0.462,0.16,0.935,0.623,1.063
				c0.463,0.133,0.939-0.135,1.082-0.587l0.006,0.001L109.898,152.416z"/>
			<path fill="#231F20" d="M121.5,158.129l-0.002-0.002c0-0.002,0-0.004,0-0.004c0.3-0.388,0.226-0.943-0.16-1.241
				c-0.386-0.301-0.946-0.229-1.244,0.16c-0.002,0.002-0.002,0.002-0.002,0.002l-0.002-0.002l-1.173,1.522l0.004,0.002
				c-0.281,0.385-0.202,0.927,0.177,1.219c0.38,0.294,0.922,0.231,1.224-0.139l0.005,0.004L121.5,158.129z"/>
			<path fill="#231F20" d="M118.408,162.623l-0.002-0.002v-0.002c0.301-0.386,0.229-0.945-0.16-1.244
				c-0.389-0.3-0.945-0.227-1.244,0.164c0,0,0,0-0.001,0.002l-0.002-0.002l-1.174,1.521l0.005,0.002
				c-0.279,0.387-0.202,0.926,0.177,1.219c0.382,0.294,0.923,0.229,1.224-0.14l0.004,0.004L118.408,162.623z"/>
			<path fill="#231F20" d="M123.821,164.917l-0.004-0.004c0.002,0,0.004,0,0.004,0c0.338-0.353,0.329-0.914-0.024-1.254
				c-0.354-0.338-0.914-0.329-1.254,0.021v0.004l-0.005-0.004l-1.331,1.385l0.002,0.003c-0.32,0.354-0.303,0.9,0.044,1.232
				c0.344,0.332,0.89,0.331,1.232-0.003l0.002,0.003L123.821,164.917z"/>
			<path fill="#231F20" d="M120.016,168.721l-0.002-0.001c0,0,0-0.004,0.002-0.004c0.34-0.353,0.329-0.913-0.021-1.254
				c-0.354-0.34-0.915-0.328-1.255,0.024c-0.002,0.002-0.002,0.002-0.002,0.002l-0.002-0.002l-2.715,2.768l0.003,0.005
				c-0.321,0.351-0.303,0.897,0.041,1.231c0.347,0.332,0.893,0.325,1.232-0.006l0.005,0.002L120.016,168.721z"/>
			<path fill="#231F20" d="M126.802,150.637v-0.002v-0.004c0.298-0.386,0.226-0.943-0.163-1.241
				c-0.386-0.301-0.943-0.229-1.241,0.16c-0.002,0.002-0.002,0.002-0.004,0.002h-0.002l-1.171,1.521l0.004,0.004
				c-0.281,0.387-0.204,0.925,0.176,1.221c0.381,0.29,0.921,0.226,1.226-0.143l0.002,0.004L126.802,150.637z"/>
			<path fill="#231F20" d="M112.224,143.506l-0.003-0.002v-0.002c0.134-0.475-0.145-0.963-0.616-1.093
				c-0.471-0.132-0.958,0.144-1.09,0.616v0.002h-0.004l-0.518,1.852h0.004c-0.112,0.462,0.162,0.936,0.623,1.064
				c0.462,0.128,0.942-0.136,1.083-0.588h0.007L112.224,143.506z"/>
			<path fill="#231F20" d="M141.858,169.301v-0.006c0,0,0,0,0.002,0c0.438-0.217,0.619-0.75,0.403-1.188
				c-0.219-0.439-0.747-0.619-1.189-0.404c0,0,0,0.002-0.001,0.002l-0.002-0.002l-1.722,0.849l0.002,0.005
				c-0.42,0.224-0.589,0.744-0.379,1.171c0.213,0.433,0.729,0.611,1.162,0.417v0.004L141.858,169.301z"/>
			<path fill="#231F20" d="M137.866,162.256l-0.002-0.004c0.002,0,0.002,0,0.002,0c0.404-0.281,0.504-0.834,0.227-1.236
				c-0.281-0.402-0.832-0.502-1.235-0.224h-0.002l-0.002-0.002l-4.498,3.093l0.002,0.004c-0.384,0.283-0.476,0.822-0.199,1.215
				c0.272,0.395,0.809,0.498,1.208,0.239l0.001,0.004L137.866,162.256z"/>
			<path fill="#231F20" d="M130.453,167.517l-0.002-0.002l0.002-0.002c0.404-0.278,0.502-0.831,0.224-1.232
				c-0.278-0.405-0.831-0.502-1.234-0.227c0,0.003-0.002,0.003-0.002,0.003l-0.002-0.003l-4.499,3.093l0.002,0.002
				c-0.383,0.285-0.473,0.822-0.201,1.217c0.274,0.396,0.812,0.499,1.21,0.24l0.002,0.004L130.453,167.517z"/>
			<path fill="#231F20" d="M123.089,172.695l-0.005-0.004c0.002-0.002,0.005-0.002,0.005-0.002c0.403-0.278,0.504-0.828,0.229-1.232
				c-0.276-0.404-0.829-0.508-1.232-0.231l-0.002,0.002l-0.002-0.002l-3.223,2.158l0.005,0.001
				c-0.386,0.285-0.479,0.821-0.209,1.216c0.27,0.397,0.808,0.502,1.208,0.246l0.002,0.007L123.089,172.695z"/>
			<path fill="#231F20" d="M128.703,175.47l-0.002-0.004c0.002,0,0.002,0,0.002,0c0.438-0.22,0.621-0.751,0.403-1.19
				c-0.216-0.438-0.75-0.618-1.187-0.4c-0.002,0-0.004,0-0.004,0.002l-0.002-0.004l-3.491,1.689l0.001,0.002
				c-0.418,0.223-0.587,0.743-0.375,1.174c0.213,0.432,0.726,0.609,1.163,0.41v0.005L128.703,175.47z"/>
			<path fill="#231F20" d="M110.519,210.077h-0.001c0,0,0,0,0-0.003c-0.193-0.449-0.715-0.66-1.165-0.465
				c-0.452,0.19-0.658,0.712-0.468,1.165c0.003,0,0.003,0.001,0.003,0.001h-0.005l0.759,1.767l0.002-0.002
				c0.202,0.432,0.712,0.631,1.151,0.442c0.443-0.19,0.652-0.695,0.479-1.141h0.002L110.519,210.077z"/>
			<path fill="#231F20" d="M133.892,179.832v-0.002h0.002c0.472-0.135,0.746-0.625,0.612-1.095
				c-0.134-0.472-0.623-0.747-1.092-0.612h-0.004v-0.004l-3.54,0.984l0.002,0.004c-0.457,0.145-0.717,0.623-0.586,1.086
				c0.129,0.461,0.604,0.732,1.068,0.616v0.007L133.892,179.832z"/>
			<path fill="#231F20" d="M144.477,177.009v-0.003c0,0,0,0,0.002,0c0.471-0.135,0.746-0.623,0.612-1.095
				c-0.131-0.473-0.623-0.747-1.094-0.612h-0.002l-0.003-0.002l-5.382,1.444l0.002,0.005c-0.456,0.145-0.718,0.623-0.585,1.085
				c0.129,0.461,0.603,0.733,1.065,0.618l0.002,0.005L144.477,177.009z"/>
			<path fill="#231F20" d="M145.749,185.015v-0.005l0,0c0.489-0.044,0.849-0.474,0.807-0.96c-0.042-0.489-0.474-0.849-0.96-0.808
				h-0.002v-0.003l-1.915,0.169v0.005c-0.472,0.058-0.818,0.478-0.776,0.954c0.042,0.48,0.456,0.836,0.932,0.807v0.006
				L145.749,185.015z"/>
			<path fill="#231F20" d="M123.911,189.398v0.002c-0.002,0-0.002,0-0.002,0c-0.489-0.035-0.913,0.334-0.948,0.822
				c-0.035,0.488,0.332,0.914,0.821,0.949c0,0,0.002,0,0.004,0v0.002l3.681,0.258v-0.006c0.476,0.02,0.884-0.343,0.919-0.82
				c0.032-0.479-0.318-0.896-0.792-0.945v-0.004L123.911,189.398z"/>
			<path fill="#231F20" d="M136.551,190.492v0.002h-0.002c-0.487-0.035-0.913,0.335-0.948,0.823
				c-0.035,0.489,0.332,0.913,0.82,0.948h0.005v0.002l9.134,0.875v-0.007c0.478,0.021,0.886-0.342,0.921-0.823
				c0.036-0.479-0.319-0.895-0.793-0.941v-0.006L136.551,190.492z"/>
			<path fill="#231F20" d="M123.306,193.672v0.003l-0.002-0.002c-0.471-0.124-0.958,0.155-1.083,0.63
				c-0.127,0.473,0.156,0.959,0.63,1.083l0.002,0.002v0.005l10.539,2.875l0.002-0.007c0.462,0.11,0.932-0.168,1.055-0.634
				c0.123-0.463-0.145-0.938-0.603-1.074l0.002-0.006L123.306,193.672z"/>
			<path fill="#231F20" d="M137.445,197.398v0.004c0,0-0.002,0-0.004,0c-0.472-0.125-0.958,0.153-1.083,0.627
				c-0.125,0.471,0.155,0.961,0.629,1.084c0,0,0.002,0.001,0.005,0.001l-0.002,0.005l7.002,1.875l0.003-0.004
				c0.462,0.107,0.934-0.172,1.057-0.634c0.124-0.465-0.146-0.938-0.601-1.077v-0.004L137.445,197.398z"/>
			<path fill="#231F20" d="M122.021,197.73l-0.002,0.002h-0.004c-0.438-0.212-0.969-0.025-1.182,0.415
				c-0.213,0.44-0.027,0.969,0.414,1.185h0.002l-0.002,0.002l1.73,0.836l0.002-0.006c0.437,0.192,0.948,0.008,1.158-0.425
				c0.208-0.435,0.035-0.949-0.391-1.171l0.005-0.004L122.021,197.73z"/>
			<path fill="#231F20" d="M131.912,202.321v0.005c-0.001,0-0.004,0-0.004,0c-0.44-0.215-0.97-0.029-1.182,0.412
				c-0.213,0.44-0.029,0.969,0.415,1.182c0,0,0,0,0.002,0.002l-0.002,0.006l3.345,1.523v-0.004c0.437,0.193,0.95,0.008,1.158-0.427
				c0.208-0.432,0.035-0.948-0.388-1.169l0.001-0.003L131.912,202.321z"/>
			<path fill="#231F20" d="M119.987,201.567l-0.002,0.002c0,0-0.003-0.002-0.005-0.002c-0.393-0.292-0.947-0.21-1.237,0.183
				c-0.294,0.395-0.208,0.95,0.184,1.243c0.003,0,0.003,0,0.003,0v0.003l6.102,4.14l0.003-0.005c0.393,0.271,0.93,0.187,1.215-0.201
				c0.288-0.388,0.211-0.929-0.162-1.22l0.002-0.006L119.987,201.567z"/>
			<path fill="#231F20" d="M117.331,204.904v0.006c-0.002,0-0.002-0.003-0.004-0.006c-0.342-0.349-0.903-0.354-1.252-0.012
				c-0.351,0.342-0.357,0.902-0.018,1.254c0.002,0,0.002,0,0.004,0l-0.004,0.004l2.649,2.623l0.002-0.007
				c0.344,0.332,0.89,0.332,1.232-0.002c0.344-0.336,0.357-0.882,0.035-1.232l0.002-0.004L117.331,204.904z"/>
			<path fill="#231F20" d="M114.155,207.798h-0.002c0,0,0,0-0.002,0c-0.277-0.403-0.829-0.509-1.233-0.232
				c-0.403,0.275-0.506,0.83-0.23,1.232c0.002,0.001,0.002,0.001,0.002,0.001l-0.002,0.002l3.156,4.499l0.004-0.002
				c0.283,0.383,0.82,0.479,1.217,0.206c0.397-0.269,0.502-0.807,0.245-1.209l0.002-0.002L114.155,207.798z"/>
			<path fill="#231F20" d="M82.845,163.062h-0.004l-0.002-0.002c-0.283-0.398-0.838-0.493-1.237-0.214
				c-0.399,0.286-0.494,0.838-0.211,1.237c0.002,0,0.002,0.003,0.002,0.003l-0.004,0.003l3.187,4.566l0.002-0.005
				c0.29,0.379,0.827,0.468,1.219,0.188c0.393-0.276,0.489-0.813,0.226-1.21l0.004-0.002L82.845,163.062z"/>
			<path fill="#231F20" d="M106.565,211.69l-0.002,0.002v-0.004c-0.125-0.471-0.61-0.755-1.083-0.632
				c-0.471,0.126-0.756,0.61-0.632,1.08v0.004l-0.002,0.002l0.948,3.549h0.004c0.134,0.456,0.607,0.729,1.073,0.605
				c0.465-0.122,0.746-0.588,0.638-1.056h0.004L106.565,211.69z"/>
			<path fill="#231F20" d="M108.87,220.394h-0.004v-0.003c-0.156-0.465-0.658-0.714-1.123-0.559
				c-0.465,0.156-0.713,0.658-0.56,1.123c0.002,0.002,0.002,0.002,0.002,0.002l-0.004,0.002l0.612,1.82h0.007
				c0.167,0.445,0.655,0.684,1.111,0.531c0.454-0.152,0.702-0.639,0.563-1.098h0.005L108.87,220.394z"/>
			<path fill="#231F20" d="M102.369,212.526l-0.004,0.002c0,0,0-0.002,0-0.004c-0.05-0.486-0.489-0.838-0.974-0.786
				c-0.487,0.051-0.842,0.487-0.789,0.975v0.002h-0.003l0.204,1.91h0.005c0.063,0.471,0.493,0.812,0.971,0.759
				c0.476-0.049,0.823-0.471,0.788-0.947h0.004L102.369,212.526z"/>
			<path fill="#231F20" d="M103.119,221.614h-0.004v-0.004c-0.053-0.487-0.489-0.839-0.976-0.787
				c-0.487,0.053-0.84,0.489-0.788,0.976v0.002h-0.002l0.203,1.913l0.004-0.001c0.068,0.473,0.496,0.81,0.973,0.758
				c0.474-0.051,0.823-0.473,0.788-0.947h0.005L103.119,221.614z"/>
			<path fill="#231F20" d="M118.198,226.598l-0.004,0.003v-0.003c-0.207-0.445-0.732-0.639-1.178-0.433
				c-0.443,0.204-0.639,0.731-0.433,1.179c0,0,0.002,0,0.002,0.002h-0.004l1.557,3.327l0.004-0.003
				c0.214,0.427,0.73,0.608,1.165,0.408c0.437-0.203,0.629-0.711,0.443-1.151l0.004-0.001L118.198,226.598z"/>
			<path fill="#231F20" d="M104.117,232.447l-0.002,0.002c0,0,0-0.002,0-0.005c-0.056-0.485-0.492-0.84-0.979-0.787
				c-0.487,0.051-0.838,0.49-0.788,0.974c0,0,0.002,0.002,0.002,0.006h-0.004l0.205,1.909h0.003c0.066,0.472,0.494,0.812,0.97,0.76
				c0.478-0.052,0.825-0.472,0.79-0.948h0.007L104.117,232.447z"/>
			<path fill="#231F20" d="M98.033,212.693h-0.002v-0.002c0.035-0.49-0.333-0.914-0.823-0.946c-0.489-0.036-0.912,0.334-0.945,0.822
				v0.005l-0.004-0.003l-0.131,1.917h0.006c-0.02,0.477,0.345,0.884,0.825,0.917c0.478,0.033,0.893-0.319,0.941-0.793h0.004
				L98.033,212.693z"/>
			<path fill="#231F20" d="M97.423,220.003h-0.004v-0.004c0.042-0.49-0.323-0.918-0.812-0.956c-0.489-0.041-0.917,0.324-0.957,0.811
				c0,0,0,0.002,0,0.004h-0.001l-0.279,3.664h0.004c-0.022,0.473,0.333,0.885,0.813,0.928c0.479,0.037,0.897-0.312,0.95-0.787
				l0.004,0.002L97.423,220.003z"/>
			<path fill="#231F20" d="M96.643,229.053h-0.004v-0.002c0.056-0.484-0.292-0.926-0.776-0.983
				c-0.487-0.058-0.931,0.292-0.983,0.777c0,0.002,0,0.003,0,0.003h-0.007l-0.222,1.909h0.005c-0.04,0.473,0.302,0.898,0.781,0.952
				c0.476,0.059,0.908-0.277,0.978-0.746h0.004L96.643,229.053z"/>
			<path fill="#231F20" d="M88.648,231.439h-0.003v-0.004c0.127-0.473-0.153-0.961-0.623-1.086c-0.474-0.131-0.96,0.149-1.09,0.621
				v0.002l-0.004-0.002l-0.502,1.855l0.004,0.003c-0.109,0.46,0.167,0.932,0.63,1.059c0.463,0.128,0.941-0.14,1.079-0.599
				l0.004,0.004L88.648,231.439z"/>
			<path fill="#231F20" d="M89.784,210.774l-0.004-0.002c0.002-0.004,0.002-0.004,0.002-0.004c0.204-0.445,0.011-0.974-0.435-1.177
				c-0.442-0.207-0.969-0.011-1.175,0.433c0,0,0,0.002-0.002,0.002h-0.002l-0.807,1.741l0.004,0.004
				c-0.184,0.438,0.009,0.947,0.443,1.149c0.434,0.202,0.949,0.02,1.165-0.405h0.004L89.784,210.774z"/>
			<path fill="#231F20" d="M86.003,208.863h-0.002l0,0c0.279-0.408,0.173-0.96-0.23-1.236c-0.403-0.274-0.956-0.172-1.232,0.231
				l-0.002,0.006l-0.002-0.004l-1.083,1.589h0.006c-0.259,0.404-0.149,0.938,0.246,1.209c0.397,0.271,0.934,0.177,1.215-0.21
				l0.004,0.004L86.003,208.863z"/>
			<path fill="#231F20" d="M85.979,218.994h-0.003v-0.004c0.207-0.443,0.014-0.973-0.43-1.176c-0.445-0.207-0.972-0.016-1.178,0.429
				c0,0-0.002,0.002-0.002,0.005l-0.002-0.003l-0.808,1.744l0.005,0.003c-0.187,0.437,0.006,0.949,0.442,1.151
				c0.435,0.2,0.95,0.021,1.165-0.407l0.002,0.002L85.979,218.994z"/>
			<path fill="#231F20" d="M82.891,213.239l-0.002-0.001c0,0,0.002,0,0.002-0.003c0.272-0.406,0.167-0.956-0.236-1.232
				c-0.406-0.274-0.958-0.167-1.233,0.238v0.003h-0.004l-2.228,3.048l0.002,0.003c-0.253,0.403-0.145,0.938,0.252,1.207
				c0.399,0.268,0.937,0.172,1.215-0.214l0.002,0.002L82.891,213.239z"/>
			<path fill="#231F20" d="M75.632,223.649h-0.005c0,0,0-0.001,0.002-0.001c0.274-0.406,0.169-0.957-0.237-1.232
				c-0.406-0.274-0.957-0.17-1.23,0.236c-0.002,0.002-0.002,0.002-0.004,0.002v-0.002l-2.23,3.052l0.004,0.003
				c-0.254,0.404-0.145,0.937,0.252,1.207c0.396,0.271,0.932,0.171,1.212-0.215l0.004,0.004L75.632,223.649z"/>
			<path fill="#231F20" d="M82.678,206.194l-0.002-0.001l0.002-0.003c0.333-0.36,0.312-0.921-0.046-1.253
				c-0.359-0.333-0.921-0.312-1.254,0.046v0.002l-0.005-0.002l-2.667,2.677l0.003,0.002c-0.312,0.359-0.288,0.902,0.065,1.23
				c0.353,0.329,0.9,0.313,1.233-0.027l0.005,0.004L82.678,206.194z"/>
			<path fill="#231F20" d="M79.744,203l-0.002-0.004h0.002c0.395-0.291,0.476-0.846,0.187-1.241
				c-0.292-0.394-0.847-0.477-1.242-0.184l0,0l-0.002-0.002l-3.119,2.131l0.002,0.005c-0.375,0.296-0.45,0.835-0.165,1.225
				c0.286,0.383,0.825,0.471,1.216,0.201l0.004,0.002L79.744,203z"/>
			<path fill="#231F20" d="M74.195,200.762l-0.002-0.005c0.002,0,0.002,0,0.004-0.001c0.43-0.229,0.595-0.768,0.362-1.198
				c-0.229-0.431-0.768-0.595-1.2-0.364l-0.001,0.004l-0.002-0.007l-1.693,0.907l0.004,0.005c-0.414,0.239-0.568,0.761-0.34,1.186
				c0.227,0.424,0.749,0.587,1.174,0.375v0.004L74.195,200.762z"/>
			<path fill="#231F20" d="M62.562,206.271v-0.003h0.002c0.447-0.2,0.651-0.722,0.454-1.17c-0.198-0.448-0.721-0.649-1.171-0.452
				c0,0,0,0-0.002,0.002v-0.006l-1.759,0.775l0.005,0.005c-0.43,0.208-0.624,0.717-0.43,1.157c0.193,0.438,0.702,0.641,1.142,0.464
				l0.002,0.004L62.562,206.271z"/>
			<path fill="#231F20" d="M75.862,195.424l-0.003-0.005c0.003,0,0.003,0,0.003,0c0.478-0.113,0.773-0.592,0.66-1.067
				c-0.116-0.477-0.592-0.771-1.068-0.659l-0.001,0.002l-0.003-0.004l-1.869,0.443l0.002,0.004c-0.461,0.125-0.741,0.593-0.634,1.06
				c0.112,0.465,0.573,0.76,1.042,0.666v0.003L75.862,195.424z"/>
			<path fill="#231F20" d="M67.1,197.658l-0.002-0.004c0.002,0,0.002,0,0.005,0c0.467-0.141,0.732-0.636,0.592-1.105
				c-0.143-0.467-0.636-0.733-1.105-0.592c-0.002,0.002-0.002,0.002-0.002,0.002l-0.002-0.004l-1.837,0.555v0.004
				c-0.45,0.153-0.702,0.635-0.563,1.096c0.138,0.459,0.616,0.722,1.077,0.6v0.005L67.1,197.658z"/>
			<path fill="#231F20" d="M58.266,200.146v-0.003h0.002c0.476-0.113,0.77-0.592,0.658-1.066c-0.116-0.479-0.592-0.771-1.068-0.66
				c-0.002,0-0.002,0-0.004,0.004v-0.006l-3.637,0.906l0.002,0.005c-0.46,0.125-0.741,0.593-0.629,1.062
				c0.112,0.468,0.573,0.757,1.04,0.662l0.002,0.002L58.266,200.146z"/>
			<path fill="#231F20" d="M71.304,191.551v-0.002c0.002,0,0.002,0,0.004,0c0.487-0.042,0.851-0.471,0.812-0.959
				c-0.042-0.484-0.47-0.852-0.956-0.812c0,0-0.002,0-0.005,0v-0.003L60.257,190.7v0.005c-0.474,0.057-0.822,0.474-0.783,0.952
				c0.037,0.478,0.45,0.836,0.925,0.812v0.005L71.304,191.551z"/>
			<path fill="#231F20" d="M56.807,192.73v-0.005c0,0,0.003,0,0.005,0c0.487-0.048,0.842-0.482,0.793-0.97
				c-0.048-0.486-0.482-0.841-0.969-0.793c-0.002,0-0.004,0-0.004,0v-0.006l-3.722,0.408v0.008c-0.474,0.061-0.816,0.488-0.77,0.965
				c0.048,0.477,0.465,0.826,0.943,0.795v0.006L56.807,192.73z"/>
			<path fill="#231F20" d="M54.925,185.083v-0.005h0.003c0.489,0.033,0.912-0.338,0.943-0.828c0.033-0.485-0.34-0.909-0.827-0.94
				c-0.002,0-0.002,0-0.004,0l0.002-0.004l-1.917-0.124l-0.003,0.004c-0.476-0.016-0.881,0.35-0.912,0.829
				c-0.033,0.479,0.323,0.891,0.798,0.936v0.007L54.925,185.083z"/>
			<path fill="#231F20" d="M70.523,179.499l-0.002,0.005l-0.002-0.003c-0.473-0.124-0.958,0.163-1.081,0.638
				c-0.123,0.475,0.163,0.957,0.636,1.079h0.002v0.004l1.86,0.482V181.7c0.464,0.103,0.932-0.18,1.053-0.643
				c0.121-0.464-0.152-0.937-0.607-1.072l0.002-0.004L70.523,179.499z"/>
			<path fill="#231F20" d="M61.283,178.863l0.003-0.004c0,0,0,0.004,0.001,0.004c0.471,0.129,0.961-0.147,1.09-0.62
				c0.13-0.474-0.147-0.96-0.619-1.092c0,0-0.001,0-0.004,0l0.002-0.003l-3.542-0.974v0.007c-0.465-0.113-0.935,0.158-1.066,0.623
				c-0.125,0.463,0.138,0.941,0.592,1.081v0.005L61.283,178.863z"/>
			<path fill="#231F20" d="M64.183,170.815v0.004c-0.003,0-0.003-0.002-0.003-0.002c-0.443-0.212-0.973-0.031-1.187,0.41
				c-0.212,0.441-0.028,0.972,0.411,1.188c0,0,0,0,0.002,0l-0.002,0.004l10.027,4.68l0.002-0.004
				c0.434,0.194,0.947,0.011,1.158-0.421c0.211-0.433,0.037-0.949-0.383-1.172v-0.004L64.183,170.815z"/>
			<path fill="#231F20" d="M73.741,169.108l-0.003,0.005c0,0,0-0.002-0.002-0.002c-0.403-0.277-0.954-0.176-1.232,0.229
				c-0.274,0.402-0.173,0.959,0.23,1.234h0.002l-0.002,0.002l3.046,2.162l0.003-0.002c0.401,0.254,0.936,0.151,1.208-0.245
				c0.27-0.396,0.175-0.932-0.207-1.215l0.002-0.005L73.741,169.108z"/>
			<path fill="#231F20" d="M67.729,164.888l-0.004,0.005v-0.003c-0.41-0.27-0.958-0.161-1.231,0.249
				c-0.27,0.408-0.158,0.957,0.25,1.229c0.002,0,0.002,0.002,0.002,0.002l-0.002,0.002l1.601,1.062l0.004-0.004
				c0.406,0.251,0.938,0.137,1.204-0.263c0.266-0.402,0.163-0.937-0.228-1.213l0.004-0.004L67.729,164.888z"/>
			<path fill="#231F20" d="M79.996,167.515h-0.002c-0.002,0-0.002,0-0.002,0c-0.355-0.339-0.917-0.325-1.254,0.031
				c-0.336,0.354-0.32,0.916,0.033,1.252c0,0,0,0.001,0.002,0.001l-0.002,0.005l2.663,2.618l0.002-0.006
				c0.357,0.318,0.904,0.298,1.233-0.049c0.331-0.348,0.322-0.894-0.011-1.234l0.005-0.002L79.996,167.515z"/>
			<path fill="#231F20" d="M73.429,149.652l-0.002,0.002l-0.002-0.002c-0.283-0.398-0.836-0.495-1.235-0.213
				c-0.401,0.285-0.496,0.839-0.213,1.238c0,0,0,0.002,0.002,0.002h-0.002l5.26,7.484l0.002-0.002
				c0.29,0.379,0.827,0.466,1.219,0.189c0.392-0.277,0.489-0.813,0.226-1.211l0.004-0.005L73.429,149.652z"/>
			<path fill="#1E964A" d="M128.883,208.66c-5.018,0-9.086,4.068-9.086,9.086s4.068,9.086,9.086,9.086
				c5.019,0,9.086-4.068,9.086-9.086S133.901,208.66,128.883,208.66z M131.973,218.56c0,0-0.638-0.003-0.783-0.538
				c-0.204-0.767,0.629-1.087,0.629-1.087c0.935-0.181,1.667-0.817,1.667-1.69c0-0.936-0.831-1.691-1.864-1.691
				c-0.958,0-1.748,0.657-1.851,1.505c0,0-0.018,5.091-0.018,5.188c0,1.843-1.619,3.334-3.61,3.334
				c-1.997,0-3.613-1.491-3.613-3.334c0-1.775,1.362-3.218,3.264-3.313c0,0,0.639,0.002,0.78,0.537
				c0.204,0.769-0.626,1.087-0.626,1.087c-0.937,0.182-1.669,0.819-1.669,1.689c0,0.937,0.833,1.695,1.864,1.695
				c0.958,0,1.748-0.662,1.851-1.509h0.022v-0.069l-0.006-5.005h0.006c0-0.041-0.002-0.075-0.002-0.114
				c0-1.842,1.614-3.332,3.607-3.332c1.996,0,3.613,1.49,3.613,3.332C135.235,217.023,133.872,218.463,131.973,218.56z"/>
		</g>
	</g>
	<g>
		<path fill="#292F35" d="M453.317,344.352V12.477C453.317,5.586,447.723,0,440.82,0H267.732c-6.902,0-12.498,5.586-12.498,12.477
			v331.875H453.317z"/>
		<rect x="260.424" y="23.081" fill="#FFDD31" width="187.705" height="321.27"/>
		<g>
			<g>
				<path fill="#FFFFFF" d="M346.311,74.961c-0.397,0-0.72-0.319-0.72-0.715V57.815c0-0.396,0.322-0.716,0.72-0.716h16.455
					c0.397,0,0.719,0.32,0.719,0.716v16.431c0,0.396-0.321,0.715-0.719,0.715H346.311z"/>
				<rect x="346.311" y="57.815" fill="#231F20" width="16.455" height="16.431"/>
				<ellipse fill="#FFFFFF" cx="354.537" cy="66.029" rx="4.707" ry="4.699"/>
				<circle fill="#231F20" cx="354.539" cy="66.029" r="2.492"/>
				<circle fill="#FFFFFF" cx="355.843" cy="65.135" r="0.501"/>
				<circle fill="#FFFFFF" cx="355.026" cy="64.344" r="0.29"/>
			</g>
			<g>
				<path fill="#FFFFFF" d="M343.226,80.224c-0.247,0-0.448-0.201-0.448-0.448v-3.15c0-0.249,0.201-0.448,0.448-0.448h2.146
					c0.247,0,0.448,0.199,0.448,0.448v0.688c0,0.165-0.09,0.31-0.223,0.388c0.016,0.044,0.024,0.091,0.024,0.14v0.69
					c0,0.058-0.012,0.111-0.031,0.161c0.136,0.078,0.229,0.226,0.229,0.393v0.69c0,0.247-0.201,0.448-0.448,0.448H343.226z"/>
				<path fill="#231F20" d="M343.226,79.775v-3.15h2.146v0.688h-1.369v0.527h1.17v0.69h-1.17v0.554h1.369v0.69H343.226z"/>
				<path fill="#FFFFFF" d="M347.13,80.224c-0.247,0-0.449-0.201-0.449-0.448V78.6l-0.903-1.772c-0.07-0.14-0.064-0.305,0.017-0.437
					c0.081-0.134,0.228-0.214,0.382-0.214h0.848c0.179,0,0.338,0.104,0.41,0.268l0.085,0.191l0.083-0.188
					c0.07-0.165,0.233-0.271,0.41-0.271h0.848c0.156,0,0.301,0.08,0.382,0.214c0.081,0.132,0.089,0.297,0.017,0.437l-0.902,1.772
					v1.176c0,0.247-0.202,0.448-0.449,0.448H347.13z"/>
				<path fill="#231F20" d="M347.906,78.492v1.283h-0.776v-1.283l-0.954-1.867h0.848l0.497,1.132l0.491-1.132h0.848L347.906,78.492z
					"/>
				<path fill="#FFFFFF" d="M349.753,80.224c-0.249,0-0.448-0.201-0.448-0.448v-3.15c0-0.249,0.199-0.448,0.448-0.448h2.147
					c0.246,0,0.447,0.199,0.447,0.448v0.688c0,0.165-0.09,0.31-0.222,0.388c0.014,0.044,0.021,0.091,0.021,0.14v0.69
					c0,0.058-0.011,0.111-0.031,0.161c0.14,0.078,0.232,0.226,0.232,0.393v0.69c0,0.247-0.201,0.448-0.447,0.448H349.753z"/>
				<path fill="#231F20" d="M349.753,79.775v-3.15h2.147v0.688h-1.371v0.527h1.169v0.69h-1.169v0.554h1.371v0.69H349.753z"/>
				<path fill="#FFFFFF" d="M353.023,80.224c-0.249,0-0.449-0.201-0.449-0.448v-3.15c0-0.249,0.2-0.448,0.449-0.448h1.307
					c0.871,0,1.455,0.546,1.455,1.358c0,0.216-0.059,0.421-0.165,0.6c0.116,0.166,0.208,0.396,0.208,0.711
					c0,0.811-0.587,1.378-1.432,1.378H353.023z"/>
				<path fill="#231F20" d="M354.396,79.775h-1.373v-3.15h1.307c0.657,0,1.006,0.365,1.006,0.91c0,0.358-0.248,0.558-0.345,0.625
					c0.128,0.08,0.39,0.244,0.39,0.686C355.381,79.447,354.961,79.775,354.396,79.775z M354.283,77.319h-0.485v0.512h0.485
					c0.211,0,0.278-0.132,0.278-0.255C354.562,77.452,354.494,77.319,354.283,77.319z M354.321,78.526h-0.523v0.554h0.523
					c0.212,0,0.284-0.146,0.284-0.279C354.605,78.669,354.533,78.526,354.321,78.526z"/>
				<path fill="#FFFFFF" d="M358.257,80.224c-0.196,0-0.37-0.128-0.429-0.316l-0.047-0.154h-0.318l-0.052,0.163
					c-0.06,0.184-0.233,0.308-0.426,0.308h-0.812c-0.146,0-0.284-0.071-0.367-0.192c-0.084-0.119-0.105-0.272-0.056-0.408
					l1.149-3.153c0.064-0.175,0.231-0.293,0.422-0.293h0.598c0.188,0,0.356,0.118,0.422,0.293l1.146,3.153
					c0.052,0.136,0.031,0.289-0.053,0.408c-0.083,0.121-0.223,0.192-0.367,0.192H358.257z"/>
				<path fill="#231F20" d="M358.257,79.775l-0.146-0.469h-0.973l-0.152,0.469h-0.812l1.148-3.15h0.598l1.148,3.15H358.257z
					 M357.641,77.818l-0.283,0.842h0.549L357.641,77.818z"/>
				<path fill="#FFFFFF" d="M359.962,80.224c-0.248,0-0.449-0.201-0.449-0.448v-3.15c0-0.249,0.201-0.448,0.449-0.448h0.776
					c0.246,0,0.447,0.199,0.447,0.448v2.012h0.877c0.248,0,0.449,0.2,0.449,0.448v0.69c0,0.247-0.201,0.448-0.449,0.448H359.962z"/>
				<path fill="#231F20" d="M359.962,79.775v-3.15h0.776v2.46h1.324v0.69H359.962z"/>
				<path fill="#FFFFFF" d="M363.09,80.224c-0.248,0-0.449-0.201-0.449-0.448v-3.15c0-0.249,0.201-0.448,0.449-0.448h0.775
					c0.249,0,0.449,0.199,0.449,0.448v2.012h0.877c0.25,0,0.447,0.2,0.447,0.448v0.69c0,0.247-0.197,0.448-0.447,0.448H363.09z"/>
				<path fill="#231F20" d="M363.09,79.775v-3.15h0.775v2.46h1.326v0.69H363.09z"/>
				<path fill="#FFFFFF" d="M352.721,84.851c-0.246,0-0.447-0.2-0.447-0.448v-3.151c0-0.247,0.201-0.447,0.447-0.447h1.309
					c0.869,0,1.455,0.547,1.455,1.358c0,0.217-0.06,0.421-0.165,0.6c0.114,0.168,0.209,0.396,0.209,0.711
					c0,0.812-0.589,1.378-1.433,1.378H352.721z"/>
				<path fill="#231F20" d="M354.096,84.402h-1.375v-3.151h1.309c0.654,0,1.006,0.368,1.006,0.911c0,0.359-0.25,0.559-0.346,0.624
					c0.129,0.08,0.391,0.245,0.391,0.687C355.08,84.074,354.658,84.402,354.096,84.402z M353.98,81.947h-0.484v0.512h0.484
					c0.212,0,0.277-0.132,0.277-0.255C354.258,82.078,354.192,81.947,353.98,81.947z M354.021,83.154h-0.524v0.553h0.524
					c0.212,0,0.283-0.146,0.283-0.278C354.304,83.297,354.232,83.154,354.021,83.154z"/>
				<path fill="#FFFFFF" d="M357.29,84.877c-0.487,0-0.868-0.154-1.199-0.486c-0.452-0.449-0.45-1.014-0.45-1.512v-0.105
					c0-0.496-0.002-1.06,0.45-1.511c0.331-0.332,0.712-0.485,1.199-0.485s0.867,0.153,1.199,0.485
					c0.451,0.451,0.451,1.015,0.451,1.511v0.105c0,0.498,0,1.062-0.451,1.512C358.157,84.723,357.777,84.877,357.29,84.877z"/>
				<path fill="#231F20" d="M358.172,84.074c-0.23,0.231-0.496,0.355-0.882,0.355s-0.651-0.124-0.883-0.355
					c-0.333-0.331-0.319-0.774-0.319-1.246c0-0.476-0.014-0.917,0.319-1.25c0.231-0.228,0.497-0.354,0.883-0.354
					s0.651,0.126,0.882,0.354c0.332,0.333,0.318,0.774,0.318,1.25C358.49,83.3,358.504,83.743,358.172,84.074z M357.6,82.052
					c-0.058-0.074-0.168-0.136-0.31-0.136s-0.253,0.062-0.31,0.136c-0.072,0.095-0.117,0.2-0.117,0.776
					c0,0.575,0.045,0.676,0.117,0.77c0.057,0.076,0.168,0.141,0.31,0.141s0.252-0.064,0.31-0.141
					c0.071-0.094,0.116-0.194,0.116-0.77C357.716,82.252,357.671,82.146,357.6,82.052z"/>
				<path fill="#FFFFFF" d="M361.163,84.851c-0.166,0-0.318-0.092-0.396-0.237l-0.123-0.229l-0.124,0.229
					c-0.077,0.146-0.229,0.237-0.395,0.237h-0.886c-0.163,0-0.312-0.088-0.392-0.228c-0.078-0.142-0.076-0.314,0.008-0.453
					l0.844-1.385l-0.784-1.305c-0.083-0.138-0.084-0.31-0.005-0.45c0.08-0.14,0.229-0.227,0.39-0.227h0.883
					c0.167,0,0.322,0.094,0.397,0.241l0.063,0.122l0.062-0.122c0.076-0.147,0.231-0.241,0.399-0.241h0.881
					c0.162,0,0.311,0.087,0.393,0.227c0.079,0.141,0.076,0.312-0.006,0.45l-0.783,1.305l0.843,1.385
					c0.083,0.139,0.087,0.312,0.008,0.453c-0.079,0.14-0.229,0.228-0.391,0.228H361.163z"/>
				<path fill="#231F20" d="M361.163,84.402l-0.52-0.969l-0.519,0.969h-0.886l0.983-1.616l-0.923-1.535h0.883l0.461,0.891
					l0.462-0.891h0.881l-0.92,1.535l0.983,1.616H361.163z"/>
				<path fill="#FFFFFF" d="M344.99,84.823c-0.129,0-0.251-0.056-0.335-0.154s-0.12-0.229-0.099-0.356l0.303-1.918
					c0.01-0.053,0.026-0.104,0.051-0.151c-0.012-0.055-0.016-0.116-0.006-0.176l0.062-0.391c0.034-0.221,0.228-0.385,0.45-0.385
					h0.491c0.128,0,0.253,0.057,0.336,0.153c0.083,0.098,0.12,0.228,0.099,0.356l-0.062,0.39c-0.01,0.061-0.029,0.115-0.059,0.164
					c0.011,0.054,0.013,0.108,0.004,0.164l-0.303,1.918c-0.035,0.221-0.229,0.386-0.451,0.386H344.99z"/>
				<path fill="#231F20" d="M345.346,82.13l0.062-0.391h0.493l-0.062,0.391H345.346z M344.999,84.375l0.304-1.917h0.479
					l-0.303,1.917H344.999z"/>
				<path fill="#FFFFFF" d="M347.121,84.823c-0.119,0-0.233-0.049-0.315-0.134c-0.083,0.082-0.197,0.134-0.321,0.134h-0.479
					c-0.131,0-0.253-0.056-0.336-0.154c-0.084-0.099-0.12-0.229-0.101-0.356l0.304-1.918c0.035-0.221,0.229-0.385,0.452-0.385h0.467
					c0.054,0,0.104,0.008,0.151,0.025c0.107-0.032,0.22-0.048,0.332-0.048c0.316,0,0.587,0.115,0.764,0.325
					c0.295,0.35,0.229,0.764,0.207,0.899l-0.193,1.226c-0.033,0.221-0.229,0.386-0.451,0.386H347.121z"/>
				<path fill="#231F20" d="M347.13,84.375l0.184-1.159c0.042-0.262-0.11-0.35-0.262-0.35s-0.335,0.088-0.376,0.35l-0.184,1.159
					h-0.48l0.305-1.917h0.468l-0.028,0.177c0.147-0.134,0.335-0.199,0.511-0.199c0.192,0,0.338,0.062,0.428,0.168
					c0.13,0.154,0.142,0.336,0.109,0.547l-0.194,1.225H347.13z"/>
				<path fill="#FFFFFF" d="M349.484,84.842c-0.35,0-0.619-0.11-0.801-0.326c-0.17-0.21-0.236-0.486-0.189-0.785
					c0.045-0.281,0.188-0.517,0.398-0.681l-0.045-0.054c-0.157-0.18-0.141-0.455,0.037-0.62c0.296-0.276,0.6-0.389,1.047-0.389
					c0.43,0,0.749,0.121,0.951,0.356c0.127,0.148,0.262,0.412,0.195,0.831l-0.2,1.263c-0.034,0.221-0.226,0.386-0.45,0.386h-0.469
					c-0.047,0-0.094-0.009-0.139-0.022C349.719,84.829,349.606,84.842,349.484,84.842z"/>
				<path fill="#231F20" d="M349.967,84.375l0.026-0.166c-0.148,0.129-0.28,0.184-0.5,0.184c-0.218,0-0.368-0.055-0.466-0.168
					c-0.085-0.105-0.115-0.262-0.09-0.431c0.05-0.306,0.299-0.557,0.746-0.557h0.452l0.016-0.096
					c0.034-0.21-0.057-0.302-0.312-0.302c-0.184,0-0.273,0.045-0.393,0.159l-0.258-0.299c0.22-0.206,0.413-0.265,0.733-0.265
					c0.538,0,0.784,0.229,0.714,0.678l-0.202,1.262H349.967z M350.084,83.564h-0.378c-0.175,0-0.283,0.082-0.306,0.218
					c-0.021,0.132,0.054,0.221,0.242,0.221c0.133,0,0.221-0.011,0.316-0.092c0.061-0.047,0.089-0.126,0.108-0.243L350.084,83.564z"
					/>
			</g>
			<g>
				<path fill="#FFFFFF" d="M295.541,86.049c-0.28,0-0.533-0.164-0.651-0.417l-0.649-1.407l-0.034,1.129
					c-0.011,0.387-0.331,0.695-0.718,0.695h-9.029c-0.341,0-0.626-0.238-0.699-0.555h-10.613c-0.396,0-0.717-0.32-0.717-0.715
					V56.106c0-0.397,0.321-0.717,0.717-0.717h10.757c0.044,0,0.087,0.005,0.127,0.011c0.12-0.088,0.268-0.142,0.429-0.142h17.438
					c0.397,0,0.718,0.321,0.718,0.718v16.219c0.158,0.029,0.3,0.108,0.408,0.229c0.135,0.154,0.199,0.357,0.176,0.562l-0.718,5.891
					c-0.03,0.255-0.192,0.463-0.411,0.563h0.643c0.396,0,0.718,0.32,0.718,0.716v5.176c0,0.396-0.321,0.718-0.718,0.718H295.541z
					 M292.105,79.635l-1.129-2.435v2.435H292.105z M297.082,73.818l0.086-0.69h-0.432L297.082,73.818z M295.215,67.366v-0.261
					h-4.238v0.261H295.215z M295.215,61.736v-0.553h-4.238v0.553H295.215z"/>
				<path fill="#231F20" d="M283.903,56.106v28.673h-10.757V56.106H283.903z M277.938,64.404h1.368v-3.612h-1.368V64.404z
					 M277.938,72.249h1.368v-4.134h-1.368V72.249z M279.307,75.894h-1.368v4.067h1.368V75.894z M298.802,78.791l0.685,1.364h3.227
					v5.176h-7.172l-1.922-4.167l-0.131,4.167h-9.029V55.977h17.438V72.41h-11.637v0.521h5.573l1.665,3.32l0.423-3.353h4.562
					l-0.716,5.892H298.802z M290.261,60.467v1.985h5.673v-1.985H290.261z M295.934,68.083v-1.692h-5.673v1.692H295.934z
					 M290.261,73.939v6.412h2.966L290.261,73.939z"/>
			</g>
			<g>
				<path fill="#FFFFFF" d="M322.491,86.252c-0.13,0-0.253-0.034-0.358-0.095c-0.088,0.04-0.189,0.062-0.293,0.062h-5.576
					c-0.19,0-0.362-0.074-0.492-0.194h-9.646c-0.396,0-0.718-0.321-0.718-0.717v-5.793c0-0.396,0.322-0.716,0.718-0.716h1.563
					v-6.443h-1.172c-0.397,0-0.718-0.32-0.718-0.716v-5.468c0-0.396,0.32-0.717,0.718-0.717h1.172v-3.384h-1.367
					c-0.396,0-0.718-0.32-0.718-0.717v-5.271c0-0.396,0.321-0.716,0.718-0.716h9.779c0.396,0,0.717,0.32,0.717,0.716v1.269h5.705
					v-1.66c0-0.395,0.321-0.716,0.718-0.716h6.161c0.34,0,0.625,0.236,0.699,0.554h4.908c0.366,0,0.674,0.275,0.713,0.64
					l0.127,1.183h0.431c0.396,0,0.717,0.32,0.717,0.717v5.402c0,0.266-0.144,0.496-0.358,0.62c0,0.026-0.001,0.053-0.005,0.077
					l-0.782,6.966c-0.032,0.285-0.229,0.515-0.49,0.602c0,0.002,0.928,6.904,0.928,6.904c0.361,0.036,0.644,0.341,0.644,0.713v6.15
					c0,0.396-0.323,0.716-0.718,0.716h-5.574c-0.255,0-0.481-0.134-0.609-0.339c-0.122,0.223-0.358,0.372-0.629,0.372H322.491z
					 M315.81,78.799c0.122-0.102,0.282-0.164,0.454-0.164h0.047l0.807-6.883c0-0.019,0.005-0.036,0.008-0.054
					c-0.148-0.071-0.268-0.194-0.338-0.344v0.285c0,0.396-0.322,0.716-0.719,0.716h-0.911v6.443H315.81z M316.087,65.455
					l-0.145-1.287c-0.019-0.16,0.019-0.32,0.103-0.456c-0.027-0.074-0.041-0.157-0.041-0.241v-1.399h-0.847v3.384
					C315.157,65.455,316.08,65.455,316.087,65.455z"/>
				<path fill="#231F20" d="M316.068,71.64h-1.629v7.875h1.5v5.793h-9.813v-5.793h2.281V71.64h-1.89v-5.468h1.89v-4.817h-2.085
					v-5.271h9.779v5.271h-1.662v4.817h1.629V71.64z M323.241,63.471h-6.521v-5.402h6.521v-2.377h6.161v2.377h0.814l-0.195-1.822
					h4.988l0.193,1.822h1.077v5.402h-6.878v8.363h5.248l1.011,7.519h0.554v6.15h-5.574l-1.238-12.075v12.107h-6.911l-0.196-4.687
					l-0.455,4.654h-5.576v-6.15h0.686l0.881-7.519h5.411l-0.782,7.519h0.782V63.471z M316.655,64.09h5.313l0.782,6.964h-5.313
					L316.655,64.09z M335.139,71.054h-5.312l0.781-6.964h5.313L335.139,71.054z"/>
			</g>
			<g>
				<path fill="#FFFFFF" d="M373.111,85.978c-0.396,0-0.719-0.321-0.719-0.718v-4.555c0-0.396,0.322-0.716,0.719-0.716h0.619v-5.892
					c0-0.395,0.321-0.715,0.718-0.715h0.226v-6.345h-1.497c-0.396,0-0.718-0.322-0.718-0.717v-5.338
					c0-0.396,0.321-0.717,0.718-0.717h1.099l3.631-5.069c0.134-0.188,0.352-0.3,0.584-0.3h19.494c0.225,0,0.438,0.105,0.574,0.285
					l3.826,5.084h1.043c0.396,0,0.718,0.321,0.718,0.717v5.338c0,0.395-0.321,0.717-0.718,0.717h-1.826v6.345h0.555
					c0.396,0,0.717,0.32,0.717,0.715v5.892h0.457c0.396,0,0.718,0.319,0.718,0.716v4.555c0,0.396-0.321,0.718-0.718,0.718H373.111z
					 M395.57,79.989v-1.14h-0.684v1.14H395.57z M388.398,79.989v-1.14h-0.227v1.14H388.398z M381.652,79.989v-1.14h-0.685v1.14
					H381.652z"/>
				<path fill="#231F20" d="M373.111,85.26v-4.555h1.337v-6.607h27.708v6.607h1.174v4.555H373.111z M403.428,66.321h-2.543v7.126
					h-25.493v-7.126h-2.215v-5.338h1.467l3.847-5.37h19.494l4.041,5.37h1.402V66.321z M381.359,64.824v-1.92l-1.697,2.374h17.311
					l-1.793-2.277v1.823H381.359z M380.25,80.705h2.119v-2.572h-2.119V80.705z M394.594,68.664h-13.234v1.4h13.234V68.664z
					 M382.435,61.374h11.442l-0.686-0.879h-10.105L382.435,61.374z M387.454,80.705h1.663v-2.572h-1.663V80.705z M394.17,78.133
					v2.572h2.119v-2.572H394.17z"/>
			</g>
			<g>
				<path fill="#FFFFFF" d="M412.731,86.219c-0.383,0-0.697-0.299-0.717-0.68l-0.294-5.957c-0.008-0.196,0.062-0.387,0.199-0.528
					c0.135-0.143,0.324-0.224,0.52-0.224h4.432v-3.903h-11.115c-0.396,0-0.719-0.321-0.719-0.717v-6.541
					c0-0.396,0.322-0.718,0.719-0.718h11.115v-1.105c0-0.223,0.105-0.433,0.283-0.569l3.985-3.041h-13.134
					c-0.396,0-0.718-0.322-0.718-0.719V56.05c0-0.396,0.321-0.716,0.718-0.716h26.601c0.396,0,0.718,0.32,0.718,0.716v5.371
					c0,0.228-0.109,0.441-0.295,0.577l-6.771,4.953h7.621c0.396,0,0.717,0.321,0.717,0.718v6.541c0,0.396-0.32,0.717-0.717,0.717
					h-9.847v10.576c0,0.396-0.321,0.716-0.717,0.716H412.731z"/>
				<path fill="#231F20" d="M425.315,74.21v11.293h-12.584l-0.292-5.955h5.15V74.21h-11.834v-6.541h11.834v-1.823l5.672-4.329
					h-15.256V56.05h26.601v5.371l-8.541,6.248h9.813v6.541H425.315z"/>
			</g>
		</g>
		<g>
			<rect x="293.927" y="137.488" fill="#231F20" width="90.925" height="95.199"/>
			<polygon fill="#424242" points="415.099,208.079 384.852,232.688 384.852,137.488 415.099,117.307 			"/>
			<polygon fill="#747474" points="384.852,137.488 293.927,137.488 333.461,117.468 414.759,117.307 			"/>
			<path fill="#FFFFFF" d="M366.53,185.089c0,14.965-12.151,27.095-27.14,27.095c-14.992,0-27.143-12.13-27.143-27.095
				c0-14.967,12.15-27.096,27.143-27.096C354.379,157.993,366.53,170.122,366.53,185.089z"/>
			<g>
				<g>
					<path fill="#231F20" d="M351.182,185.089c0,6.503-5.276,11.776-11.791,11.776c-6.518,0-11.795-5.273-11.795-11.776
						s5.277-11.774,11.795-11.774C345.905,173.314,351.182,178.586,351.182,185.089z"/>
					<path fill="#0099D2" d="M339.391,198.11c-7.191,0-13.042-5.845-13.042-13.021c0-7.186,5.851-13.023,13.042-13.023
						c7.189,0,13.043,5.838,13.043,13.023C352.434,192.266,346.58,198.11,339.391,198.11z M339.391,174.559
						c-5.816,0-10.547,4.723-10.547,10.53c0,5.804,4.73,10.526,10.547,10.526c5.814,0,10.545-4.723,10.545-10.526
						C349.936,179.281,345.205,174.559,339.391,174.559z"/>
				</g>
				<g>
					<path fill="#FFFFFF" d="M338.158,182.498c0,2.157-1.752,3.908-3.912,3.908c-2.161,0-3.913-1.751-3.913-3.908
						c0-2.154,1.752-3.91,3.913-3.91C336.406,178.588,338.158,180.344,338.158,182.498z"/>
					<path fill="#FFFFFF" d="M338.58,177.418c0,0.65-0.527,1.17-1.174,1.17c-0.652,0-1.18-0.52-1.18-1.17s0.527-1.173,1.18-1.173
						C338.053,176.245,338.58,176.768,338.58,177.418z"/>
				</g>
			</g>
		</g>
		<path fill="#FFFFFF" d="M424.498,275.73c0,6.891-5.597,12.477-12.497,12.477H297.025c-6.902,0-12.497-5.586-12.497-12.477l0,0
			c0-6.891,5.595-12.477,12.497-12.477h114.976C418.901,263.254,424.498,268.84,424.498,275.73L424.498,275.73z"/>
		<g>
			<path d="M315.785,277.297v0.674h1.9v1.123h-1.9v1.213c0,0.662-0.135,0.977-0.619,1.179c-0.472,0.19-1.113,0.202-1.945,0.202
				c-0.078-0.382-0.303-0.898-0.483-1.246c0.573,0.021,1.249,0.021,1.429,0.021s0.236-0.045,0.236-0.18v-1.189h-3.34
				c0.539,0.404,1.079,0.909,1.359,1.303l-1.034,0.83c-0.314-0.505-1.046-1.201-1.698-1.684l0.596-0.449h-2.068v-1.123h6.186v-0.674
				h-6.613v-1.135h4.397v-0.641h-3.261v-1.1h3.261v-0.539h0.675c-0.236-0.146-0.484-0.304-0.652-0.394
				c0.146-0.112,0.281-0.247,0.404-0.382h-1.506c0.146,0.258,0.27,0.517,0.337,0.707l-1.147,0.473
				c-0.078-0.314-0.303-0.775-0.518-1.18h-0.111c-0.338,0.494-0.709,0.932-1.047,1.28c-0.258-0.214-0.81-0.584-1.113-0.741
				c0.731-0.606,1.395-1.572,1.789-2.527l1.281,0.338c-0.078,0.19-0.168,0.37-0.27,0.561h2.463v0.91
				c0.449-0.517,0.82-1.168,1.045-1.809l1.283,0.326c-0.057,0.18-0.146,0.382-0.236,0.572h3.104v1.09H316.1
				c0.18,0.258,0.338,0.517,0.428,0.707l-1.146,0.483c-0.125-0.314-0.406-0.786-0.697-1.19h-0.439
				c-0.213,0.326-0.428,0.617-0.663,0.865v0.449h3.407v1.1h-3.407v0.641h4.442v1.135H315.785z"/>
			<path d="M328.562,275.893v0.887h1.326v1.213h-1.326v2.291c0,0.674-0.124,1-0.574,1.202c-0.438,0.19-1.068,0.214-1.912,0.214
				c-0.056-0.371-0.246-0.898-0.416-1.258c0.552,0.021,1.17,0.021,1.35,0.011c0.169,0,0.226-0.034,0.226-0.19v-2.27h-4.353v-1.213
				h4.353v-0.887h-4.465v-1.056c-0.169,0.235-0.337,0.472-0.528,0.719v6.132h-1.282v-4.66c-0.349,0.348-0.687,0.65-1.023,0.92
				c-0.09-0.303-0.427-1.055-0.618-1.381c0.979-0.696,2.068-1.797,2.699-2.887l1.169,0.506c-0.101,0.157-0.202,0.326-0.314,0.494
				h2.833v-0.977H323.4v-1.213h2.305v-1.225h1.328v1.225h2.418v1.213h-2.418v0.977h2.957v1.213H328.562z M323.007,271.748
				c-0.742,1.033-1.878,2.135-2.924,2.809c-0.136-0.304-0.45-0.843-0.663-1.135c0.888-0.527,1.855-1.449,2.316-2.189
				L323.007,271.748z M324.604,278.061c0.506,0.572,1.08,1.358,1.316,1.908l-1.17,0.629c-0.203-0.539-0.754-1.369-1.237-1.965
				L324.604,278.061z"/>
			<path d="M334.975,279.947h-2.227v0.909h-1.125v-8.984h3.352V279.947z M332.748,273.04v1.134h1.146v-1.134H332.748z
				 M332.748,276.454h1.146v-1.157h-1.146V276.454z M333.895,278.779v-1.202h-1.146v1.202H333.895z M341.777,277.869
				c-0.517,0.393-1.124,0.831-1.63,1.156c0.45,0.629,1.034,1.146,1.743,1.482c-0.293,0.259-0.709,0.787-0.9,1.157
				c-1.63-0.933-2.519-2.661-3.024-4.852h-0.899v3.155l1.574-0.348c-0.012,0.382,0.012,0.932,0.057,1.213
				c-2.205,0.562-2.621,0.73-2.879,0.898c-0.102-0.292-0.383-0.82-0.586-1.045c0.236-0.146,0.529-0.449,0.529-0.977v-8.053h5.363
				v5.155h-2.012c0.135,0.449,0.281,0.854,0.461,1.247c0.482-0.338,1-0.775,1.338-1.135L341.777,277.869z M337.066,272.805v0.875
				h2.755v-0.875H337.066z M337.066,275.656h2.755v-0.898h-2.755V275.656z"/>
			<path d="M353.486,275.297c-0.584,0.764-1.293,1.596-1.855,2.168c0.484,0.966,1.147,1.685,2.104,2.358
				c-0.304,0.225-0.664,0.651-0.821,1.011c-0.944-0.719-1.608-1.482-2.126-2.426v1.785c0,0.674-0.135,1.022-0.527,1.236
				c-0.383,0.225-0.957,0.28-1.789,0.28c-0.056-0.359-0.281-0.933-0.449-1.292c0.539,0.023,1.068,0.023,1.236,0.012
				c0.17,0,0.248-0.057,0.248-0.225v-1.842c-0.787,0.764-1.598,1.539-2.294,2.168l-0.618-0.943c-1.158,0.37-2.373,0.752-3.34,1.055
				l-0.281-1.269c0.393-0.101,0.843-0.225,1.349-0.37v-2.707h-1.124v-1.225h1.124v-1.977h-1.181v-1.246h3.564v1.246h-1.135v1.977
				h0.967v1.225h-0.967v2.348l1.146-0.349l0.124,0.729c0.731-0.539,1.731-1.324,2.665-2.1v-2.684h-2.586v-1.225h2.586v-1.797h1.281
				v1.797h1.53c-0.292-0.337-0.776-0.752-1.181-1.056l0.73-0.674c0.473,0.292,1.057,0.774,1.35,1.112l-0.641,0.617h0.967v1.225
				h-2.756v0.449c0.113,0.617,0.248,1.156,0.406,1.662c0.416-0.539,0.854-1.157,1.135-1.662L353.486,275.297z M348.021,274.736
				c0.428,0.617,0.91,1.414,1.08,1.977l-1.092,0.505c-0.157-0.539-0.607-1.393-1.023-2.021L348.021,274.736z"/>
			<path d="M361.181,271.613c-0.091,0.102-0.181,0.214-0.271,0.304c1.103,0.741,3.014,1.595,4.623,2.032
				c-0.293,0.27-0.721,0.809-0.934,1.157c-0.731-0.259-1.529-0.618-2.271-1.033v0.382h-4.353v-0.314
				c-0.731,0.416-1.53,0.764-2.339,1.066c-0.169-0.303-0.562-0.83-0.832-1.066c2.103-0.686,4.148-1.83,5.217-3.077L361.181,271.613z
				 M364.194,280.283h1.013v1.225h-10.145v-1.225h1.057v-2.504h8.075V280.283z M363.486,274.904v2.369h-6.646v-2.369H363.486z
				 M357.368,280.283h1.013v-1.471h-1.013V280.283z M362.227,275.78h-4.195v0.629h4.195V275.78z M361.395,273.534
				c-0.484-0.292-0.9-0.584-1.26-0.864c-0.359,0.303-0.742,0.595-1.147,0.864H361.395z M359.605,278.812v1.471h1.023v-1.471H359.605
				z M361.855,278.812v1.471h1.034v-1.471H361.855z"/>
			<path d="M377.062,277.397h-4.363v2.706c0,0.753-0.169,1.123-0.697,1.337c-0.552,0.214-1.315,0.247-2.351,0.235
				c-0.078-0.393-0.349-0.999-0.573-1.381c0.787,0.045,1.664,0.045,1.9,0.033c0.247-0.011,0.326-0.066,0.326-0.258v-2.673h-4.454
				v-1.337h4.454V274.5c0.708-0.337,1.519-0.842,2.171-1.325h-5.511v-1.325h7.006l0.315-0.067l1.012,0.774
				c-0.956,0.943-2.306,1.955-3.599,2.65v0.854h4.363V277.397z"/>
			<path d="M381.156,279.318c0.181,0.123,0.395,0.27,0.664,0.426c0.775,0.461,1.822,0.528,3.127,0.528
				c1.203,0,3.069-0.112,4.217-0.292c-0.146,0.393-0.383,1.09-0.394,1.494c-0.821,0.045-2.699,0.123-3.892,0.123
				c-1.484,0-2.429-0.135-3.261-0.606c-0.518-0.28-0.923-0.651-1.17-0.651c-0.325,0-0.798,0.764-1.181,1.46l-0.979-1.348
				c0.529-0.606,1.091-1.033,1.586-1.258v-3.055h-1.282v-1.224h2.563V279.318z M380.438,274.039
				c-0.281-0.55-0.956-1.426-1.484-2.066l1.023-0.662c0.539,0.584,1.248,1.426,1.551,1.977L380.438,274.039z M384.98,278.431h-3.283
				v-1.247h3.283v-1.01h-1.541c-0.483,0-0.989,0.066-1.09,0.19c-0.068-0.28-0.293-0.898-0.439-1.258
				c0.236-0.067,0.416-0.314,0.641-0.708c0.091-0.156,0.26-0.494,0.451-0.932h-1.204v-1.146h1.642
				c0.124-0.37,0.248-0.741,0.338-1.123l1.395,0.37c-0.079,0.248-0.169,0.494-0.27,0.753h3.732v1.146h-4.205
				c-0.236,0.517-0.495,1.033-0.754,1.471h1.305v-1.1h1.383v1.1h1.924l-0.012,1.236h-1.912v1.01h2.396v1.247h-2.396v1.583h-1.383
				V278.431z"/>
			<path d="M393.754,277.218c-0.326,0.101-0.652,0.202-0.989,0.292v2.707c0,0.617-0.112,0.943-0.45,1.156
				c-0.337,0.213-0.82,0.258-1.518,0.247c-0.034-0.325-0.18-0.876-0.35-1.235c0.395,0.022,0.766,0.022,0.9,0.012
				c0.135,0,0.18-0.045,0.18-0.191v-2.324c-0.359,0.101-0.697,0.201-1.023,0.291l-0.292-1.279c0.371-0.079,0.821-0.191,1.315-0.326
				v-1.999h-1.136v-1.235h1.136v-2.111h1.237v2.111h0.922v1.235h-0.922v1.662l0.81-0.225L393.754,277.218z M399.602,278.026
				c-0.202,0.696-0.494,1.258-0.865,1.729c0.708,0.314,1.35,0.651,1.833,0.955l-0.81,1.01c-0.506-0.348-1.227-0.729-2.024-1.111
				c-0.889,0.527-2.069,0.842-3.655,1.066c-0.102-0.37-0.314-0.842-0.518-1.111c1.17-0.09,2.081-0.258,2.801-0.551
				c-0.72-0.28-1.428-0.55-2.069-0.752c0.271-0.337,0.573-0.775,0.878-1.235h-1.406v-1.112h2.035
				c0.18-0.336,0.349-0.674,0.484-0.999h-2.362v-1.134h1.642c-0.112-0.359-0.337-0.809-0.551-1.157l0.73-0.28h-1.484v-1.123h2.373
				c-0.112-0.259-0.247-0.518-0.371-0.73l1.26-0.168c0.18,0.27,0.349,0.595,0.483,0.898h2.452v1.123h-1.845l0.956,0.28
				c-0.236,0.404-0.473,0.809-0.686,1.157h1.799v1.134h-4.037l0.899,0.18c-0.112,0.27-0.236,0.539-0.382,0.819h3.677v1.112H399.602z
				 M396.115,273.344c0.248,0.381,0.507,0.864,0.607,1.179l-0.629,0.259h1.518c0.248-0.404,0.529-0.988,0.697-1.438H396.115z
				 M396.555,278.026c-0.146,0.247-0.304,0.483-0.45,0.708c0.472,0.156,0.944,0.336,1.429,0.516c0.314-0.325,0.551-0.729,0.73-1.224
				H396.555z"/>
		</g>
		<g opacity="0.6">
			<path d="M286.043,314.797c-0.062,0.078-0.132,0.148-0.201,0.227c0.812,0.654,2.36,1.467,3.715,1.877
				c-0.139,0.14-0.35,0.393-0.454,0.567c-0.612-0.219-1.268-0.532-1.88-0.864v0.306h-3.463v-0.253
				c-0.594,0.331-1.24,0.628-1.923,0.881c-0.087-0.14-0.288-0.393-0.419-0.506c1.695-0.585,3.252-1.484,4.029-2.487L286.043,314.797
				z M288.508,321.753h0.822v0.603h-7.703v-0.603h0.84v-2.008h6.041V321.753z M287.983,317.441v1.754h-5.001v-1.754H287.983z
				 M283.078,321.753h1.189v-1.475h-1.189V321.753z M287.371,317.904h-3.803v0.829h3.803V317.904z M286.934,316.429
				c-0.568-0.34-1.084-0.689-1.459-1.021c-0.395,0.376-0.84,0.716-1.338,1.021H286.934z M284.871,320.278v1.475h1.189v-1.475
				H284.871z M286.654,320.278v1.475h1.215v-1.475H286.654z"/>
			<path d="M298.148,319.1h-3.568v2.601c0,0.437-0.113,0.638-0.445,0.733c-0.324,0.113-0.875,0.122-1.714,0.122
				c-0.044-0.191-0.166-0.479-0.28-0.663c0.709,0.026,1.348,0.018,1.539,0.009c0.176-0.009,0.236-0.053,0.236-0.21V319.1h-3.602
				v-0.646h3.602v-1.257c0.727-0.332,1.574-0.873,2.186-1.379h-4.922v-0.638h5.631l0.14-0.035l0.489,0.367
				c-0.743,0.732-1.862,1.51-2.859,2.016v0.926h3.568V319.1z"/>
			<path d="M299.114,314.928h3.892v0.585h-1.189v1.012h0.988v5.883h-0.533v-0.479h-2.414v0.602h-0.524v-6.005h1.04v-1.012h-1.259
				V314.928z M299.857,317.074v2.941h2.414v-0.812c-0.027,0.009-0.062,0.009-0.097,0.009h-0.42c-0.341,0-0.446-0.087-0.446-0.506
				v-1.633h-0.489v0.699c0,0.532-0.122,1.222-0.665,1.719c-0.061-0.078-0.209-0.209-0.288-0.253
				c0.507-0.445,0.595-1.013,0.595-1.475v-0.69H299.857z M302.271,321.404v-0.899h-2.414v0.899H302.271z M301.353,315.513h-0.516
				v1.012h0.516V315.513z M302.271,317.074h-0.596v1.633c0,0.113,0.01,0.122,0.123,0.122h0.314c0.088,0,0.113,0,0.123-0.026
				l0.035,0.026V317.074z M305.926,321.857c0.385,0,0.454-0.218,0.498-1.475c0.148,0.113,0.42,0.235,0.604,0.279
				c-0.088,1.414-0.271,1.807-1.066,1.807h-1.451c-0.805,0-1.05-0.201-1.05-0.995v-3.762h2.605v-2.104h-2.641v-0.628h3.278v3.936
				h-0.638v-0.584h-1.968v3.142c0,0.323,0.079,0.384,0.481,0.384H305.926z"/>
			<path d="M315.304,321.7c0,0.41-0.114,0.611-0.394,0.725c-0.279,0.104-0.752,0.122-1.539,0.113
				c-0.035-0.183-0.157-0.462-0.244-0.646c0.576,0.026,1.145,0.018,1.311,0.018c0.158-0.009,0.228-0.062,0.228-0.21v-5.97h-5.876
				v6.816h-0.646v-7.428h7.161V321.7z M311.334,320.505c-0.166-0.314-0.402-0.698-0.664-1.108c-0.35,0.82-0.778,1.51-1.303,2.068
				c-0.097-0.087-0.367-0.271-0.508-0.357c0.604-0.585,1.066-1.362,1.399-2.287c-0.385-0.55-0.813-1.117-1.206-1.598l0.401-0.357
				c0.341,0.393,0.69,0.847,1.022,1.292c0.167-0.576,0.289-1.179,0.395-1.824l0.594,0.061c-0.14,0.847-0.323,1.642-0.559,2.356
				c0.34,0.489,0.646,0.961,0.856,1.336L311.334,320.505z M313.852,320.767c-0.174-0.375-0.419-0.838-0.717-1.326
				c-0.35,0.829-0.777,1.527-1.328,2.095c-0.114-0.097-0.367-0.279-0.516-0.358c0.646-0.585,1.109-1.388,1.459-2.348
				c-0.375-0.55-0.795-1.117-1.188-1.606l0.419-0.322c0.333,0.384,0.665,0.82,0.98,1.257c0.166-0.567,0.279-1.17,0.375-1.807
				l0.586,0.061c-0.131,0.855-0.306,1.642-0.542,2.356c0.385,0.585,0.718,1.161,0.927,1.624L313.852,320.767z"/>
			<path d="M320.408,319.144h2.238v0.61h-2.238V319.144z"/>
			<path d="M331.891,319.274c0.656,1.274,1.846,2.217,3.437,2.609c-0.157,0.148-0.367,0.419-0.454,0.611
				c-1.548-0.445-2.693-1.396-3.41-2.732c-0.394,1.004-1.347,2.008-3.585,2.784c-0.087-0.148-0.288-0.428-0.464-0.559
				c2.326-0.794,3.156-1.78,3.437-2.714h-3.261v-0.638h3.393c0.008-0.174,0.018-0.331,0.018-0.497v-1.057h-2.886v-0.637h4.092
				c0.341-0.523,0.734-1.274,0.962-1.824l0.69,0.244c-0.288,0.516-0.638,1.108-0.953,1.58h1.731v0.637h-2.912v1.065
				c0,0.166-0.008,0.322-0.018,0.488h3.402v0.638H331.891z M329.486,314.675c0.367,0.444,0.744,1.056,0.9,1.457l-0.576,0.314
				c-0.148-0.41-0.516-1.048-0.865-1.501L329.486,314.675z"/>
			<path d="M343.953,318.689H340.5v2.924c0,0.48-0.132,0.681-0.455,0.785c-0.324,0.114-0.893,0.123-1.775,0.123
				c-0.043-0.184-0.175-0.489-0.279-0.673c0.717,0.018,1.381,0.018,1.582,0.009c0.184-0.009,0.254-0.061,0.254-0.244v-2.924h-3.611
				v-0.637h3.611v-2.2h-3.008v-0.637h6.522v0.637H340.5v2.2h3.453V318.689z"/>
			<path d="M345.33,315.495h3.699v0.681h-2.886v2.008h2.431v0.689h-2.431v2.33h2.981v0.689h-3.795V315.495z"/>
			<path d="M349.828,323.839l0.156-0.637c0.097,0.034,0.236,0.078,0.359,0.078c0.541,0,0.883-0.437,1.074-1.021l0.105-0.357
				l-1.906-4.748h0.831l0.97,2.636c0.141,0.41,0.307,0.899,0.455,1.327h0.044c0.132-0.428,0.271-0.908,0.402-1.327l0.849-2.636
				h0.777l-1.792,5.132c-0.333,0.934-0.822,1.649-1.767,1.649C350.16,323.935,349.977,323.9,349.828,323.839z"/>
			<path d="M354.473,319.527c0-1.536,1.041-2.496,2.143-2.496c1.206,0,1.889,0.873,1.889,2.226c0,0.175-0.018,0.34-0.035,0.454h-3.2
				c0.052,1.012,0.673,1.658,1.573,1.658c0.464,0,0.84-0.14,1.189-0.376l0.289,0.524c-0.42,0.271-0.928,0.488-1.574,0.488
				C355.486,322.006,354.473,321.09,354.473,319.527z M357.804,319.144c0-0.96-0.437-1.476-1.181-1.476
				c-0.673,0-1.268,0.541-1.363,1.476H357.804z"/>
			<path d="M360.412,321.404h-0.026l-0.069,0.488h-0.639v-6.947h0.795v1.902l-0.025,0.855c0.428-0.375,0.961-0.672,1.486-0.672
				c1.232,0,1.896,0.96,1.896,2.409c0,1.632-0.971,2.565-2.062,2.565C361.33,322.006,360.832,321.788,360.412,321.404z M363,319.457
				c0-1.047-0.35-1.754-1.25-1.754c-0.402,0-0.822,0.227-1.277,0.654v2.488c0.42,0.366,0.849,0.497,1.163,0.497
				C362.423,321.343,363,320.636,363,319.457z"/>
			<path d="M364.646,320.662c0-1.03,0.9-1.545,2.92-1.771c0-0.611-0.201-1.196-0.979-1.196c-0.551,0-1.049,0.253-1.426,0.506
				l-0.314-0.55c0.438-0.279,1.11-0.619,1.871-0.619c1.154,0,1.645,0.776,1.645,1.946v2.915h-0.656l-0.07-0.567h-0.025
				c-0.455,0.375-0.988,0.681-1.574,0.681C365.241,322.006,364.646,321.518,364.646,320.662z M367.566,320.74v-1.326
				c-1.6,0.191-2.142,0.585-2.142,1.195c0,0.541,0.367,0.76,0.839,0.76C366.728,321.369,367.104,321.15,367.566,320.74z"/>
			<path d="M369.877,320.95v-6.005h0.797v6.057c0,0.245,0.104,0.341,0.227,0.341c0.044,0,0.079,0,0.166-0.018l0.113,0.611
				c-0.113,0.043-0.253,0.069-0.463,0.069C370.123,322.006,369.877,321.622,369.877,320.95z"/>
			<path d="M372.371,320.95v-6.005h0.795v6.057c0,0.245,0.105,0.341,0.228,0.341c0.044,0,0.079,0,0.167-0.018l0.113,0.611
				c-0.113,0.043-0.254,0.069-0.464,0.069C372.615,322.006,372.371,321.622,372.371,320.95z"/>
			<path d="M376.894,315.495h1.905c1.303,0,2.204,0.437,2.204,1.562c0,0.637-0.341,1.195-0.944,1.388v0.043
				c0.77,0.148,1.312,0.655,1.312,1.527c0,1.257-0.997,1.877-2.431,1.877h-2.046V315.495z M378.66,318.218
				c1.102,0,1.547-0.41,1.547-1.056c0-0.751-0.516-1.03-1.513-1.03h-0.987v2.086H378.66z M378.826,321.247
				c1.102,0,1.748-0.394,1.748-1.257c0-0.795-0.629-1.152-1.748-1.152h-1.119v2.409H378.826z"/>
			<path d="M382.213,319.527c0-1.58,1.04-2.496,2.203-2.496c1.162,0,2.203,0.916,2.203,2.496c0,1.571-1.041,2.479-2.203,2.479
				C383.253,322.006,382.213,321.099,382.213,319.527z M385.797,319.527c0-1.091-0.559-1.833-1.381-1.833s-1.373,0.742-1.373,1.833
				s0.551,1.815,1.373,1.815S385.797,320.618,385.797,319.527z"/>
			<path d="M388.598,319.423l-1.442-2.27h0.856l0.639,1.047c0.148,0.263,0.314,0.524,0.473,0.786h0.035
				c0.148-0.262,0.288-0.523,0.428-0.786l0.586-1.047h0.83l-1.442,2.348l1.565,2.392h-0.875l-0.699-1.108
				c-0.157-0.288-0.332-0.576-0.507-0.847H389c-0.166,0.271-0.323,0.559-0.489,0.847l-0.638,1.108h-0.84L388.598,319.423z"/>
			<path d="M393.62,319.144h2.238v0.61h-2.238V319.144z"/>
			<path d="M399.088,315.495h3.697v0.681H399.9v2.008h2.431v0.689H399.9v2.33h2.981v0.689h-3.794V315.495z"/>
			<path d="M404.161,317.153h0.655l0.07,0.681h0.026c0.454-0.445,0.944-0.803,1.591-0.803c0.998,0,1.452,0.646,1.452,1.859v3.002
				h-0.796v-2.897c0-0.891-0.271-1.266-0.9-1.266c-0.49,0-0.822,0.244-1.303,0.725v3.438h-0.796V317.153z"/>
			<path d="M409.139,322.801c0-0.402,0.263-0.786,0.709-1.074v-0.035c-0.254-0.148-0.438-0.401-0.438-0.776
				c0-0.393,0.288-0.707,0.533-0.882v-0.034c-0.314-0.254-0.621-0.707-0.621-1.274c0-1.039,0.822-1.693,1.783-1.693
				c0.263,0,0.499,0.061,0.665,0.122h1.652v0.611h-0.97c0.227,0.218,0.385,0.567,0.385,0.978c0,1.012-0.77,1.649-1.732,1.649
				c-0.235,0-0.498-0.062-0.707-0.166c-0.176,0.148-0.307,0.306-0.307,0.567c0,0.306,0.192,0.515,0.83,0.515h0.928
				c1.102,0,1.652,0.35,1.652,1.126c0,0.882-0.928,1.641-2.396,1.641C409.943,324.074,409.139,323.621,409.139,322.801z
				 M412.732,322.556c0-0.437-0.342-0.585-0.971-0.585h-0.822c-0.174,0-0.402-0.025-0.611-0.078c-0.342,0.244-0.49,0.523-0.49,0.803
				c0,0.507,0.516,0.838,1.382,0.838C412.129,323.533,412.732,323.054,412.732,322.556z M412.111,318.725
				c0-0.689-0.445-1.108-1.006-1.108c-0.559,0-1.014,0.41-1.014,1.108c0,0.689,0.463,1.126,1.014,1.126
				C411.648,319.851,412.111,319.414,412.111,318.725z"/>
			<path d="M414.432,320.95v-6.005h0.795v6.057c0,0.245,0.105,0.341,0.228,0.341c0.044,0,0.079,0,0.167-0.018l0.113,0.611
				c-0.113,0.043-0.254,0.069-0.464,0.069C414.676,322.006,414.432,321.622,414.432,320.95z"/>
			<path d="M416.775,315.661c0-0.323,0.236-0.516,0.551-0.516c0.315,0,0.551,0.192,0.551,0.516c0,0.296-0.235,0.515-0.551,0.515
				C417.012,316.176,416.775,315.957,416.775,315.661z M416.924,317.153h0.797v4.739h-0.797V317.153z"/>
			<path d="M418.797,321.352l0.393-0.523c0.411,0.331,0.84,0.559,1.408,0.559c0.629,0,0.936-0.332,0.936-0.742
				c0-0.48-0.56-0.698-1.084-0.899c-0.665-0.244-1.416-0.567-1.416-1.37c0-0.75,0.603-1.344,1.635-1.344
				c0.586,0,1.102,0.244,1.477,0.532l-0.385,0.515c-0.332-0.244-0.664-0.419-1.092-0.419c-0.596,0-0.866,0.314-0.866,0.681
				c0,0.454,0.517,0.62,1.05,0.821c0.69,0.262,1.451,0.541,1.451,1.439c0,0.769-0.612,1.405-1.731,1.405
				C419.898,322.006,419.251,321.727,418.797,321.352z"/>
			<path d="M423.424,314.945h0.796v1.902l-0.026,0.978c0.438-0.437,0.927-0.794,1.574-0.794c0.996,0,1.451,0.646,1.451,1.859v3.002
				h-0.796v-2.897c0-0.891-0.271-1.266-0.9-1.266c-0.489,0-0.821,0.244-1.303,0.725v3.438h-0.796V314.945z"/>
		</g>
	</g>
</g>
</svg>
