<?xml version="1.0" encoding="utf-8"?>
<!-- Generator: Adobe Illustrator 16.0.0, SVG Export Plug-In . SVG Version: 6.00 Build 0)  -->
<!DOCTYPE svg PUBLIC "-//W3C//DTD SVG 1.1//EN" "http://www.w3.org/Graphics/SVG/1.1/DTD/svg11.dtd">
<svg version="1.1" id="Layer_1" xmlns="http://www.w3.org/2000/svg" xmlns:xlink="http://www.w3.org/1999/xlink" x="0px" y="0px"
	 width="448px" height="328.283px" viewBox="0 0 448 328.283" enable-background="new 0 0 448 328.283" xml:space="preserve">
<g>
	<g>
		<defs>
			<rect id="SVGID_1_" y="8.283" width="448" height="320"/>
		</defs>
		<clipPath id="SVGID_2_">
			<use xlink:href="#SVGID_1_"  overflow="visible"/>
		</clipPath>
		<g clip-path="url(#SVGID_2_)">
			<path fill="#137C54" d="M414.496,59.283c-22.527,0-45.051,0-67.574,0c-3.795,0-6.204,1.205-8.479,4.24
				c-5.566,7.42-11.132,14.838-16.697,22.26c-5.004,6.672-12.857,10.6-21.2,10.6c-51.231,0-102.464,0-153.696,0
				c-8.341,0-16.196-3.928-21.2-10.6c-5.565-7.422-11.129-14.84-16.695-22.26c-2.276-3.035-4.688-4.24-8.48-4.24
				c-22.524,0-45.05,0-67.575,0C24.118,59.283,17,66.399,17,75.182c0,90.1,0,180.199,0,270.297c0,8.783,7.118,15.9,15.899,15.9
				c127.198,0,254.397,0,381.597,0c8.779,0,15.899-7.117,15.899-15.9c0-90.098,0-180.197,0-270.297
				C430.396,66.399,423.275,59.283,414.496,59.283z M38.2,350.248c-5.561,0-10.07-4.508-10.07-10.068s4.509-10.07,10.07-10.07
				c5.562,0,10.071,4.51,10.071,10.07S43.762,350.248,38.2,350.248z M38.2,90.55c-5.561,0-10.07-4.507-10.07-10.067
				c0-5.562,4.509-10.071,10.07-10.071c5.562,0,10.071,4.509,10.071,10.071C48.271,86.043,43.762,90.55,38.2,90.55z
				 M409.195,350.248c-5.562,0-10.07-4.508-10.07-10.068s4.509-10.07,10.07-10.07c5.562,0,10.07,4.51,10.07,10.07
				S414.758,350.248,409.195,350.248z M409.195,90.55c-5.562,0-10.07-4.507-10.07-10.067c0-5.562,4.509-10.071,10.07-10.071
				c5.562,0,10.07,4.509,10.07,10.071C419.266,86.043,414.758,90.55,409.195,90.55z"/>
			<g>
				<rect x="63.669" y="261.492" fill="#141414" width="22.068" height="51.105"/>
				<rect x="29.986" y="285.884" opacity="0.6" fill="#141414" width="16.261" height="12.776"/>
				<rect x="33.471" y="270.785" opacity="0.6" fill="#141414" width="9.292" height="4.646"/>
				<rect x="33.471" y="258.008" opacity="0.6" fill="#141414" width="9.292" height="4.646"/>
				<rect x="106.644" y="292.854" opacity="0.6" fill="#141414" width="9.292" height="4.645"/>
				<rect x="106.644" y="307.952" opacity="0.6" fill="#141414" width="9.292" height="4.646"/>
				<rect x="136.842" y="306.791" opacity="0.6" fill="#141414" width="13.938" height="8.13"/>
				<rect x="301.472" y="299.215" opacity="0.6" fill="#141414" width="17.422" height="6.969"/>
				<rect x="301.472" y="314.314" opacity="0.6" fill="#141414" width="17.422" height="6.969"/>
				<rect x="213.5" y="166.252" fill="#141414" width="17.422" height="33.683"/>
				<rect x="183.688" y="161.605" fill="#141414" width="8.13" height="17.422"/>
				<rect x="33.471" y="309.113" opacity="0.6" fill="#141414" width="9.292" height="4.646"/>
				<rect x="183.108" y="185.996" opacity="0.6" fill="#141414" width="9.292" height="4.646"/>
				<rect x="183.108" y="199.935" opacity="0.6" fill="#141414" width="9.292" height="4.646"/>
				<rect x="254.151" y="162.768" opacity="0.6" fill="#141414" width="17.423" height="9.291"/>
				<rect x="254.151" y="189.48" fill="#141414" width="36.006" height="20.907"/>
				<rect x="354.039" y="172.059" fill="#141414" width="8.13" height="17.422"/>
				<rect x="331.971" y="169.736" opacity="0.6" fill="#141414" width="9.292" height="4.646"/>
				<rect x="353.458" y="155.799" opacity="0.6" fill="#141414" width="9.292" height="4.645"/>
				<rect x="353.458" y="197.611" opacity="0.6" fill="#141414" width="9.292" height="4.646"/>
				<rect x="331.971" y="156.959" opacity="0.6" fill="#141414" width="9.292" height="4.646"/>
				<path opacity="0.6" fill="#141414" d="M418,195.658c0,3.107-2.519,5.625-5.625,5.625h-33.75c-3.106,0-5.625-2.518-5.625-5.625
					v-33.75c0-3.107,2.519-5.625,5.625-5.625h33.75c3.106,0,5.625,2.518,5.625,5.625V195.658z"/>
			</g>
			<g>
				<polygon fill="#373435" points="162.094,234.545 162.094,138.375 17.843,138.375 17.843,234.545 				"/>
				<path fill="#FFE690" d="M21.033,215.609v-0.322v-0.32v-5.924v-0.476v-0.165c0-0.705,0.578-1.281,1.282-1.281h22.189v-3.358
					H22.315c-0.704,0-1.282-0.577-1.282-1.282v-0.32v-0.321v-5.925v-0.477v-0.162c0-0.706,0.578-1.282,1.282-1.282h22.189v-3.358
					H22.315c-0.704,0-1.282-0.576-1.282-1.281v-0.322v-0.32v-5.924v-0.477v-0.166c0-0.705,0.578-1.281,1.282-1.281h22.189v-3.356
					H22.315c-0.704,0-1.282-0.576-1.282-1.284v-0.643c0-0.039,0.002-0.078,0.007-0.119c-0.004-0.038-0.007-0.076-0.007-0.115
					v-23.463c0-0.672,0.549-1.223,1.222-1.223h0.803c0.671,0,1.223,0.551,1.223,1.223v22.418h22.187
					c0.704,0,1.282,0.576,1.282,1.279v0.166v0.477v5.924v0.321v0.319c0,0.707-0.578,1.283-1.282,1.283H24.281v3.359h22.187
					c0.704,0,1.282,0.576,1.282,1.281v0.163v0.479v5.922v0.322v0.319c0,0.706-0.578,1.282-1.282,1.282H24.281v3.357h22.187
					c0.704,0,1.282,0.578,1.282,1.282v0.165v0.477v5.924v0.322v0.318c0,0.707-0.578,1.281-1.282,1.281H24.281v3.359h31.275v-38.714
					c0-0.675,0.549-1.222,1.222-1.222h0.803c0.672,0,1.223,0.547,1.223,1.222v38.714h3.576v3.206H22.313
					c-0.706,0-1.282-0.576-1.282-1.282H21.033z"/>
				<path id="connector1pin" fill="#FFE690" d="M68.209,228.275c1.019,0,1.855,0.839,1.855,1.855c0,1.028-0.836,1.855-1.855,1.855
					c-1.025,0-1.856-0.827-1.856-1.855C66.354,229.104,67.187,228.275,68.209,228.275z M66.354,234.537
					c0-1.018,0.833-1.848,1.856-1.848c1.019,0,1.847,0.83,1.847,1.848h1.153v-7.461h-6.007v7.461H66.354z"/>
				<path id="connector2pin" fill="#FFE690" d="M80.153,228.275c1.027,0,1.855,0.839,1.855,1.855c0,1.028-0.828,1.855-1.855,1.855
					s-1.856-0.827-1.856-1.855C78.297,229.104,79.126,228.275,80.153,228.275z M78.297,234.537c0-1.018,0.829-1.848,1.856-1.848
					c1.019,0,1.855,0.83,1.855,1.848h1.153v-7.461h-6.015v7.461H78.297z"/>
				<path id="connector3pin" fill="#FFE690" d="M92.099,228.275c1.025,0,1.855,0.839,1.855,1.855c0,1.028-0.831,1.855-1.855,1.855
					c-1.019,0-1.855-0.827-1.855-1.855C90.244,229.104,91.08,228.275,92.099,228.275z M90.244,234.537
					c0.01-1.018,0.836-1.848,1.855-1.848c1.025,0,1.855,0.83,1.855,1.848h1.151v-7.461H89.1v7.461h1.142H90.244z"/>
				<path id="connector4pin" fill="#FFE690" d="M104.041,228.275c1.027,0,1.855,0.839,1.855,1.855c0,1.028-0.828,1.855-1.855,1.855
					c-1.016,0-1.855-0.827-1.855-1.855C102.185,229.104,103.024,228.275,104.041,228.275z M102.185,234.537
					c0.01-1.018,0.839-1.848,1.855-1.848c1.027,0,1.855,0.83,1.855,1.848h1.152v-7.461h-6.005v7.461H102.185L102.185,234.537z"/>
				<path id="connector5pin" fill="#FFE690" d="M115.992,228.275c1.021,0,1.855,0.839,1.855,1.855c0,1.028-0.837,1.855-1.855,1.855
					c-1.016,0-1.855-0.827-1.855-1.855C114.137,229.104,114.967,228.275,115.992,228.275z M114.137,234.537
					c0-1.018,0.839-1.848,1.855-1.848c1.021,0,1.848,0.83,1.855,1.848h1.143v-7.461h-6.005v7.461h1.154H114.137z"/>
				<path id="connector6pin" fill="#FFE690" d="M127.936,228.275c1.019,0,1.855,0.839,1.855,1.855c0,1.028-0.836,1.855-1.855,1.855
					c-1.025,0-1.856-0.827-1.856-1.855C126.08,229.104,126.911,228.275,127.936,228.275z M126.08,234.537
					c0-1.018,0.831-1.848,1.856-1.848c1.019,0,1.849,0.83,1.855,1.848h1.143v-7.461h-6.005v7.461H126.08L126.08,234.537z"/>
				<path id="connector7pin" fill="#FFE690" d="M139.88,228.275c1.019,0,1.854,0.839,1.854,1.855c0,1.028-0.836,1.855-1.854,1.855
					s-1.856-0.827-1.856-1.855C138.024,229.104,138.853,228.275,139.88,228.275z M138.024,234.537
					c0.009-1.018,0.837-1.848,1.856-1.848s1.848,0.83,1.854,1.848h1.143v-7.461h-5.996v7.461H138.024L138.024,234.537z"/>
				<path id="connector8pin" fill="#FFE690" d="M151.826,228.275c1.016,0,1.854,0.839,1.854,1.855c0,1.028-0.838,1.855-1.854,1.855
					c-1.022,0-1.855-0.827-1.855-1.855C149.97,229.104,150.799,228.275,151.826,228.275z M149.97,234.537
					c0.01-1.018,0.836-1.848,1.855-1.848c1.016,0,1.854,0.83,1.854,1.848h1.152v-7.461h-6.006v7.461h1.142H149.97z"/>
				<path id="connector9pin" fill="#FFE690" d="M162.094,213.51h-4.808v6.004h4.808v-1.15c-1.028,0-1.864-0.828-1.864-1.855
					c0-1.018,0.836-1.854,1.864-1.854v-1.143V213.51z"/>
				<path id="connector10pin" fill="#FFE690" d="M162.094,201.488h-4.808v6.006h4.808v-1.151c-1.028,0-1.864-0.827-1.864-1.855
					c0-1.017,0.836-1.855,1.864-1.855v-1.14V201.488z"/>
				<path id="connector11pin" fill="#FFE690" d="M162.094,189.47h-4.808v6.005h4.808v-1.152c-1.028,0-1.864-0.828-1.864-1.855
					c0-1.017,0.836-1.855,1.864-1.855V189.47L162.094,189.47z"/>
				<path id="connector12pin" fill="#FFE690" d="M162.094,177.449h-4.808v6.004h4.808v-1.15c-1.028,0-1.864-0.828-1.864-1.855
					c0-1.02,0.836-1.855,1.864-1.855V177.449L162.094,177.449z"/>
				<path id="connector13pin" fill="#FFE690" d="M162.094,165.426h-4.808v6.005h4.808v-1.15c-1.028,0-1.864-0.828-1.864-1.855
					c0-1.018,0.836-1.856,1.864-1.856v-1.141V165.426z"/>
				<path id="connector14pin" fill="#FFE690" d="M162.094,153.404h-4.808v6.004h4.808v-1.15c-1.028,0-1.864-0.828-1.864-1.856
					c0-1.017,0.836-1.854,1.864-1.854v-1.141V153.404z"/>
				<path id="connector15pin" fill="#FFE690" d="M151.608,144.645c-1.018,0-1.854-0.836-1.854-1.863
					c0-1.019,0.836-1.846,1.854-1.846c1.02,0,1.855,0.827,1.855,1.846C153.463,143.809,152.633,144.645,151.608,144.645z
					 M153.463,138.375c0,1.02-0.836,1.855-1.855,1.855c-1.018,0-1.854-0.836-1.854-1.855h-1.153v7.463h6.014v-7.463H153.463z"/>
				<path id="connector16pin" fill="#FFE690" d="M139.664,144.645c-1.027,0-1.855-0.836-1.855-1.863
					c0-1.019,0.831-1.846,1.855-1.846c1.02,0,1.856,0.827,1.856,1.846C141.52,143.809,140.692,144.645,139.664,144.645z
					 M141.52,138.375c-0.01,1.02-0.836,1.855-1.856,1.855c-1.019,0-1.855-0.836-1.855-1.855h-1.151v7.463h6.004v-7.463H141.52
					L141.52,138.375z"/>
				<path id="connector17pin" fill="#FFE690" d="M127.715,144.645c-1.021,0-1.855-0.836-1.855-1.863
					c0-1.019,0.836-1.846,1.855-1.846c1.025,0,1.855,0.827,1.855,1.846C129.57,143.809,128.74,144.645,127.715,144.645z
					 M129.57,138.375c0,1.02-0.83,1.855-1.855,1.855c-1.021,0-1.85-0.836-1.85-1.855h-1.151v7.463h6.005v-7.463h-1.152H129.57z"/>
				<path id="connector18pin" fill="#FFE690" d="M115.777,144.645c-1.027,0-1.853-0.836-1.853-1.863
					c0-1.019,0.826-1.846,1.853-1.846c1.019,0,1.855,0.827,1.855,1.846C117.632,143.809,116.796,144.645,115.777,144.645z
					 M117.632,138.375c-0.008,1.02-0.836,1.855-1.855,1.855c-1.027,0-1.853-0.836-1.853-1.855h-1.151v7.463h6.005v-7.463h-1.143
					H117.632z"/>
				<path id="connector19pin" fill="#FFE690" d="M103.825,144.645c-1.019,0-1.855-0.836-1.855-1.863
					c0-1.019,0.836-1.846,1.855-1.846c1.019,0,1.855,0.827,1.855,1.846C105.681,143.809,104.851,144.645,103.825,144.645z
					 M105.681,138.375c0,1.02-0.837,1.855-1.855,1.855c-1.019,0-1.845-0.836-1.855-1.855h-1.142v7.463h6.006v-7.463h-1.151H105.681z
					"/>
				<path id="connector20pin" fill="#FFE690" d="M91.882,144.645c-1.017,0-1.855-0.836-1.855-1.863c0-1.019,0.839-1.846,1.855-1.846
					c1.019,0,1.855,0.827,1.855,1.846C93.737,143.809,92.908,144.645,91.882,144.645z M93.737,138.375
					c0,1.02-0.836,1.855-1.855,1.855c-1.017,0-1.847-0.836-1.855-1.855h-1.141v7.463h6.005v-7.463h-1.151H93.737z"/>
				<path id="connector21pin" fill="#FFE690" d="M79.938,144.645c-1.017,0-1.855-0.836-1.855-1.863c0-1.019,0.841-1.846,1.855-1.846
					c1.021,0,1.855,0.827,1.855,1.846C81.793,143.809,80.958,144.645,79.938,144.645z M81.793,138.375
					c-0.009,1.02-0.835,1.855-1.855,1.855c-1.017,0-1.845-0.836-1.855-1.855h-1.142v7.463h6.005v-7.463h-1.151H81.793z"/>
				<path id="connector22pin" fill="#FFE690" d="M67.994,144.645c-1.017,0-1.854-0.836-1.854-1.863c0-1.019,0.838-1.846,1.854-1.846
					c1.019,0,1.855,0.827,1.855,1.846C69.85,143.809,69.013,144.645,67.994,144.645z M69.85,138.375
					c-0.006,1.02-0.837,1.855-1.855,1.855c-1.017,0-1.854-0.836-1.854-1.855h-1.151v7.463h6.008v-7.463h-1.145H69.85z"/>
				<g>
					<polygon fill="#D9DADB" points="107.865,182.608 107.865,181.375 110.068,181.375 110.068,180.381 107.865,180.381 
						107.865,179.32 110.219,179.32 110.219,178.318 106.923,178.318 106.923,183.604 110.309,183.604 110.309,182.608 					"/>
					<path fill="#D9DADB" d="M114.524,182.882c0.151-0.265,0.224-0.556,0.224-0.87s-0.075-0.596-0.213-0.823
						c-0.143-0.243-0.356-0.435-0.64-0.576c-0.166-0.083-0.439-0.183-0.868-0.298c-0.474-0.133-0.632-0.232-0.681-0.277
						c-0.149-0.145-0.157-0.492,0.052-0.667c0.124-0.1,0.304-0.146,0.549-0.146c0.238,0,0.412,0.055,0.536,0.176
						c0.123,0.115,0.199,0.301,0.213,0.558l0.025,0.22l0.922-0.084l-0.009-0.201c-0.008-0.332-0.083-0.622-0.226-0.866
						c-0.138-0.262-0.348-0.456-0.604-0.589c-0.246-0.136-0.547-0.198-0.87-0.198c-0.489,0-0.884,0.138-1.185,0.431
						c-0.288,0.299-0.439,0.668-0.439,1.117c0,0.25,0.052,0.482,0.158,0.689c0.099,0.198,0.25,0.368,0.433,0.496
						c0.18,0.133,0.462,0.248,0.867,0.373c0.498,0.148,0.705,0.232,0.779,0.272c0.091,0.05,0.158,0.104,0.207,0.183
						c0.042,0.075,0.066,0.166,0.066,0.266c0,0.19-0.066,0.331-0.19,0.439c-0.133,0.115-0.33,0.182-0.589,0.182
						c-0.19,0-0.355-0.041-0.497-0.116c-0.132-0.073-0.24-0.165-0.312-0.29c-0.083-0.119-0.135-0.298-0.152-0.53l-0.025-0.214
						l-0.902,0.094l0.008,0.199c0.008,0.567,0.182,1.015,0.514,1.346c0.331,0.34,0.779,0.506,1.327,0.506
						c0.346,0,0.657-0.066,0.911-0.199c0.255-0.133,0.464-0.344,0.611-0.596V182.882z"/>
					<path fill="#D9DADB" d="M118.84,181.135c0.249-0.314,0.383-0.721,0.383-1.201c0-0.373-0.075-0.688-0.234-0.953
						c-0.166-0.265-0.388-0.455-0.66-0.554c-0.192-0.075-0.472-0.108-0.855-0.108h-1.714v5.285h0.953v-1.977h0.813
						c0.611,0,1.052-0.17,1.317-0.492H118.84z M116.711,179.324h0.813c0.321,0,0.439,0.029,0.473,0.046
						c0.066,0.038,0.124,0.099,0.173,0.19c0.058,0.107,0.083,0.24,0.083,0.397c0,0.231-0.05,0.411-0.158,0.519
						c-0.105,0.104-0.296,0.152-0.561,0.152h-0.822v-1.305H116.711z"/>
					<path fill="#D9DADB" d="M123.033,182.004c0-0.355-0.077-0.654-0.226-0.895c-0.09-0.148-0.198-0.273-0.331-0.372
						c0.083-0.079,0.158-0.163,0.216-0.249c0.115-0.199,0.173-0.431,0.173-0.709c0-0.426-0.124-0.782-0.38-1.056
						c-0.265-0.281-0.591-0.422-0.978-0.422c-0.39,0-0.721,0.141-0.978,0.411c-0.249,0.271-0.381,0.62-0.381,1.047
						c0,0.285,0.06,0.529,0.174,0.725c0.058,0.09,0.133,0.174,0.207,0.244c-0.124,0.087-0.226,0.203-0.309,0.336
						c-0.158,0.24-0.229,0.559-0.229,0.919c0,0.497,0.139,0.903,0.422,1.222c0.298,0.314,0.663,0.48,1.102,0.48
						c0.431,0,0.795-0.157,1.083-0.48c0.282-0.314,0.433-0.713,0.433-1.205L123.033,182.004z M121.913,181.424
						c0.134,0.149,0.19,0.34,0.19,0.58c0,0.248-0.056,0.432-0.182,0.572c-0.116,0.133-0.238,0.198-0.404,0.198
						c-0.167,0-0.298-0.065-0.416-0.208c-0.133-0.141-0.191-0.331-0.191-0.578c0-0.232,0.058-0.424,0.182-0.564
						c0.116-0.133,0.249-0.197,0.406-0.197C121.656,181.227,121.798,181.291,121.913,181.424L121.913,181.424z M121.07,179.744
						c0-0.158,0.039-0.283,0.13-0.391c0.091-0.091,0.182-0.141,0.298-0.141c0.124,0,0.215,0.05,0.306,0.148
						c0.174,0.207,0.19,0.604,0,0.816c-0.083,0.088-0.182,0.137-0.298,0.137c-0.125,0-0.215-0.045-0.307-0.137
						c-0.083-0.104-0.133-0.248-0.133-0.431L121.07,179.744z"/>
					<path fill="#D9DADB" d="M125.684,180.43c-0.133,0.232-0.424,0.572-0.863,1.012c-0.406,0.404-0.688,0.762-0.846,1.076
						c-0.155,0.299-0.232,0.589-0.232,0.879v0.207h3.057v-0.995h-1.781c0.083-0.107,0.265-0.306,0.538-0.579
						c0.466-0.481,0.787-0.879,0.961-1.18c0.39-0.676,0.365-1.471-0.083-2.051c-0.248-0.336-0.621-0.497-1.093-0.497
						c-0.43,0-0.787,0.141-1.06,0.411c-0.257,0.271-0.414,0.674-0.447,1.188l-0.015,0.207l0.934,0.111v-0.236
						c0-0.261,0.058-0.459,0.174-0.588c0.1-0.119,0.224-0.174,0.397-0.174c0.149,0,0.271,0.045,0.379,0.158
						c0.201,0.228,0.234,0.604-0.022,1.051H125.684z"/>
					<path fill="#D9DADB" d="M130.444,182.782c0.124-0.281,0.19-0.612,0.19-0.969c0-0.522-0.133-0.96-0.398-1.274
						c-0.273-0.341-0.604-0.506-0.994-0.506c-0.224,0-0.447,0.065-0.652,0.199c-0.019,0.008-0.043,0.025-0.06,0.041
						c0.035-0.266,0.091-0.481,0.166-0.646c0.199-0.406,0.423-0.406,0.499-0.406c0.114,0,0.213,0.05,0.305,0.158
						c0.042,0.041,0.108,0.148,0.16,0.43l0.03,0.191l0.895-0.092l-0.027-0.207c-0.039-0.447-0.188-0.787-0.429-1.027
						c-0.24-0.239-0.546-0.372-0.911-0.372c-0.489,0-0.895,0.231-1.201,0.695c-0.292,0.438-0.431,1.126-0.431,2.12
						c0,0.902,0.139,1.541,0.431,1.938c0.298,0.423,0.688,0.63,1.166,0.63c0.265,0,0.507-0.074,0.731-0.225
						C130.127,183.312,130.309,183.082,130.444,182.782L130.444,182.782z M129.532,181.184c0.116,0.148,0.182,0.373,0.182,0.671
						c0,0.3-0.066,0.54-0.19,0.696c-0.157,0.224-0.298,0.224-0.339,0.224c-0.157,0-0.29-0.083-0.414-0.241
						c-0.133-0.173-0.199-0.404-0.199-0.72c0-0.273,0.058-0.481,0.182-0.63c0.123-0.141,0.248-0.205,0.396-0.205
						C129.3,180.979,129.425,181.043,129.532,181.184L129.532,181.184z"/>
					<path fill="#D9DADB" d="M134.256,182.782c0.122-0.281,0.188-0.612,0.188-0.969c0-0.522-0.133-0.96-0.397-1.274
						c-0.273-0.341-0.605-0.506-0.994-0.506c-0.221,0-0.447,0.065-0.654,0.199c-0.017,0.008-0.041,0.025-0.058,0.041
						c0.033-0.266,0.091-0.481,0.166-0.646c0.199-0.406,0.422-0.406,0.497-0.406c0.117,0,0.215,0.05,0.307,0.158
						c0.042,0.041,0.108,0.148,0.157,0.43L133.5,180l0.895-0.092l-0.025-0.216c-0.049-0.438-0.191-0.786-0.431-1.019
						c-0.24-0.247-0.555-0.372-0.911-0.372c-0.489,0-0.895,0.231-1.201,0.688c-0.298,0.438-0.431,1.134-0.431,2.128
						c0,0.895,0.133,1.533,0.422,1.938c0.307,0.414,0.696,0.63,1.168,0.63c0.265,0,0.513-0.074,0.737-0.225
						c0.215-0.148,0.395-0.379,0.53-0.679H134.256z M133.342,181.184c0.116,0.148,0.185,0.373,0.185,0.671
						c0,0.3-0.069,0.54-0.193,0.696c-0.158,0.224-0.298,0.224-0.337,0.224c-0.158,0-0.292-0.083-0.417-0.241
						c-0.132-0.173-0.199-0.404-0.199-0.72c0-0.273,0.058-0.481,0.182-0.63c0.123-0.141,0.249-0.205,0.398-0.205
						C133.111,180.979,133.227,181.043,133.342,181.184L133.342,181.184z"/>
					<polygon fill="#D9DADB" points="136.103,178.318 135.929,177.715 135.929,178.318 135.421,178.318 135.421,183.604 
						136.351,183.604 136.351,180.811 137.128,183.604 137.923,183.604 138.718,180.845 138.718,183.604 139.646,183.604 
						139.646,178.318 139.141,178.318 139.141,177.812 139.002,178.318 138.571,178.318 137.566,181.854 137.559,181.871 
						136.581,178.318 					"/>
					<path fill="#D9DADB" d="M140.64,181.026c0,0.696,0.173,1.3,0.522,1.798c0.398,0.572,0.938,0.861,1.59,0.861
						c0.657,0,1.192-0.281,1.59-0.836c0.348-0.489,0.53-1.119,0.53-1.889c0-0.547-0.088-1.027-0.272-1.441
						c-0.183-0.406-0.44-0.73-0.752-0.952c-0.332-0.216-0.688-0.333-1.087-0.333c-0.61,0-1.119,0.249-1.523,0.746
						C140.838,179.461,140.64,180.148,140.64,181.026L140.64,181.026z M143.903,180.953c0,0.587-0.116,1.043-0.347,1.342
						c-0.213,0.281-0.479,0.414-0.804,0.414c-0.314,0-0.569-0.133-0.795-0.414c-0.231-0.291-0.356-0.713-0.356-1.26
						c0-0.641,0.125-1.118,0.348-1.408c0.215-0.281,0.479-0.414,0.811-0.414c0.208,0,0.39,0.058,0.566,0.182
						c0.171,0.133,0.304,0.307,0.396,0.514C143.847,180.215,143.903,180.566,143.903,180.953z"/>
					<path fill="#D9DADB" d="M147.474,183.604c0.447,0,0.821-0.092,1.1-0.275c0.291-0.181,0.523-0.486,0.705-0.91
						c0.173-0.406,0.257-0.91,0.257-1.482c0-0.447-0.05-0.837-0.15-1.176c-0.107-0.332-0.248-0.621-0.439-0.846
						c-0.19-0.24-0.431-0.396-0.695-0.487c-0.208-0.071-0.481-0.108-0.845-0.108h-1.583v5.285H147.474L147.474,183.604z
						 M146.768,179.32h0.633c0.339,0,0.505,0.041,0.578,0.074c0.166,0.074,0.3,0.225,0.414,0.465
						c0.116,0.261,0.182,0.617,0.182,1.066c0,0.436-0.066,0.805-0.182,1.111c-0.075,0.198-0.18,0.348-0.315,0.431
						c-0.139,0.091-0.372,0.133-0.668,0.133h-0.641v-3.276V179.32z"/>
					<path fill="#D9DADB" d="M108.066,186.461l-1.675,5.284h1.004l0.439-1.467h1.356l0.466,1.467h1.052l-1.723-5.136l-0.052-0.152
						h-0.396l-0.083-0.355l-0.06,0.355h-0.329V186.461z M108.563,188.258l0.333,1.068h-0.783l0.356-1.152
						c0.019-0.032,0.027-0.073,0.038-0.115C108.53,188.125,108.548,188.191,108.563,188.258z"/>
					<polygon fill="#D9DADB" points="112.934,191.745 112.934,186.461 111.992,186.461 111.992,191.745 					"/>
					<polygon fill="#D9DADB" points="116.371,190.286 116.371,189.259 114.452,189.259 114.452,190.286 					"/>
					<polygon fill="#D9DADB" points="118.848,187.462 118.848,191.745 119.792,191.745 119.792,187.462 121.109,187.462 
						121.109,186.461 117.533,186.461 117.533,187.462 					"/>
					<polygon fill="#D9DADB" points="123.438,191.745 123.438,189.449 125.085,189.449 125.085,191.745 126.04,191.745 
						126.04,186.461 125.085,186.461 125.085,188.455 123.438,188.455 123.438,186.461 122.492,186.461 122.492,191.745 					"/>
					<polygon fill="#D9DADB" points="128.829,191.745 128.829,186.461 127.878,186.461 127.878,191.745 					"/>
					<polygon fill="#D9DADB" points="131.506,191.745 131.506,188.539 133.262,191.745 134.138,191.745 134.138,186.461 
						133.21,186.461 133.21,189.667 131.455,186.461 130.577,186.461 130.577,191.745 					"/>
					<polygon fill="#D9DADB" points="136.807,191.745 136.807,189.922 137.219,189.441 138.544,191.745 139.737,191.745 
						137.882,188.663 139.745,186.461 138.48,186.461 136.807,188.49 136.807,186.461 135.86,186.461 135.86,191.745 					"/>
					<polygon fill="#D9DADB" points="144.259,191.745 144.259,190.742 141.816,190.742 141.816,189.518 144.019,189.518 
						144.019,188.522 141.816,188.522 141.816,187.462 144.168,187.462 144.168,186.461 140.875,186.461 140.875,191.745 					"/>
					<path fill="#D9DADB" d="M146.787,191.745v-2.164h0.396c0.174,0,0.273,0.035,0.316,0.06c0.048,0.016,0.123,0.074,0.23,0.213
						c0.058,0.079,0.19,0.273,0.449,0.766l0.585,1.126h1.144l-0.861-1.632c-0.125-0.24-0.271-0.457-0.439-0.664
						c-0.016-0.016-0.025-0.023-0.04-0.041c0.215-0.09,0.396-0.221,0.536-0.389c0.224-0.262,0.333-0.611,0.333-1.027
						c0-0.314-0.06-0.596-0.193-0.826c-0.131-0.248-0.306-0.432-0.52-0.545c-0.209-0.109-0.508-0.16-0.922-0.16h-1.97v5.277h0.954
						V191.745L146.787,191.745z M146.787,187.43h1.042c0.222,0,0.388,0.039,0.488,0.138c0.108,0.103,0.16,0.243,0.16,0.431
						c0,0.133-0.035,0.241-0.092,0.34c-0.051,0.092-0.118,0.158-0.207,0.199c-0.066,0.035-0.209,0.068-0.472,0.068h-0.925v-1.178
						h0.008L146.787,187.43z"/>
					<polygon fill="#D9DADB" points="107.958,199.887 107.958,194.602 107.005,194.602 107.005,199.887 					"/>
					<path fill="#D9DADB" d="M112.323,199.16c0.147-0.26,0.222-0.549,0.222-0.861c0-0.326-0.073-0.597-0.213-0.837
						c-0.143-0.233-0.356-0.423-0.64-0.563c-0.164-0.084-0.439-0.182-0.87-0.298c-0.472-0.132-0.63-0.232-0.679-0.282
						c-0.149-0.141-0.158-0.478,0.049-0.652c0.125-0.1,0.307-0.161,0.549-0.161c0.24,0,0.412,0.061,0.538,0.176
						c0.123,0.116,0.197,0.307,0.214,0.563l0.024,0.217l0.92-0.082l-0.009-0.201c-0.008-0.323-0.083-0.619-0.223-0.867
						c-0.139-0.258-0.348-0.447-0.605-0.59c-0.246-0.133-0.547-0.197-0.868-0.197c-0.491,0-0.886,0.146-1.185,0.438
						c-0.292,0.288-0.439,0.66-0.439,1.108c0,0.248,0.05,0.482,0.156,0.688c0.099,0.197,0.25,0.373,0.43,0.508
						c0.182,0.121,0.464,0.248,0.872,0.361c0.504,0.151,0.705,0.232,0.777,0.273c0.093,0.053,0.157,0.105,0.207,0.181
						c0.042,0.075,0.066,0.165,0.066,0.265c0,0.189-0.066,0.333-0.19,0.439c-0.133,0.117-0.33,0.174-0.586,0.174
						c-0.19,0-0.356-0.031-0.497-0.105c-0.132-0.077-0.241-0.168-0.315-0.283c-0.083-0.123-0.134-0.308-0.151-0.529l-0.022-0.217
						l-0.903,0.1l0.008,0.189c0.008,0.565,0.184,1.02,0.513,1.353c0.33,0.33,0.777,0.503,1.325,0.503
						c0.348,0,0.656-0.064,0.913-0.207c0.257-0.131,0.462-0.34,0.613-0.604L112.323,199.16z"/>
					<polygon fill="#D9DADB" points="114.187,194.602 114.013,193.998 114.013,194.602 113.505,194.602 113.505,199.887 
						114.433,199.887 114.433,197.09 115.212,199.887 116.007,199.887 116.802,197.12 116.802,199.887 117.73,199.887 
						117.73,194.602 117.225,194.602 117.225,194.098 117.083,194.602 116.655,194.602 115.651,198.139 115.643,198.156 
						114.673,194.602 					"/>
					<path fill="#D9DADB" d="M130.195,196.715c-0.133,0.232-0.422,0.57-0.861,1.01c-0.404,0.406-0.686,0.771-0.843,1.076
						c-0.157,0.309-0.232,0.587-0.232,0.879v0.207h3.056v-0.994h-1.783c0.083-0.111,0.266-0.298,0.539-0.578
						c0.465-0.482,0.787-0.877,0.96-1.178c0.389-0.679,0.364-1.475-0.083-2.056c-0.246-0.33-0.621-0.498-1.093-0.498
						c-0.431,0-0.786,0.141-1.06,0.414c-0.257,0.273-0.406,0.673-0.448,1.185l-0.016,0.205l0.936,0.119v-0.24
						c0-0.266,0.056-0.457,0.174-0.592c0.1-0.121,0.224-0.174,0.398-0.174c0.148,0,0.273,0.053,0.381,0.16
						C130.421,195.884,130.454,196.266,130.195,196.715L130.195,196.715z"/>
					<polygon fill="#D9DADB" points="133.353,199.887 133.353,198.781 132.375,198.781 132.375,199.887 					"/>
					<path fill="#D9DADB" d="M137.329,197.75h-0.541v-3.146h-0.737l-1.88,3.254l-0.023,0.049v0.824h1.722v1.157h0.911v-1.157h0.549
						V197.75z M135.869,197.75h-0.663l0.663-1.178V197.75z"/>
					<path fill="#D9DADB" d="M138.445,195.795c-0.19,0.411-0.282,0.92-0.282,1.475c0,0.546,0.091,1.035,0.282,1.432
						c0.199,0.408,0.464,0.721,0.805,0.947c0.338,0.213,0.729,0.323,1.159,0.323c0.315,0,0.63-0.075,0.935-0.218
						c0.297-0.133,0.582-0.338,0.863-0.604l0.066-0.058v-2.111h-2.112v1h1.166v0.607c-0.097,0.09-0.232,0.172-0.398,0.248
						c-0.189,0.092-0.37,0.131-0.546,0.131c-0.372,0-0.66-0.131-0.902-0.414c-0.23-0.281-0.356-0.729-0.356-1.324
						c0-0.391,0.06-0.73,0.176-1.004c0.116-0.256,0.258-0.438,0.431-0.552c0.176-0.124,0.379-0.183,0.626-0.183
						c0.167,0,0.317,0.033,0.44,0.098c0.134,0.061,0.233,0.143,0.309,0.25c0.083,0.116,0.147,0.297,0.207,0.539l0.057,0.229
						l0.869-0.298l-0.041-0.184c-0.075-0.379-0.19-0.67-0.346-0.891c-0.168-0.232-0.373-0.416-0.623-0.531
						c-0.25-0.123-0.539-0.182-0.864-0.182c-0.429,0-0.818,0.098-1.133,0.305c-0.323,0.217-0.588,0.537-0.787,0.971V195.795z"/>
					<path fill="#D9DADB" d="M144.134,199.887v-2.137c0-0.473,0.093-0.67,0.177-0.76c0.106-0.125,0.221-0.184,0.379-0.184
						c0.125,0,0.216,0.033,0.281,0.116c0.075,0.092,0.118,0.282,0.118,0.53v2.446h0.912v-2.446c0-0.588-0.109-0.984-0.326-1.218
						c-0.212-0.248-0.512-0.364-0.886-0.364c-0.207,0-0.406,0.053-0.579,0.151c-0.025,0.015-0.052,0.022-0.075,0.042v-1.447h-0.911
						v5.283h0.911v-0.01L144.134,199.887z"/>
					<path fill="#D9DADB" d="M148.243,196.847h0.135l-1.633,2.278v0.762h2.973v-0.938h-1.538c-0.057,0-0.118,0-0.177,0l1.602-2.279
						l0.039-0.056v-0.671h-2.782v0.912h1.383V196.847L148.243,196.847z"/>
					<path fill="#D9DADB" d="M108.66,206.057c0.613,0,1.06-0.165,1.325-0.494c0.248-0.309,0.383-0.713,0.383-1.203
						c0-0.373-0.073-0.688-0.232-0.943c-0.167-0.273-0.389-0.455-0.663-0.564c-0.19-0.063-0.472-0.1-0.851-0.1h-1.717v5.279h0.953
						v-1.975h0.803H108.66z M107.857,203.748h0.803c0.332,0,0.447,0.041,0.482,0.057c0.056,0.025,0.123,0.09,0.174,0.189
						c0.056,0.1,0.081,0.244,0.081,0.391c0,0.238-0.05,0.413-0.157,0.514c-0.105,0.108-0.307,0.165-0.572,0.165h-0.812V203.748z"/>
					<path fill="#D9DADB" d="M112.919,202.744h-0.397l-0.084-0.356l-0.064,0.356h-0.323l-1.674,5.284h1l0.439-1.468h1.358
						l0.464,1.468h1.052l-1.723-5.136L112.919,202.744z M112.545,204.541l0.331,1.069H112.1l0.356-1.152
						c0.009-0.034,0.025-0.073,0.033-0.106c0.02,0.058,0.042,0.123,0.057,0.188V204.541z"/>
					<polygon fill="#D9DADB" points="128.513,204.93 127.429,204.93 127.429,203.613 126.544,203.613 126.544,204.93 
						125.458,204.93 125.458,205.916 126.544,205.916 126.544,207.244 127.429,207.244 127.429,205.916 128.513,205.916 					"/>
					<path fill="#D9DADB" d="M130.526,207.035c0.083-0.107,0.265-0.299,0.539-0.581c0.464-0.479,0.787-0.878,0.96-1.174
						c0.39-0.681,0.365-1.476-0.082-2.054c-0.257-0.332-0.622-0.498-1.094-0.498c-0.43,0-0.787,0.141-1.06,0.414
						c-0.257,0.273-0.414,0.67-0.456,1.186l-0.011,0.205l0.938,0.115v-0.239c0-0.263,0.058-0.456,0.174-0.591
						c0.099-0.121,0.222-0.172,0.396-0.172c0.151,0,0.273,0.051,0.381,0.166c0.201,0.215,0.232,0.597-0.025,1.051
						c-0.13,0.227-0.419,0.564-0.859,1.014c-0.406,0.398-0.688,0.76-0.845,1.068c-0.162,0.304-0.244,0.586-0.244,0.878l0.01,0.216
						h3.048v-1.003h-1.773L130.526,207.035z"/>
					<path fill="#D9DADB" d="M136.134,206.175c0-0.538-0.13-0.971-0.412-1.294c-0.292-0.331-0.638-0.496-1.027-0.496
						c-0.167,0-0.325,0.032-0.472,0.09l0.107-0.67h1.622v-0.995h-2.367l-0.447,2.884l0.82,0.133l0.064-0.133
						c0.058-0.118,0.142-0.208,0.234-0.266c0.097-0.057,0.196-0.092,0.304-0.092c0.183,0,0.323,0.066,0.447,0.218
						c0.132,0.147,0.199,0.37,0.199,0.661c0,0.324-0.073,0.57-0.215,0.745c-0.125,0.165-0.266,0.24-0.431,0.24
						c-0.124,0-0.231-0.05-0.329-0.157c-0.11-0.124-0.184-0.314-0.218-0.58l-0.022-0.197l-0.93,0.092l0.019,0.205
						c0.031,0.473,0.19,0.854,0.464,1.128c0.281,0.28,0.623,0.423,1.026,0.423c0.481,0,0.87-0.199,1.16-0.596
						c0.275-0.371,0.406-0.828,0.406-1.343H136.134z"/>
					<path fill="#D9DADB" d="M138.859,207.939v0.089h0.878v-5.278h-0.919v1.424c-0.008,0-0.008-0.008-0.025-0.008
						c-0.166-0.105-0.356-0.157-0.555-0.157c-0.271,0-0.513,0.084-0.735,0.237c-0.226,0.163-0.389,0.4-0.513,0.713
						c-0.125,0.307-0.18,0.674-0.18,1.096c0,0.629,0.139,1.124,0.412,1.49c0.29,0.373,0.646,0.564,1.052,0.564
						c0.209,0,0.4-0.061,0.573-0.166c0,0,0.006-0.008,0.015-0.008L138.859,207.939z M137.732,206.057
						c0-0.41,0.058-0.721,0.182-0.902c0.158-0.229,0.306-0.229,0.356-0.229c0.102,0,0.249,0.024,0.4,0.238
						c0.13,0.199,0.197,0.52,0.197,0.971c0,0.379-0.066,0.66-0.19,0.836c-0.114,0.148-0.232,0.23-0.37,0.23
						c-0.133,0-0.257-0.082-0.384-0.238C137.798,206.77,137.732,206.471,137.732,206.057z"/>
					<path fill="#D9DADB" d="M142.539,208.028c0.387,0,0.685-0.058,0.917-0.173c0.24-0.115,0.439-0.309,0.582-0.573
						c0.13-0.257,0.198-0.546,0.198-0.877c0-0.333-0.077-0.63-0.233-0.86c-0.091-0.143-0.2-0.257-0.332-0.348
						c0.074-0.091,0.149-0.184,0.209-0.299c0.24-0.422,0.23-1.018-0.025-1.457c-0.134-0.233-0.309-0.414-0.52-0.529
						c-0.209-0.107-0.485-0.168-0.814-0.168h-1.714v5.287h1.733L142.539,208.028z M141.758,204.79v-1.044h0.589
						c0.339,0,0.472,0.033,0.521,0.049c0.067,0.023,0.125,0.075,0.166,0.15c0.1,0.166,0.092,0.513-0.008,0.652
						c-0.04,0.076-0.108,0.123-0.204,0.16c-0.042,0.016-0.16,0.032-0.417,0.032H141.758z M141.758,205.783h0.712
						c0.298,0,0.439,0.041,0.507,0.074c0.091,0.045,0.157,0.1,0.213,0.189c0.116,0.201,0.108,0.564-0.008,0.748
						c-0.05,0.09-0.133,0.156-0.24,0.197c-0.049,0.018-0.158,0.043-0.406,0.043h-0.778V205.783L141.758,205.783z"/>
					<polygon fill="#D9DADB" points="145.876,202.744 145.708,202.139 145.708,202.744 145.205,202.744 145.205,208.028 
						146.131,208.028 146.131,205.236 146.91,208.028 147.705,208.028 148.5,205.27 148.5,208.028 149.427,208.028 149.427,202.744 
						148.922,202.744 148.922,202.239 148.776,202.744 148.342,202.744 147.349,206.281 147.34,206.297 146.363,202.744 					"/>
					<path fill="#D9DADB" d="M109.745,214.573c0-0.347-0.075-0.655-0.224-0.896c-0.091-0.152-0.199-0.264-0.333-0.365
						c0.082-0.074,0.157-0.165,0.217-0.255c0.116-0.198,0.174-0.431,0.174-0.706c0-0.43-0.134-0.776-0.381-1.061
						c-0.265-0.281-0.588-0.422-0.986-0.422c-0.381,0-0.712,0.141-0.971,0.414c-0.255,0.273-0.379,0.622-0.379,1.044
						c0,0.29,0.058,0.53,0.174,0.729c0.058,0.092,0.125,0.175,0.206,0.24c-0.123,0.091-0.222,0.206-0.305,0.338
						c-0.159,0.249-0.243,0.556-0.243,0.921c0,0.497,0.151,0.908,0.431,1.217c0.288,0.321,0.661,0.481,1.1,0.481
						c0.422,0,0.795-0.16,1.087-0.481c0.281-0.309,0.431-0.713,0.431-1.199L109.745,214.573z M108.627,213.999
						c0.132,0.142,0.19,0.333,0.19,0.581c0,0.24-0.058,0.431-0.182,0.562c-0.116,0.143-0.248,0.199-0.414,0.199
						c-0.156,0-0.291-0.064-0.406-0.207c-0.133-0.139-0.188-0.329-0.188-0.57c0-0.24,0.056-0.43,0.18-0.573
						c0.117-0.132,0.24-0.189,0.406-0.189c0.166-0.009,0.3,0.06,0.417,0.197H108.627z M107.923,212.741
						c-0.091-0.103-0.142-0.249-0.142-0.431c0-0.158,0.05-0.281,0.142-0.379c0.083-0.102,0.173-0.143,0.288-0.143
						c0.124,0,0.217,0.041,0.308,0.143c0.182,0.205,0.191,0.613,0.006,0.81c-0.089,0.089-0.18,0.141-0.306,0.141
						c-0.116,0-0.215-0.04-0.298-0.141H107.923z"/>
					<path fill="#D9DADB" d="M113.854,215.508c0.244-0.453,0.355-1.094,0.355-1.945c0-0.943-0.138-1.631-0.43-2.078
						c-0.266-0.406-0.622-0.613-1.077-0.613c-0.513,0-0.901,0.258-1.157,0.744c-0.243,0.449-0.356,1.102-0.356,1.947
						c0,0.959,0.132,1.633,0.398,2.038c0.282,0.438,0.662,0.655,1.11,0.655C113.201,216.256,113.607,215.996,113.854,215.508z
						 M113.284,213.562c0,0.929-0.107,1.316-0.199,1.481c-0.151,0.263-0.283,0.298-0.375,0.298c-0.1,0-0.246-0.035-0.396-0.298
						c-0.093-0.157-0.209-0.547-0.209-1.481c0-0.93,0.108-1.318,0.199-1.476c0.166-0.296,0.323-0.296,0.375-0.296
						c0.102,0,0.255,0.022,0.406,0.287C113.176,212.235,113.284,212.633,113.284,213.562z"/>
					<path fill="#D9DADB" d="M116.165,211.291c-0.257,0.266-0.406,0.663-0.447,1.177l-0.017,0.206l0.936,0.116v-0.239
						c0-0.266,0.055-0.456,0.173-0.589c0.1-0.124,0.224-0.173,0.398-0.173c0.149,0,0.273,0.049,0.381,0.165
						c0.208,0.226,0.233,0.597-0.025,1.052c-0.132,0.225-0.422,0.565-0.861,1.01c-0.405,0.398-0.688,0.763-0.845,1.07
						c-0.157,0.307-0.232,0.588-0.232,0.878v0.212h3.056v-1h-1.781c0.083-0.107,0.266-0.297,0.539-0.57
						c0.464-0.479,0.785-0.879,0.961-1.185c0.389-0.68,0.364-1.467-0.083-2.056c-0.249-0.331-0.621-0.496-1.095-0.496
						c-0.431,0-0.788,0.141-1.06,0.422H116.165z"/>
					<polygon fill="#D9DADB" points="121.442,216.17 121.442,215.068 120.457,215.068 120.457,216.17 					"/>
					<path fill="#D9DADB" d="M124.698,210.871l-0.052,0.133c-0.074,0.18-0.207,0.389-0.389,0.586
						c-0.19,0.209-0.416,0.383-0.673,0.532l-0.099,0.058v1.019l0.292-0.124c0.172-0.076,0.356-0.182,0.572-0.341
						c0.042-0.024,0.074-0.057,0.116-0.092v3.528h0.912v-5.299H124.698z"/>
					<path fill="#D9DADB" d="M128.779,210.871l-0.05,0.133c-0.066,0.18-0.207,0.389-0.389,0.586
						c-0.188,0.209-0.412,0.383-0.663,0.532l-0.105,0.058v1.019l0.298-0.124c0.164-0.076,0.347-0.182,0.561-0.341
						c0.042-0.024,0.079-0.057,0.116-0.092v3.528h0.911v-5.299H128.779z"/>
					<path fill="#D9DADB" d="M131.81,210.886v5.284h0.878v-0.098c0.008,0.008,0.017,0.008,0.025,0.016
						c0.166,0.107,0.356,0.168,0.565,0.168c0.406,0,0.752-0.191,1.043-0.574c0.282-0.364,0.421-0.871,0.421-1.508
						c0-0.414-0.056-0.777-0.18-1.076c-0.133-0.315-0.301-0.547-0.514-0.705c-0.226-0.163-0.475-0.246-0.748-0.246
						c-0.198,0-0.378,0.051-0.546,0.146l-0.031,0.02v-1.425h-0.913V210.886z M132.986,215.242c-0.091-0.074-0.166-0.182-0.215-0.32
						c-0.058-0.159-0.091-0.408-0.091-0.748c0-0.383,0.066-0.672,0.199-0.861c0.174-0.246,0.323-0.246,0.372-0.246
						c0.091,0,0.232,0.023,0.383,0.232c0.122,0.173,0.181,0.48,0.181,0.891c0,0.406-0.066,0.707-0.188,0.897
						c-0.175,0.249-0.317,0.249-0.367,0.249c-0.1,0-0.19-0.027-0.273-0.092V215.242z"/>
					<polygon fill="#D9DADB" points="136.724,216.256 137.973,210.803 137.146,210.803 135.894,216.256 					"/>
					<path fill="#D9DADB" d="M142.024,212.229h-0.871v0.108c-0.025-0.011-0.042-0.027-0.059-0.035
						c-0.173-0.1-0.363-0.158-0.571-0.158c-0.273,0-0.53,0.084-0.754,0.24c-0.215,0.16-0.397,0.397-0.521,0.721
						c-0.132,0.309-0.19,0.656-0.19,1.07c0,0.605,0.149,1.102,0.431,1.473c0.276,0.348,0.622,0.521,1.028,0.521
						c0.197,0,0.38-0.05,0.546-0.141c0.007-0.01,0.024-0.018,0.032-0.018c-0.008,0.136-0.016,0.191-0.025,0.227
						c-0.041,0.158-0.1,0.273-0.19,0.338c-0.091,0.074-0.214,0.109-0.38,0.109c-0.142,0-0.249-0.026-0.323-0.082
						c-0.066-0.062-0.105-0.16-0.125-0.291l-0.014-0.157l-0.64-0.118l-0.249-0.008v0.256c0,0.4,0.127,0.715,0.356,0.953
						c0.24,0.243,0.58,0.365,1.011,0.365c0.322,0,0.604-0.084,0.844-0.24c0.231-0.158,0.406-0.373,0.514-0.646
						c0.1-0.266,0.149-0.672,0.149-1.234v-3.253H142.024z M140.178,215.027c-0.125-0.174-0.188-0.48-0.188-0.887
						c0-0.379,0.063-0.662,0.188-0.845c0.148-0.208,0.281-0.232,0.364-0.232c0.16,0,0.292,0.073,0.408,0.241
						c0.131,0.174,0.199,0.465,0.199,0.861c0,0.398-0.068,0.693-0.19,0.858c-0.118,0.163-0.245,0.224-0.397,0.224
						c-0.093,0.012-0.232-0.014-0.383-0.224V215.027z"/>
					<polygon fill="#D9DADB" points="144.151,216.256 145.41,210.803 144.577,210.803 143.326,216.256 					"/>
					<path fill="#D9DADB" d="M147.547,212.37v-0.141h-0.861v3.94h0.911v-2.137c0-0.464,0.085-0.674,0.158-0.762
						c0.101-0.124,0.224-0.184,0.397-0.184c0.083,0,0.141,0.018,0.208,0.06c0.056,0.04,0.099,0.101,0.124,0.184
						c0.025,0.056,0.059,0.194,0.059,0.487v2.352h0.91v-2.377c0-0.34-0.025-0.595-0.066-0.768c-0.05-0.192-0.124-0.349-0.223-0.467
						c-0.099-0.123-0.226-0.221-0.389-0.296c-0.158-0.075-0.331-0.11-0.522-0.11c-0.232,0-0.456,0.059-0.64,0.175
						C147.589,212.338,147.572,212.352,147.547,212.37L147.547,212.37z"/>
				</g>
				<g>
					<path fill="#D9DADB" d="M80.253,206.96c0,6.263,5.075,11.338,11.345,11.338c4.641,0,8.615-2.78,10.37-6.765h-4.313
						c-1.392,1.83-3.572,3.039-6.057,3.039c-4.197,0-7.612-3.403-7.612-7.619c0-4.199,3.415-7.611,7.612-7.611
						c2.485,0,4.666,1.201,6.057,3.038h4.313c-1.755-3.985-5.731-6.767-10.37-6.767C85.328,195.605,80.253,200.689,80.253,206.96z"
						/>
					<path fill="#D9DADB" d="M98.067,204.863c-0.894-2.783-3.471-4.818-6.552-4.818c-3.818,0-6.908,3.098-6.908,6.908
						c0,3.816,3.09,6.914,6.908,6.914c3.081,0,5.658-2.037,6.552-4.82h-4.042c-0.596,0.723-1.499,1.191-2.509,1.191
						c-1.812,0-3.289-1.473-3.289-3.287s1.477-3.279,3.289-3.279c1.021,0,1.907,0.464,2.518,1.191H98.067L98.067,204.863z"/>
					<path fill="#D9DADB" d="M69.365,198.719v18.473h3.537v-8.939h7.065v-3.131h-7.065v-6.402h8.97v-3.537h-8.97
						C70.947,195.182,69.365,196.764,69.365,198.719z"/>
					<polygon fill="#D9DADB" points="73.179,178.318 72.177,181.854 72.177,181.871 71.197,178.318 70.711,178.318 70.537,177.705 
						70.537,178.318 70.032,178.318 70.032,183.594 70.968,183.594 70.968,180.803 71.744,183.594 72.54,183.594 73.328,180.836 
						73.328,183.594 74.265,183.594 74.265,178.318 73.749,178.318 73.749,177.812 73.608,178.318 					"/>
					<path fill="#D9DADB" d="M75.217,181.02c0,0.703,0.172,1.307,0.52,1.805c0.397,0.572,0.934,0.854,1.59,0.854
						c0.654,0,1.184-0.281,1.59-0.836c0.348-0.481,0.53-1.119,0.53-1.881c0-0.547-0.089-1.036-0.273-1.441
						c-0.182-0.414-0.439-0.73-0.76-0.952c-0.324-0.225-0.689-0.333-1.079-0.333c-0.613,0-1.127,0.249-1.535,0.738
						c-0.389,0.488-0.585,1.176-0.585,2.047H75.217z M78.478,180.945c0,0.595-0.116,1.043-0.347,1.35
						c-0.226,0.281-0.483,0.414-0.806,0.414c-0.314,0-0.58-0.138-0.795-0.414c-0.232-0.299-0.357-0.722-0.357-1.269
						c0-0.638,0.117-1.109,0.349-1.407c0.215-0.281,0.48-0.414,0.812-0.414c0.207,0,0.39,0.058,0.563,0.189
						c0.172,0.125,0.307,0.298,0.398,0.514c0.115,0.298,0.182,0.655,0.182,1.037H78.478z"/>
					<path fill="#D9DADB" d="M82.009,183.594c0.447,0,0.819-0.09,1.099-0.266c0.292-0.181,0.528-0.486,0.704-0.918
						c0.172-0.406,0.259-0.902,0.259-1.484c0-0.446-0.052-0.836-0.151-1.166c-0.099-0.34-0.247-0.621-0.439-0.854
						c-0.19-0.232-0.431-0.398-0.696-0.484c-0.201-0.07-0.478-0.104-0.844-0.104H80.36v5.275h1.646H82.009z M81.304,179.312h0.622
						c0.346,0,0.505,0.049,0.588,0.082c0.164,0.074,0.298,0.225,0.412,0.465c0.119,0.248,0.176,0.612,0.176,1.066
						c0,0.432-0.058,0.805-0.176,1.111c-0.075,0.198-0.18,0.348-0.32,0.431c-0.141,0.091-0.367,0.133-0.663,0.133h-0.638V179.312z"
						/>
					<polygon fill="#D9DADB" points="88.469,183.594 88.469,182.601 86.022,182.601 86.022,181.375 88.227,181.375 88.227,180.381 
						86.022,180.381 86.022,179.312 88.378,179.312 88.378,178.318 85.073,178.318 85.073,183.594 					"/>
					<polygon fill="#D9DADB" points="92.335,183.594 92.335,182.601 90.372,182.601 90.372,178.318 89.419,178.318 89.419,183.594 
											"/>
					<polygon fill="#D9DADB" points="72.094,191.745 73.792,186.461 72.806,186.461 71.688,190.138 71.68,190.162 71.67,190.138 
						70.587,186.461 69.568,186.461 71.249,191.745 71.62,191.745 71.67,191.943 71.72,191.745 					"/>
					<polygon fill="#D9DADB" points="74.444,186.461 74.444,191.745 77.843,191.745 77.843,190.742 75.399,190.742 75.399,189.518 
						77.602,189.518 77.602,188.512 75.399,188.512 75.399,187.454 77.749,187.454 77.749,186.461 					"/>
					<polygon fill="#D9DADB" points="78.812,186.461 78.812,191.745 79.739,191.745 79.739,188.539 81.495,191.745 82.373,191.745 
						82.373,186.461 81.443,186.461 81.443,189.664 79.689,186.461 					"/>
					<path fill="#D9DADB" d="M85.156,191.745c0.447,0,0.82-0.09,1.109-0.276c0.282-0.18,0.522-0.488,0.705-0.91
						c0.164-0.404,0.254-0.912,0.254-1.483c0-0.447-0.049-0.845-0.156-1.178c-0.099-0.338-0.25-0.619-0.432-0.852
						c-0.197-0.231-0.431-0.398-0.704-0.489c-0.197-0.065-0.47-0.1-0.834-0.1h-1.59v5.285h1.648V191.745z M84.46,187.451h0.622
						c0.339,0,0.505,0.053,0.588,0.084c0.159,0.074,0.298,0.225,0.405,0.455c0.118,0.257,0.184,0.622,0.184,1.079
						c0,0.419-0.06,0.795-0.171,1.102c-0.083,0.205-0.184,0.349-0.327,0.438c-0.139,0.09-0.36,0.133-0.66,0.133H84.46V187.451
						L84.46,187.451z"/>
					<path fill="#D9DADB" d="M88.061,189.16c0,0.704,0.182,1.309,0.53,1.806c0.399,0.571,0.938,0.86,1.59,0.86
						c0.657,0,1.185-0.291,1.591-0.846c0.348-0.48,0.53-1.118,0.53-1.879c0-0.546-0.091-1.037-0.273-1.441
						c-0.178-0.414-0.439-0.729-0.76-0.951c-0.323-0.226-0.688-0.334-1.085-0.334c-0.605,0-1.119,0.25-1.523,0.738
						c-0.398,0.49-0.598,1.174-0.598,2.045L88.061,189.16z M91.331,189.094c0,0.588-0.113,1.044-0.345,1.342
						c-0.224,0.273-0.481,0.414-0.806,0.414c-0.312,0-0.577-0.135-0.794-0.414c-0.23-0.289-0.356-0.712-0.356-1.258
						c0-0.646,0.116-1.121,0.348-1.418c0.215-0.281,0.48-0.416,0.812-0.416c0.207,0,0.389,0.068,0.562,0.191
						c0.174,0.125,0.307,0.299,0.39,0.515C91.267,188.347,91.331,188.703,91.331,189.094L91.331,189.094z"/>
					<path fill="#D9DADB" d="M94.166,191.745v-2.164h0.401c0.18,0,0.273,0.035,0.321,0.051c0.044,0.024,0.126,0.083,0.225,0.216
						c0.056,0.082,0.197,0.282,0.448,0.77l0.597,1.129h1.143l-0.862-1.633c-0.125-0.238-0.273-0.465-0.439-0.66
						c-0.017-0.018-0.025-0.035-0.041-0.043c0.217-0.092,0.389-0.223,0.538-0.389c0.215-0.264,0.332-0.615,0.332-1.027
						c0-0.314-0.066-0.598-0.199-0.836c-0.125-0.24-0.298-0.424-0.521-0.537c-0.206-0.109-0.505-0.157-0.912-0.157h-1.979v5.284
						h0.951L94.166,191.745z M94.166,187.422h1.054c0.223,0,0.389,0.047,0.489,0.148c0.102,0.1,0.151,0.24,0.151,0.431
						c0,0.133-0.028,0.238-0.083,0.337c-0.05,0.092-0.116,0.158-0.209,0.19c-0.072,0.044-0.205,0.075-0.47,0.075h-0.928v-1.182
						H94.166z"/>
				</g>
				<path fill="#D9DADB" d="M72.707,156.916c-1.813,1.788-2.94,4.277-2.94,7.028c0,5.45,4.419,9.872,9.873,9.872
					c2.764,0,5.256-1.131,7.049-2.961l0.625,0.621c-1.951,1.988-4.669,3.222-7.674,3.222c-5.938,0-10.755-4.815-10.755-10.754
					c0-2.994,1.224-5.703,3.2-7.653L72.707,156.916z M78.691,155.467l0.195-0.584c0.249-0.021,0.499-0.029,0.753-0.029
					c5.021,0,9.091,4.07,9.091,9.091c0,0.235-0.009,0.468-0.027,0.698l-0.642,0.225c-1.5-4.402-4.976-7.889-9.374-9.396
					L78.691,155.467z M73.618,158.658l0.017-1.539c0.551-0.488,1.164-0.906,1.823-1.247c6.427,0.763,11.516,5.897,12.208,12.347
					c-0.326,0.611-0.721,1.18-1.17,1.696l-1.636-0.013c0.001-0.058,0.001-0.12,0.001-0.178c0-6.113-4.957-11.069-11.067-11.069
					c-0.058,0-0.117,0-0.174,0.003H73.618z M71.99,167.248l-1.242-1.421c-0.403-1.926-0.182-3.971,0.669-5.765
					c0.762-0.186,1.557-0.285,2.377-0.285c5.496,0,9.949,4.451,9.949,9.947c0,0.857-0.109,1.689-0.312,2.485
					c-0.518,0.239-1.061,0.431-1.622,0.567l-1.407-0.547c0.293-0.778,0.458-1.623,0.458-2.506c0-3.9-3.165-7.065-7.063-7.065
					c-0.553,0-1.091,0.067-1.607,0.187c-0.07,0.383-0.066,0.746-0.017,1.099c0.516-0.146,1.061-0.225,1.624-0.225
					c3.315,0,6.003,2.688,6.003,6.005c0,1.205-0.358,2.332-0.971,3.275c-0.625-0.058-1.23-0.177-1.812-0.352l-0.911-0.915
					c0.467-0.538,0.751-1.242,0.751-2.013c0-1.689-1.371-3.061-3.06-3.061c-0.673,0-1.296,0.22-1.804,0.588H71.99z M73.794,168.135
					c0.877,0,1.588,0.712,1.588,1.59c0,0.879-0.712,1.59-1.588,1.59c-0.878,0-1.591-0.711-1.591-1.59
					C72.204,168.847,72.916,168.135,73.794,168.135z"/>
				<g>
					<rect x="140.718" y="161.545" fill="#D9DADB" width="2.711" height="7.854"/>
					<path fill="#D9DADB" d="M140.75,160.211c0.076,0.172,0.188,0.324,0.337,0.439c0.142,0.109,0.303,0.183,0.478,0.225
						c0.165,0.045,0.34,0.062,0.513,0.062c0.174,0,0.346-0.018,0.514-0.062c0.169-0.042,0.332-0.115,0.472-0.225
						c0.148-0.115,0.261-0.264,0.339-0.434c0.09-0.195,0.123-0.406,0.123-0.617s-0.03-0.426-0.123-0.621
						c-0.078-0.166-0.19-0.315-0.338-0.432c-0.143-0.111-0.307-0.186-0.483-0.223c-0.163-0.037-0.332-0.059-0.504-0.059
						c-0.17,0-0.34,0.021-0.507,0.059c-0.176,0.042-0.341,0.111-0.483,0.223c-0.148,0.116-0.261,0.266-0.337,0.436
						c-0.087,0.195-0.118,0.41-0.118,0.617h0.002C140.634,159.807,140.665,160.018,140.75,160.211z"/>
					<polygon fill="#D9DADB" points="132.794,165.541 138.461,165.541 138.461,163.148 132.794,163.148 132.794,161.297 
						138.71,161.297 138.71,158.904 130.098,158.904 130.098,169.402 132.794,169.402 					"/>
					<path fill="#D9DADB" d="M108.15,173.92h33.586c4.2,0,7.634-3.434,7.634-7.633v-4.348c0-4.195-3.434-7.633-7.634-7.633H108.15
						c-4.199,0-7.632,3.438-7.632,7.633v4.348C100.519,170.486,103.951,173.92,108.15,173.92z M125.979,166.287v-4.348
						c0.015-3.309,2.72-6.043,6.042-6.043h9.715c3.324,0,6.043,2.721,6.043,6.043v4.348c0,3.322-2.72,6.043-6.043,6.043h-9.715
						h-12.084C123.258,172.33,125.979,169.609,125.979,166.287z M119.167,168.822v-7.318h2.611v7.318H119.167z M119.199,159.054
						c0.075-0.167,0.185-0.312,0.327-0.423c0.139-0.108,0.298-0.179,0.469-0.221c0.159-0.033,0.32-0.049,0.482-0.049
						s0.325,0.016,0.476,0.049c0.171,0.042,0.332,0.112,0.469,0.221c0.143,0.107,0.252,0.252,0.327,0.418
						c0.087,0.182,0.117,0.389,0.117,0.592c0,0.202-0.03,0.406-0.117,0.592c-0.075,0.166-0.185,0.312-0.327,0.423
						c-0.135,0.104-0.292,0.175-0.456,0.216c-0.159,0.045-0.323,0.057-0.489,0.057c-0.167,0-0.332-0.016-0.491-0.057
						c-0.167-0.041-0.323-0.111-0.459-0.221c-0.145-0.111-0.254-0.256-0.329-0.422c-0.081-0.186-0.11-0.389-0.11-0.588
						S119.116,159.239,119.199,159.054z M107.475,158.953l1.102,5.289c0.018,0.1,0.035,0.195,0.054,0.295
						c0.017,0.086,0.031,0.172,0.047,0.26c0.012-0.062,0.025-0.119,0.035-0.179c0.019-0.087,0.036-0.181,0.056-0.265l1.343-5.4h2.25
						l1.34,5.4c0.022,0.088,0.042,0.178,0.06,0.265c0.012,0.06,0.022,0.116,0.035,0.179c0.015-0.088,0.031-0.174,0.047-0.257
						c0.019-0.099,0.035-0.198,0.055-0.304l1.102-5.283h2.639l-2.378,9.873h-2.754l-1.195-4.783
						c-0.025-0.091-0.045-0.189-0.065-0.281c-0.003-0.018-0.006-0.029-0.009-0.047h-0.004c-0.002,0.014-0.004,0.025-0.008,0.043
						c-0.021,0.1-0.044,0.194-0.067,0.289l-1.185,4.775h-2.759l-2.38-9.869H107.475z"/>
				</g>
			</g>
		</g>
	</g>
	<g>
		<g>
			<path d="M106.125,26.526l-1.401-3.684H92.792l-1.401,3.764c-0.547,1.469-1.015,2.459-1.401,2.973
				c-0.387,0.514-1.021,0.771-1.902,0.771c-0.748,0-1.408-0.273-1.982-0.82c-0.574-0.547-0.861-1.168-0.861-1.861
				c0-0.4,0.066-0.814,0.2-1.242c0.133-0.427,0.354-1.021,0.661-1.781l7.507-19.059c0.213-0.547,0.47-1.204,0.771-1.972
				c0.3-0.768,0.62-1.404,0.961-1.912c0.34-0.507,0.787-0.917,1.341-1.231C97.239,0.157,97.923,0,98.737,0
				c0.827,0,1.518,0.157,2.072,0.471c0.554,0.314,1.001,0.718,1.342,1.211c0.34,0.494,0.627,1.025,0.86,1.592
				c0.233,0.567,0.531,1.325,0.891,2.272l7.667,18.938c0.601,1.441,0.901,2.489,0.901,3.143c0,0.682-0.284,1.306-0.851,1.872
				c-0.567,0.567-1.251,0.851-2.052,0.851c-0.467,0-0.868-0.083-1.201-0.25c-0.334-0.167-0.614-0.394-0.841-0.681
				c-0.227-0.286-0.471-0.727-0.73-1.321C106.535,27.504,106.311,26.98,106.125,26.526z M94.353,18.379h8.769L98.697,6.267
				L94.353,18.379z"/>
			<path d="M123.93,22.463v4.564c0,1.107-0.26,1.938-0.781,2.492s-1.181,0.83-1.982,0.83c-0.788,0-1.435-0.279-1.942-0.84
				c-0.507-0.561-0.761-1.389-0.761-2.482V11.812c0-2.456,0.887-3.684,2.663-3.684c0.907,0,1.562,0.287,1.962,0.86
				c0.4,0.574,0.621,1.421,0.661,2.542c0.654-1.121,1.324-1.968,2.012-2.542c0.687-0.573,1.604-0.86,2.752-0.86
				c1.147,0,2.262,0.287,3.343,0.86c1.081,0.574,1.622,1.335,1.622,2.282c0,0.668-0.23,1.218-0.691,1.651
				c-0.46,0.435-0.958,0.651-1.491,0.651c-0.2,0-0.684-0.124-1.451-0.371c-0.768-0.246-1.445-0.37-2.032-0.37
				c-0.801,0-1.455,0.21-1.962,0.631c-0.507,0.42-0.901,1.044-1.181,1.872c-0.28,0.827-0.474,1.812-0.581,2.952
				C123.983,19.43,123.93,20.82,123.93,22.463z"/>
			<path d="M152.426,27.227v-0.54c-0.734,0.841-1.458,1.525-2.172,2.052c-0.714,0.527-1.488,0.928-2.322,1.201
				s-1.745,0.41-2.732,0.41c-1.308,0-2.52-0.276-3.634-0.83s-2.079-1.345-2.893-2.373c-0.814-1.027-1.432-2.234-1.852-3.623
				c-0.421-1.388-0.631-2.89-0.631-4.504c0-3.417,0.834-6.079,2.502-7.988c1.668-1.908,3.864-2.863,6.586-2.863
				c1.575,0,2.903,0.271,3.984,0.812c1.081,0.54,2.135,1.371,3.163,2.492V3.404c0-1.121,0.223-1.969,0.67-2.543
				C153.543,0.288,154.181,0,155.008,0c0.827,0,1.464,0.265,1.912,0.791c0.447,0.527,0.67,1.305,0.67,2.332v24.104
				c0,1.041-0.24,1.822-0.721,2.343s-1.101,0.78-1.862,0.78c-0.748,0-1.365-0.27-1.852-0.811
				C152.669,28.999,152.426,28.229,152.426,27.227z M141.675,19.199c0,1.481,0.23,2.742,0.69,3.783
				c0.461,1.041,1.091,1.826,1.892,2.353c0.801,0.527,1.675,0.791,2.623,0.791c0.961,0,1.838-0.25,2.633-0.751
				c0.793-0.5,1.428-1.268,1.901-2.302s0.711-2.325,0.711-3.874c0-1.454-0.237-2.706-0.711-3.754
				c-0.474-1.047-1.114-1.848-1.922-2.402c-0.808-0.554-1.691-0.83-2.652-0.83c-1.001,0-1.896,0.283-2.683,0.851
				c-0.788,0.567-1.398,1.381-1.832,2.442C141.892,16.566,141.675,17.798,141.675,19.199z"/>
			<path d="M179.32,27.268v-0.701c-0.654,0.828-1.341,1.521-2.062,2.082s-1.508,0.978-2.362,1.251
				c-0.854,0.273-1.829,0.411-2.923,0.411c-1.321,0-2.506-0.274-3.553-0.821c-1.048-0.547-1.859-1.302-2.433-2.263
				c-0.681-1.16-1.021-2.829-1.021-5.004V11.392c0-1.094,0.247-1.912,0.741-2.452c0.494-0.541,1.147-0.811,1.962-0.811
				c0.827,0,1.495,0.273,2.002,0.82c0.507,0.548,0.761,1.361,0.761,2.442v8.749c0,1.268,0.106,2.332,0.32,3.192
				c0.213,0.861,0.597,1.535,1.151,2.022c0.553,0.487,1.304,0.73,2.252,0.73c0.921,0,1.788-0.273,2.603-0.82
				c0.814-0.548,1.408-1.262,1.782-2.143c0.307-0.773,0.46-2.469,0.46-5.085v-6.646c0-1.081,0.253-1.895,0.761-2.442
				c0.507-0.547,1.167-0.82,1.982-0.82c0.814,0,1.468,0.27,1.962,0.811c0.494,0.54,0.741,1.358,0.741,2.452v15.835
				c0,1.041-0.237,1.822-0.711,2.343s-1.084,0.78-1.832,0.78c-0.748,0-1.365-0.27-1.852-0.811
				C179.563,28.999,179.32,28.241,179.32,27.268z"/>
			<path d="M194.703,5.586c-0.761,0-1.412-0.233-1.952-0.701c-0.541-0.467-0.811-1.127-0.811-1.981c0-0.773,0.277-1.411,0.831-1.912
				c0.554-0.5,1.198-0.751,1.932-0.751c0.707,0,1.334,0.228,1.882,0.682c0.547,0.453,0.821,1.114,0.821,1.981
				c0,0.841-0.267,1.498-0.801,1.972C196.071,5.35,195.437,5.586,194.703,5.586z M197.406,11.231v15.796
				c0,1.094-0.26,1.922-0.781,2.482s-1.181,0.84-1.982,0.84s-1.451-0.287-1.952-0.86c-0.5-0.573-0.75-1.395-0.75-2.462V11.392
				c0-1.081,0.25-1.895,0.75-2.442c0.501-0.547,1.151-0.82,1.952-0.82s1.461,0.273,1.982,0.82
				C197.146,9.497,197.406,10.258,197.406,11.231z"/>
			<path d="M210.066,11.151v0.661c0.961-1.269,2.012-2.199,3.153-2.793c1.142-0.594,2.453-0.891,3.934-0.891
				c1.441,0,2.729,0.313,3.864,0.94c1.134,0.628,1.982,1.515,2.542,2.663c0.36,0.667,0.594,1.388,0.701,2.162
				c0.106,0.773,0.16,1.762,0.16,2.963v10.17c0,1.094-0.25,1.922-0.751,2.482c-0.5,0.561-1.151,0.84-1.952,0.84
				c-0.814,0-1.475-0.287-1.982-0.86c-0.507-0.573-0.761-1.395-0.761-2.462v-9.109c0-1.802-0.25-3.18-0.751-4.134
				c-0.5-0.954-1.498-1.432-2.993-1.432c-0.975,0-1.862,0.29-2.663,0.871c-0.801,0.58-1.388,1.378-1.762,2.392
				c-0.267,0.814-0.4,2.336-0.4,4.564v6.848c0,1.107-0.257,1.938-0.771,2.492c-0.514,0.554-1.178,0.83-1.992,0.83
				c-0.788,0-1.435-0.287-1.942-0.86c-0.507-0.573-0.761-1.395-0.761-2.462V11.231c0-1.041,0.227-1.818,0.681-2.332
				c0.454-0.514,1.074-0.771,1.862-0.771c0.48,0,0.914,0.113,1.301,0.34c0.387,0.228,0.697,0.567,0.931,1.021
				C209.949,9.943,210.066,10.498,210.066,11.151z"/>
			<path d="M252.375,19.239c0,1.629-0.254,3.13-0.761,4.505c-0.507,1.374-1.241,2.556-2.202,3.543
				c-0.961,0.988-2.109,1.745-3.443,2.272c-1.335,0.526-2.836,0.79-4.504,0.79c-1.656,0-3.144-0.267-4.465-0.801
				c-1.321-0.533-2.466-1.297-3.434-2.292c-0.968-0.994-1.701-2.168-2.201-3.523c-0.502-1.354-0.752-2.853-0.752-4.494
				c0-1.654,0.254-3.17,0.762-4.544c0.506-1.375,1.234-2.55,2.182-3.523c0.947-0.975,2.096-1.726,3.443-2.253
				c1.348-0.526,2.836-0.79,4.465-0.79c1.654,0,3.156,0.267,4.504,0.801c1.348,0.533,2.502,1.294,3.463,2.281
				c0.961,0.988,1.691,2.162,2.193,3.523C252.125,16.096,252.375,17.598,252.375,19.239z M246.89,19.239
				c0-2.229-0.491-3.964-1.472-5.205s-2.299-1.862-3.953-1.862c-1.068,0-2.01,0.277-2.823,0.831
				c-0.814,0.555-1.441,1.372-1.882,2.452c-0.44,1.082-0.66,2.343-0.66,3.784c0,1.429,0.217,2.676,0.65,3.743
				c0.434,1.068,1.054,1.886,1.861,2.453s1.758,0.851,2.854,0.851c1.654,0,2.973-0.624,3.953-1.872
				C246.398,23.167,246.89,21.441,246.89,19.239z"/>
		</g>
	</g>
	<g>
		<g>
			<path fill="#606060" d="M12.458,14.486V26.99h7.055c0.562,0,0.994,0.137,1.295,0.41s0.451,0.617,0.451,1.031
				c0,0.422-0.148,0.764-0.445,1.025s-0.73,0.393-1.301,0.393H11.11c-0.758,0-1.303-0.168-1.635-0.504s-0.498-0.879-0.498-1.629
				v-13.23c0-0.703,0.158-1.23,0.475-1.582s0.732-0.527,1.248-0.527c0.523,0,0.947,0.174,1.271,0.521S12.458,13.775,12.458,14.486z"
				/>
			<path fill="#606060" d="M32.83,28.338v-0.41c-0.383,0.484-0.785,0.891-1.207,1.219s-0.883,0.572-1.383,0.732
				s-1.07,0.24-1.711,0.24c-0.773,0-1.467-0.16-2.08-0.48s-1.088-0.762-1.424-1.324c-0.398-0.68-0.598-1.656-0.598-2.93v-6.34
				c0-0.641,0.145-1.119,0.434-1.436s0.672-0.475,1.148-0.475c0.484,0,0.875,0.16,1.172,0.48s0.445,0.797,0.445,1.43v5.121
				c0,0.742,0.062,1.365,0.188,1.869s0.35,0.898,0.674,1.184s0.764,0.428,1.318,0.428c0.539,0,1.047-0.16,1.523-0.48
				s0.824-0.738,1.043-1.254c0.18-0.453,0.27-1.445,0.27-2.977v-3.891c0-0.633,0.148-1.109,0.445-1.43s0.684-0.48,1.16-0.48
				s0.859,0.158,1.148,0.475s0.434,0.795,0.434,1.436v9.27c0,0.609-0.139,1.066-0.416,1.371s-0.635,0.457-1.072,0.457
				s-0.799-0.158-1.084-0.475S32.83,28.908,32.83,28.338z"/>
			<path fill="#606060" d="M48.303,28.338c-0.773,0.602-1.521,1.053-2.244,1.354s-1.533,0.451-2.432,0.451
				c-0.82,0-1.541-0.162-2.162-0.486s-1.1-0.764-1.436-1.318s-0.504-1.156-0.504-1.805c0-0.875,0.277-1.621,0.832-2.238
				s1.316-1.031,2.285-1.242c0.203-0.047,0.707-0.152,1.512-0.316s1.494-0.314,2.068-0.451s1.197-0.303,1.869-0.498
				c-0.039-0.844-0.209-1.463-0.51-1.857s-0.924-0.592-1.869-0.592c-0.812,0-1.424,0.113-1.834,0.34s-0.762,0.566-1.055,1.02
				s-0.5,0.752-0.621,0.896s-0.381,0.217-0.779,0.217c-0.359,0-0.67-0.115-0.932-0.346S40.1,20.939,40.1,20.58
				c0-0.562,0.199-1.109,0.598-1.641s1.02-0.969,1.863-1.312s1.895-0.516,3.152-0.516c1.406,0,2.512,0.166,3.316,0.498
				s1.373,0.857,1.705,1.576s0.498,1.672,0.498,2.859c0,0.75-0.002,1.387-0.006,1.91s-0.01,1.105-0.018,1.746
				c0,0.602,0.1,1.229,0.299,1.881s0.299,1.072,0.299,1.26c0,0.328-0.154,0.627-0.463,0.896s-0.658,0.404-1.049,0.404
				c-0.328,0-0.652-0.154-0.973-0.463S48.663,28.924,48.303,28.338z M48.092,23.709c-0.469,0.172-1.15,0.354-2.045,0.545
				s-1.514,0.332-1.857,0.422s-0.672,0.266-0.984,0.527s-0.469,0.627-0.469,1.096c0,0.484,0.184,0.896,0.551,1.236
				s0.848,0.51,1.441,0.51c0.633,0,1.217-0.139,1.752-0.416s0.928-0.635,1.178-1.072c0.289-0.484,0.434-1.281,0.434-2.391V23.709z"
				/>
		</g>
	</g>
	<g>
		<g>
			<path fill="#606060" d="M296.75,27.26l-2.754-10.945v11.859c0,0.656-0.146,1.148-0.439,1.477s-0.682,0.492-1.166,0.492
				c-0.469,0-0.852-0.162-1.148-0.486s-0.445-0.818-0.445-1.482V14.58c0-0.75,0.195-1.256,0.586-1.518s0.918-0.393,1.582-0.393
				h1.078c0.648,0,1.119,0.059,1.412,0.176s0.51,0.328,0.65,0.633s0.301,0.801,0.48,1.488l2.496,9.41l2.496-9.41
				c0.18-0.688,0.34-1.184,0.48-1.488s0.357-0.516,0.65-0.633s0.764-0.176,1.412-0.176h1.078c0.664,0,1.191,0.131,1.582,0.393
				s0.586,0.768,0.586,1.518v13.594c0,0.656-0.146,1.148-0.439,1.477s-0.686,0.492-1.178,0.492c-0.461,0-0.84-0.164-1.137-0.492
				s-0.445-0.82-0.445-1.477V16.314l-2.754,10.945c-0.18,0.711-0.326,1.232-0.439,1.564s-0.322,0.635-0.627,0.908
				s-0.727,0.41-1.266,0.41c-0.406,0-0.75-0.088-1.031-0.264s-0.5-0.4-0.656-0.674s-0.279-0.576-0.369-0.908
				S296.844,27.619,296.75,27.26z"/>
			<path fill="#606060" d="M313.536,15.646c-0.445,0-0.826-0.137-1.143-0.41s-0.475-0.66-0.475-1.16
				c0-0.453,0.162-0.826,0.486-1.119s0.701-0.439,1.131-0.439c0.414,0,0.781,0.133,1.102,0.398s0.48,0.652,0.48,1.16
				c0,0.492-0.156,0.877-0.469,1.154S313.966,15.646,313.536,15.646z M315.118,18.951v9.246c0,0.641-0.152,1.125-0.457,1.453
				s-0.691,0.492-1.16,0.492s-0.85-0.168-1.143-0.504s-0.439-0.816-0.439-1.441v-9.152c0-0.633,0.146-1.109,0.439-1.43
				s0.674-0.48,1.143-0.48s0.855,0.16,1.16,0.48S315.118,18.381,315.118,18.951z"/>
			<path fill="#606060" d="M331.096,26.182c0,0.398-0.119,0.824-0.357,1.277s-0.602,0.885-1.09,1.295s-1.104,0.74-1.846,0.99
				s-1.578,0.375-2.508,0.375c-1.977,0-3.52-0.576-4.629-1.729s-1.664-2.697-1.664-4.635c0-1.312,0.254-2.473,0.762-3.48
				s1.242-1.787,2.203-2.338s2.109-0.826,3.445-0.826c0.828,0,1.588,0.121,2.279,0.363s1.277,0.555,1.758,0.938
				s0.848,0.791,1.102,1.225s0.381,0.838,0.381,1.213c0,0.383-0.143,0.707-0.428,0.973s-0.631,0.398-1.037,0.398
				c-0.266,0-0.486-0.068-0.662-0.205s-0.373-0.357-0.592-0.662c-0.391-0.594-0.799-1.039-1.225-1.336s-0.967-0.445-1.623-0.445
				c-0.945,0-1.707,0.369-2.285,1.107s-0.867,1.748-0.867,3.029c0,0.602,0.074,1.154,0.223,1.658s0.363,0.934,0.645,1.289
				s0.621,0.625,1.02,0.809s0.836,0.275,1.312,0.275c0.641,0,1.189-0.148,1.646-0.445s0.861-0.75,1.213-1.359
				c0.195-0.359,0.406-0.641,0.633-0.844s0.504-0.305,0.832-0.305c0.391,0,0.715,0.148,0.973,0.445S331.096,25.846,331.096,26.182z"
				/>
			<path fill="#606060" d="M338.26,25.525v2.672c0,0.648-0.152,1.135-0.457,1.459s-0.691,0.486-1.16,0.486
				c-0.461,0-0.84-0.164-1.137-0.492s-0.445-0.812-0.445-1.453v-8.906c0-1.438,0.52-2.156,1.559-2.156
				c0.531,0,0.914,0.168,1.148,0.504s0.363,0.832,0.387,1.488c0.383-0.656,0.775-1.152,1.178-1.488s0.939-0.504,1.611-0.504
				s1.324,0.168,1.957,0.504s0.949,0.781,0.949,1.336c0,0.391-0.135,0.713-0.404,0.967s-0.561,0.381-0.873,0.381
				c-0.117,0-0.4-0.072-0.85-0.217s-0.846-0.217-1.189-0.217c-0.469,0-0.852,0.123-1.148,0.369s-0.527,0.611-0.691,1.096
				s-0.277,1.061-0.34,1.729S338.26,24.564,338.26,25.525z"/>
			<path fill="#606060" d="M357.858,23.639c0,0.953-0.148,1.832-0.445,2.637s-0.727,1.496-1.289,2.074s-1.234,1.021-2.016,1.33
				s-1.66,0.463-2.637,0.463c-0.969,0-1.84-0.156-2.613-0.469s-1.443-0.76-2.01-1.342s-0.996-1.27-1.289-2.062
				s-0.439-1.67-0.439-2.631c0-0.969,0.148-1.855,0.445-2.66s0.723-1.492,1.277-2.062s1.227-1.01,2.016-1.318
				s1.66-0.463,2.613-0.463c0.969,0,1.848,0.156,2.637,0.469s1.465,0.758,2.027,1.336s0.99,1.266,1.283,2.062
				S357.858,22.678,357.858,23.639z M354.647,23.639c0-1.305-0.287-2.32-0.861-3.047s-1.346-1.09-2.314-1.09
				c-0.625,0-1.176,0.162-1.652,0.486s-0.844,0.803-1.102,1.436s-0.387,1.371-0.387,2.215c0,0.836,0.127,1.566,0.381,2.191
				s0.617,1.104,1.09,1.436s1.029,0.498,1.67,0.498c0.969,0,1.74-0.365,2.314-1.096S354.647,24.928,354.647,23.639z"/>
			<path fill="#606060" d="M368.469,23.158h-3.188v4.863c0,0.695-0.164,1.223-0.492,1.582s-0.742,0.539-1.242,0.539
				c-0.523,0-0.945-0.178-1.266-0.533s-0.48-0.877-0.48-1.564V14.803c0-0.766,0.176-1.312,0.527-1.641s0.91-0.492,1.676-0.492h4.465
				c1.32,0,2.336,0.102,3.047,0.305c0.703,0.195,1.311,0.52,1.822,0.973s0.9,1.008,1.166,1.664s0.398,1.395,0.398,2.215
				c0,1.75-0.539,3.076-1.617,3.979S370.602,23.158,368.469,23.158z M367.625,15.283h-2.344v5.25h2.344
				c0.82,0,1.506-0.086,2.057-0.258s0.971-0.453,1.26-0.844s0.434-0.902,0.434-1.535c0-0.758-0.223-1.375-0.668-1.852
				C370.207,15.537,369.18,15.283,367.625,15.283z"/>
			<path fill="#606060" d="M381.739,30.541l0.293-0.715l-3.938-9.914c-0.242-0.57-0.363-0.984-0.363-1.242
				c0-0.273,0.07-0.527,0.211-0.762s0.334-0.422,0.58-0.562s0.502-0.211,0.768-0.211c0.461,0,0.809,0.146,1.043,0.439
				s0.441,0.713,0.621,1.26l2.707,7.875l2.566-7.324c0.203-0.594,0.387-1.059,0.551-1.395s0.338-0.562,0.521-0.68
				s0.443-0.176,0.779-0.176c0.242,0,0.475,0.064,0.697,0.193s0.395,0.303,0.516,0.521s0.182,0.449,0.182,0.691
				c-0.031,0.148-0.082,0.359-0.152,0.633s-0.156,0.551-0.258,0.832l-4.172,10.922c-0.359,0.961-0.711,1.715-1.055,2.262
				s-0.799,0.967-1.365,1.26s-1.33,0.439-2.291,0.439c-0.938,0-1.641-0.102-2.109-0.305s-0.703-0.574-0.703-1.113
				c0-0.367,0.111-0.65,0.334-0.85s0.553-0.299,0.99-0.299c0.172,0,0.34,0.023,0.504,0.07c0.203,0.047,0.379,0.07,0.527,0.07
				c0.367,0,0.656-0.055,0.867-0.164s0.4-0.299,0.568-0.568S381.521,31.064,381.739,30.541z"/>
			<path fill="#606060" d="M393.17,17.416h0.352v-1.922c0-0.516,0.014-0.92,0.041-1.213s0.104-0.545,0.229-0.756
				c0.125-0.219,0.305-0.396,0.539-0.533s0.496-0.205,0.785-0.205c0.406,0,0.773,0.152,1.102,0.457
				c0.219,0.203,0.357,0.451,0.416,0.744s0.088,0.709,0.088,1.248v2.18h1.172c0.453,0,0.799,0.107,1.037,0.322
				s0.357,0.49,0.357,0.826c0,0.43-0.17,0.73-0.51,0.902s-0.826,0.258-1.459,0.258h-0.598v5.883c0,0.5,0.018,0.885,0.053,1.154
				s0.129,0.488,0.281,0.656s0.4,0.252,0.744,0.252c0.188,0,0.441-0.033,0.762-0.1s0.57-0.1,0.75-0.1
				c0.258,0,0.49,0.104,0.697,0.311s0.311,0.463,0.311,0.768c0,0.516-0.281,0.91-0.844,1.184s-1.371,0.41-2.426,0.41
				c-1,0-1.758-0.168-2.273-0.504s-0.854-0.801-1.014-1.395s-0.24-1.387-0.24-2.379v-6.141H393.1c-0.461,0-0.812-0.109-1.055-0.328
				s-0.363-0.496-0.363-0.832s0.127-0.611,0.381-0.826S392.686,17.416,393.17,17.416z"/>
			<path fill="#606060" d="M405.818,14.322v4.746c0.406-0.469,0.803-0.84,1.189-1.113s0.814-0.479,1.283-0.615
				s0.973-0.205,1.512-0.205c0.812,0,1.533,0.172,2.162,0.516s1.123,0.844,1.482,1.5c0.227,0.383,0.379,0.811,0.457,1.283
				s0.117,1.018,0.117,1.635v6.129c0,0.641-0.146,1.125-0.439,1.453s-0.682,0.492-1.166,0.492c-1.055,0-1.582-0.648-1.582-1.945
				v-5.402c0-1.023-0.152-1.811-0.457-2.361s-0.883-0.826-1.734-0.826c-0.57,0-1.084,0.162-1.541,0.486s-0.799,0.768-1.025,1.33
				c-0.172,0.477-0.258,1.324-0.258,2.543v4.23c0,0.633-0.143,1.115-0.428,1.447s-0.682,0.498-1.189,0.498
				c-1.055,0-1.582-0.648-1.582-1.945V14.322c0-0.648,0.139-1.135,0.416-1.459s0.666-0.486,1.166-0.486
				c0.508,0,0.904,0.164,1.189,0.492S405.818,13.682,405.818,14.322z"/>
			<path fill="#606060" d="M430.362,23.639c0,0.953-0.148,1.832-0.445,2.637s-0.727,1.496-1.289,2.074s-1.234,1.021-2.016,1.33
				s-1.66,0.463-2.637,0.463c-0.969,0-1.84-0.156-2.613-0.469s-1.443-0.76-2.01-1.342s-0.996-1.27-1.289-2.062
				s-0.439-1.67-0.439-2.631c0-0.969,0.148-1.855,0.445-2.66s0.723-1.492,1.277-2.062s1.227-1.01,2.016-1.318
				s1.66-0.463,2.613-0.463c0.969,0,1.848,0.156,2.637,0.469s1.465,0.758,2.027,1.336s0.99,1.266,1.283,2.062
				S430.362,22.678,430.362,23.639z M427.151,23.639c0-1.305-0.287-2.32-0.861-3.047s-1.346-1.09-2.314-1.09
				c-0.625,0-1.176,0.162-1.652,0.486s-0.844,0.803-1.102,1.436s-0.387,1.371-0.387,2.215c0,0.836,0.127,1.566,0.381,2.191
				s0.617,1.104,1.09,1.436s1.029,0.498,1.67,0.498c0.969,0,1.74-0.365,2.314-1.096S427.151,24.928,427.151,23.639z"/>
			<path fill="#606060" d="M436.988,18.904v0.387c0.562-0.742,1.178-1.287,1.846-1.635s1.436-0.521,2.303-0.521
				c0.844,0,1.598,0.184,2.262,0.551s1.16,0.887,1.488,1.559c0.211,0.391,0.348,0.812,0.41,1.266s0.094,1.031,0.094,1.734v5.953
				c0,0.641-0.146,1.125-0.439,1.453s-0.674,0.492-1.143,0.492c-0.477,0-0.863-0.168-1.16-0.504s-0.445-0.816-0.445-1.441v-5.332
				c0-1.055-0.146-1.861-0.439-2.42s-0.877-0.838-1.752-0.838c-0.57,0-1.09,0.17-1.559,0.51s-0.812,0.807-1.031,1.4
				c-0.156,0.477-0.234,1.367-0.234,2.672v4.008c0,0.648-0.15,1.135-0.451,1.459s-0.689,0.486-1.166,0.486
				c-0.461,0-0.84-0.168-1.137-0.504s-0.445-0.816-0.445-1.441v-9.246c0-0.609,0.133-1.064,0.398-1.365s0.629-0.451,1.09-0.451
				c0.281,0,0.535,0.066,0.762,0.199s0.408,0.332,0.545,0.598S436.988,18.521,436.988,18.904z"/>
		</g>
	</g>
</g>
</svg>
