<?xml version="1.0" encoding="utf-8"?>
<!-- Generator: Adobe Illustrator 16.0.0, SVG Export Plug-In . SVG Version: 6.00 Build 0)  -->
<!DOCTYPE svg PUBLIC "-//W3C//DTD SVG 1.1//EN" "http://www.w3.org/Graphics/SVG/1.1/DTD/svg11.dtd">
<svg version="1.1" id="Layer_1" xmlns="http://www.w3.org/2000/svg" xmlns:xlink="http://www.w3.org/1999/xlink" x="0px" y="0px"
	 width="252.002px" height="59.21px" viewBox="0 0 252.002 59.21" enable-background="new 0 0 252.002 59.21" xml:space="preserve">
<g>
	<path fill="#231F20" d="M21.287,1.289v56.824H0V1.289H21.287z M9.483,17.738h2.707v-7.16H9.483V17.738z M9.483,33.281h2.707V25.09
		H9.483V33.281z M12.19,40.506H9.483v8.062h2.707V40.506z M50.762,46.245l1.354,2.71h6.387V59.21H44.312l-3.805-8.257l-0.259,8.257
		l-17.865-0.001V1.031H56.89v32.572H33.864v1.031h11.028l3.289,6.58l0.839-6.645h9.031l-1.419,11.675H50.762z M33.864,9.933v3.935
		h11.222V9.933H33.864z M45.086,25.025v-3.354H33.864v3.354H45.086z M33.864,36.636v12.706h5.868L33.864,36.636z"/>
	<path fill="#231F20" d="M83.206,31.605H79.98v15.609h2.968v11.479H63.533V47.215h4.515V31.605h-3.741V20.769h3.741v-9.545h-4.128
		V0.773H83.27v10.45h-3.29v9.545h3.226V31.605z M97.396,15.416H84.495V4.708h12.901V0h12.19v4.708h1.613l-0.387-3.612h9.867
		l0.39,3.612h2.127v10.708h-13.61v16.576h10.384l2.001,14.897h1.096v12.191h-11.03l-2.451-23.928v23.992H95.912l-0.387-9.288
		l-0.902,9.224h-11.03V46.89h1.355l1.742-14.897h10.707L95.847,46.89h1.548V15.416z M84.366,16.641H94.88l1.547,13.803H85.916
		L84.366,16.641z M120.937,30.444h-10.512l1.547-13.803h10.515L120.937,30.444z"/>
	<path fill="#231F20" d="M127.968,58.759v-9.03h2.646V36.636h54.826v13.093h2.32v9.03H127.968z M187.954,21.22h-5.031v14.127
		h-50.439V21.22h-4.386V10.642H131L138.612,0h38.572l7.998,10.642h2.771V21.22z M144.286,18.253v-3.806l-3.352,4.709h34.248
		l-3.547-4.516v3.612H144.286z M142.094,49.729h4.193v-5.095h-4.193V49.729z M170.475,25.865h-26.189v2.773h26.189V25.865z
		 M146.417,11.417h22.641L167.7,9.675h-19.994L146.417,11.417z M156.348,49.729h3.289v-5.095h-3.289V49.729z M169.637,44.634v5.095
		h4.191v-5.095H169.637z"/>
	<path fill="#231F20" d="M231.105,36.7v22.381h-24.897l-0.58-11.802h10.189V36.7h-23.414V23.736h23.414v-3.612l11.225-8.578h-30.188
		V0.709h52.632v10.644l-16.898,12.384h19.415V36.7H231.105z"/>
</g>
</svg>
