<?xml version="1.0" encoding="utf-8"?>
<!-- Generator: Adobe Illustrator 16.0.0, SVG Export Plug-In . SVG Version: 6.00 Build 0)  -->
<!DOCTYPE svg PUBLIC "-//W3C//DTD SVG 1.1//EN" "http://www.w3.org/Graphics/SVG/1.1/DTD/svg11.dtd">
<svg version="1.1" id="Layer_1" xmlns="http://www.w3.org/2000/svg" xmlns:xlink="http://www.w3.org/1999/xlink" x="0px" y="0px"
	 width="841.889px" height="595.281px" viewBox="0 0 841.889 595.281" enable-background="new 0 0 841.889 595.281"
	 xml:space="preserve">
<g>
	<path fill="#0995FF" d="M259.913,268.604c-56.014-19.003-89.021,2-90.021,3.001c-7.001,4.001-8.999,14.002-5,21.005
		c3.001,5.002,8.003,7.003,13.001,7.003c3,0,5.002-1.002,8.002-2.001c1.002-1.003,23.005-13.005,64.015,1
		c8.001,3.001,17.004-2.001,19.004-10.004C271.914,280.608,267.913,271.606,259.913,268.604z"/>
	<path fill="#0995FF" d="M653.99,297.613c3.001,0.999,5.002,2.001,8.002,2.001c4.999,0,10-2.001,13.001-7.003
		c4-7.003,2.002-17.004-5-21.005c-1-1.002-34.006-22.005-90.019-3.001c-8.001,3.001-12.003,12.003-9.002,20.005
		c2,8.003,11.003,13.005,19.004,10.004C630.987,284.608,652.99,296.61,653.99,297.613z"/>
	<path fill="#0995FF" d="M680.994,197.591c10.006-22.005,11.003-45.01,3.003-66.014c-15.006-43.009-60.015-69.015-77.018-77.017
		c-11-27.006-33.003-44.008-64.01-50.008c-41.011-8.004-86.021,8.001-112.023,41.006l-11.002,14.005l-11.002-14.005
		c-26.005-33.006-71.014-49.01-112.023-41.006c-31.005,6-53.01,23.003-64.011,50.009c-17.007,8.002-62.015,34.008-77.02,77.017
		c-8.001,21.004-7.002,44.009,3.001,66.014c-38.779,35.217-68.015,96.021-33.007,150.029
		c-19.004,41.012-29.006,115.026,40.01,156.034c11.001,15.004,57.01,76.017,126.026,67.018c11.001,7,34.005,20.001,61.012,20.001
		c5.003,0,11.002-0.998,16.004-2c21.003-5.001,37.006-18.001,50.01-39.008c0.326,0.528,0.666,1.03,0.997,1.551v0.001l0,0l0,0v-0.001
		c0.332-0.521,0.67-1.021,0.997-1.551c13.004,21.007,29.007,34.007,50.01,39.008c5.003,1.002,11.001,2,16.005,2
		c27.008,0,50.012-13.001,61.013-20.001c69.018,8.999,115.024-52.014,126.024-67.018c69.019-41.008,59.016-115.022,40.013-156.034
		C749.012,293.612,720.445,234.14,680.994,197.591z M404.939,520.658h-0.997c-3,0.999-5.001,3-5.999,6
		c-9.003,18.002-21.005,29.006-35.008,32.005c-27.005,6.001-57.012-16.002-57.012-17.003c-3-3.001-8.001-4.002-12.002-3.001
		c-22.007,4.002-42.008-2.001-59.017-12.002c4.001-9.004,9.004-16.005,16.006-20.005c16.004-9.001,25.999-2,26.995-2
		c8.005,3,17.007-1,20.006-9.001c3-8.003-1.002-17.004-9.003-20.004c-1-1.002-22.995-12.004-52,3.001
		c-11.002,6-19.006,15.003-26.008,27.006c-10.002-9.003-16.002-18.003-19.004-22.006c-6-27.006,6.002-42.009,6.002-43.007
		c6-6.003,5-16.005-1.002-22.006c-5.999-2.001-16.004-2.001-22.005,4c-1.001,1-12.004,14.004-15.004,36.006
		c-26.005-31.007-17.003-70.016-10.002-91.019c13,7.002,33.008,14.002,53.011,14.002c12.003,0,24.006-3,35.008-10.002
		c7.001-5.004,9.001-14.004,4-21.006c-5.002-7.002-14.004-9.002-21.006-4.001c-19.003,13.002-53.009-3.001-67.011-12.003
		C114.881,281.602,171.884,226.6,176.885,221.6c9.059-7.459,44.03-20.016,75.036-7.01c2,1,4.001,1,6.002,1
		c5.999,0,12.001-4,14.003-9.003c3-8.002,0-17.003-8.005-20.002c-27.004-11.001-66.027-10.004-79.03-6.001
		c-4.001-13-5-26.006,0-39.008c8.002-22.005,28.006-39.006,44.009-50.008l-3.004,22.004c0,8.002,6.002,16.002,15.005,16.002
		c0,0,0,0,1,0c8.005,0,15.007-5.999,15.007-15.003l4.002-46.009c6-19.005,20.003-30.006,42.009-34.008
		c30.005-5.999,64.011,6.002,82.017,30.007l20.005,25.005L404.939,520.658L404.939,520.658z M601.984,371.623
		c11.003,7.002,23.006,10.002,35.01,10.002c20.002,0,40.01-7,53.012-14.002c7.001,21.005,16.003,60.014-10.002,91.021
		c-3.001-22.002-14.005-35.006-15.008-36.006c-6-6.001-16.005-6.001-22.005-4c-6.001,6.001-7.001,16.003-1.001,22.006
		c0,0.998,12.003,16.001,6.001,43.007c-3.001,4.003-9.001,13.003-19.003,22.006c-7.002-12.003-15.006-21.006-26.006-27.006
		c-29.005-15.005-51.001-4.003-52.003-3.001c-8,3-12.002,12.001-9.002,20.004c3,8.001,12.001,12.001,20.005,9.001
		c0.997,0,10.993-7.001,26.996,2c7.002,4,12.005,11.001,16.005,20.005c-17.006,10.001-37.009,16.004-59.015,12.002
		c-4.001-1.001-9.002,0-12.002,3.001c0,1.001-30.007,23.004-57.014,17.003c-14.003-2.999-26.006-14.003-35.009-32.005
		c-0.997-3-2.999-5.001-5.999-6h-0.997V89.568l20.005-25.005c18.007-24.004,52.013-36.006,82.019-30.007
		c22.006,4.001,36.009,15.003,42.009,34.008l4.002,46.009c0,9.004,7.002,15.003,15.005,15.003c1.001,0,1.001,0,1.001,0
		c9.003,0,15.004-8,15.004-16.002l-3.003-22.004c16.002,11.002,36.008,28.003,44.01,50.008c5,13.002,4.002,26.007,0,39.008
		c-13.004-4.003-52.025-5-79.03,6.001c-8.003,2.999-11.003,12-8.003,20.002c2.001,5.003,8.003,9.002,14.002,9.002
		c2.001,0,4.001,0,6.003-1c31.006-13.005,68.476-0.949,75.034,7.01c5.002,5,62.008,60.004,22.999,113.015
		c-14.003,9.002-48.01,25.005-67.013,12.003c-7.002-5.001-16.004-3.001-21.006,4.001S594.984,366.621,601.984,371.623z"/>
</g>
<path fill="#0995FF" d="M301.943,128.537c-12.783,14.382-18.077,34.511-14.714,57.813c0.926,8.193,8.408,13.938,17.542,12.665
	c0.938-0.352,1.874-0.699,2.812-1.051c6.559-2.448,10.429-9.232,9.857-16.492c-2.438-15.106,0.033-25.639,7.656-33.822
	c11.844-14.032,34.906-15.17,35.844-15.521c8.546,0.013,15.577-6.885,15.588-15.429c0.015-8.547-6.885-15.579-15.43-15.591
	C359.573,102.746,323.516,103.398,301.943,128.537z"/>
<path fill="#0995FF" d="M540.003,358.608c-7,4-10.001,14.002-5.001,21.004c0,0,22.007,35.007,2.999,49.011
	c-5.999,6.004-7.002,15.002-1.998,22.005c3,4,8,6.002,12.006,6.002c4.003,0,7-1.001,10.002-3.001
	c31.006-26.008,17.002-69.016,3-90.021C557.011,356.607,547.006,353.607,540.003,358.608z"/>
<path fill="#0995FF" d="M271.641,363.608c-14.002,21.005-28.006,64.013,3,90.021c3.002,2,5.999,3.001,10.002,3.001
	c4.006,0,9.006-2.002,12.006-6.002c5.004-7.003,4.001-16.001-1.998-22.005c-19.008-14.004,2.999-49.011,2.999-49.011
	c5-7.002,1.999-17.004-5.001-21.004C285.645,353.607,275.641,356.607,271.641,363.608z"/>
<g>
	
		<path fill="#FFFFFF" stroke="#FFFFFF" stroke-width="10.5977" stroke-linecap="round" stroke-linejoin="round" stroke-miterlimit="10" d="
		M314.961,536.401c-4.524,0-9.089-1.134-13.262-3.485c-11.428-6.441-16.581-20.156-12.227-32.53l55.498-157.666h-29.995
		c-9.438,0-18.194-4.923-23.1-12.986c-4.904-8.065-5.249-18.104-0.908-26.485L404.821,83.434
		c4.646-8.97,13.906-14.602,24.009-14.602h116.116c9.553,0,18.396,5.04,23.264,13.26c4.868,8.221,5.034,18.398,0.443,26.775
		l-75.57,137.83h15.61c10.457,0,19.979,6.031,24.445,15.488c4.467,9.455,3.08,20.64-3.561,28.717L335.86,526.533
		C330.571,532.967,322.83,536.401,314.961,536.401z"/>
	<g>
		<path fill="#0995FF" d="M314.969,522.126c-2.136,0-4.292-0.535-6.261-1.646c-5.394-3.04-7.827-9.516-5.771-15.354l62.191-176.682
			h-50.153c-4.455,0-8.589-2.324-10.904-6.13c-2.316-3.807-2.478-8.546-0.43-12.502L417.495,89.997
			c2.194-4.235,6.563-6.894,11.333-6.894h49.277c33.07,0,66.615,3.107,68.028,3.239c4.278,0.401,8.068,2.927,10.083,6.723
			c2.014,3.796,1.984,8.35-0.082,12.118l-86.517,157.797l38.412-1.996c5.067-0.263,9.779,2.482,12.055,6.996
			c2.278,4.516,1.676,9.949-1.533,13.854l-193.719,235.63C322.335,520.505,318.683,522.126,314.969,522.126z M335.958,302.922
			h47.192c4.139,0,8.022,2.008,10.416,5.387c2.393,3.378,2.997,7.706,1.623,11.611l-44.183,125.523l129.456-157.465l-32.373,1.683
			c-4.641,0.237-9.011-2.042-11.471-5.961c-2.459-3.919-2.606-8.863-0.381-12.919l88-160.504
			c-12.554-0.81-29.562-1.646-46.129-1.646h-41.516L335.958,302.922z"/>
	</g>
</g>
</svg>
