<?xml version="1.0" encoding="utf-8"?>
<!-- Generator: Adobe Illustrator 16.0.0, SVG Export Plug-In . SVG Version: 6.00 Build 0)  -->
<!DOCTYPE svg PUBLIC "-//W3C//DTD SVG 1.1//EN" "http://www.w3.org/Graphics/SVG/1.1/DTD/svg11.dtd">
<svg version="1.1" id="Layer_1" xmlns="http://www.w3.org/2000/svg" xmlns:xlink="http://www.w3.org/1999/xlink" x="0px" y="0px"
	 width="841.889px" height="595.281px" viewBox="0 0 841.889 595.281" enable-background="new 0 0 841.889 595.281"
	 xml:space="preserve">
<g>
	<g>
		<g>
			<path fill="#0995FF" d="M425.74,0C227.63,0,128.573,103.018,128.573,297.167c0,200.094,99.057,297.168,297.166,297.168
				c196.131,0,297.166-95.095,297.166-297.168C722.902,101.037,623.851,0,425.74,0z M425.74,564.618
				c-182.262,0-267.447-85.19-267.447-267.452c0-180.281,87.167-267.45,267.447-267.45c180.278,0,267.451,87.168,267.451,267.45
				C693.187,479.427,607.998,564.618,425.74,564.618z"/>
		</g>
	</g>
	<g>
		<g>
			<ellipse fill="#0995FF" cx="277.156" cy="326.885" rx="29.717" ry="14.528"/>
		</g>
	</g>
	<g>
		<g>
			<ellipse fill="#0995FF" cx="574.323" cy="326.885" rx="29.717" ry="14.528"/>
		</g>
	</g>
	<g>
		<g>
			<path fill="#0995FF" d="M530.074,371.126H380.834h-59.433c-7.925,0-14.528,6.607-14.528,14.529
				c0,7.925,6.603,14.528,14.528,14.528h59.433v44.91c0,40.939,33.017,73.961,73.96,73.961s73.963-33.021,73.963-73.961v-44.91
				c7.925,0,14.529-6.605,14.529-14.529C543.284,377.732,538,371.126,530.074,371.126z M499.698,445.749
				c0,24.436-19.809,44.906-44.903,44.906c-25.094,0-44.906-19.812-44.906-44.906v-44.904h89.152v44.904H499.698z"/>
		</g>
	</g>
	<g>
		<g>
			<path fill="#0995FF" d="M306.872,178.299c-16.51,0-29.717,13.208-29.717,29.719v59.433c0,16.51,13.206,29.717,29.717,29.717
				c16.509,0,29.715-13.206,29.715-29.717v-59.433C336.589,191.508,323.382,178.299,306.872,178.299z"/>
		</g>
	</g>
	<g>
		<g>
			<path fill="#0995FF" d="M544.603,178.299c-16.507,0-29.716,13.208-29.716,29.719v59.433c0,16.51,13.207,29.717,29.716,29.717
				c16.51,0,29.72-13.206,29.72-29.717v-59.433C574.323,191.508,561.114,178.299,544.603,178.299z"/>
		</g>
	</g>
</g>
</svg>
