<?xml version="1.0" encoding="utf-8"?>
<!-- Generator: Adobe Illustrator 16.0.0, SVG Export Plug-In . SVG Version: 6.00 Build 0)  -->
<!DOCTYPE svg PUBLIC "-//W3C//DTD SVG 1.1//EN" "http://www.w3.org/Graphics/SVG/1.1/DTD/svg11.dtd">
<svg version="1.1" id="Layer_1" xmlns="http://www.w3.org/2000/svg" xmlns:xlink="http://www.w3.org/1999/xlink" x="0px" y="0px"
	 width="841.889px" height="595.281px" viewBox="0 0 841.889 595.281" enable-background="new 0 0 841.889 595.281"
	 xml:space="preserve">
<path fill="#0995FF" d="M422.975,280.698L221.418,81.258l7.325-21.857l-77.548-45.344L130.96,34.292l45.345,77.549l23.271-5.912
	l200.027,198.025l-62.084,62.201l23.258,23.259L380.89,369.3l1.729,1.101l198.634,198.631
	c29.666,29.666,77.763,29.666,107.429,0.001c29.666-29.667,29.666-77.767,0-107.433L488.695,261.611l0,0l19.738-19.738
	l-23.26-23.374L422.975,280.698z M665.93,546.28c-15.622,15.62-43.774,15.62-59.396-0.001L405.238,344.982l59.425-59.366
	L665.93,486.882C681.553,502.503,681.552,530.659,665.93,546.28z"/>
<g>
	<path fill="#0995FF" d="M383.837,399.745L237.683,545.901c-15.622,15.62-43.776,15.62-59.397-0.001
		c-15.622-15.621-15.622-43.775-0.001-59.396l185.549-185.547l-24.019-24.019L155.535,461.22
		c-29.666,29.666-29.666,77.765,0,107.431s77.765,29.666,107.431,0l144.889-144.89L383.837,399.745z"/>
	<path fill="#0995FF" d="M720.012,96.838l-75.023,75.024l-47.476-24.649l-24.649-47.476l75.543-75.542
		C590.731-4.105,519.083,5.713,471.123,53.673c-36.637,36.637-51.02,87.096-43.155,134.589l-29.447,29.447l24.018,24.017
		l15.917-15.918l28.33-28.329c-13.011-40.661-3.387-86.996,28.881-119.263c23.096-23.093,56.223-34.586,86.489-34.487
		l-50.301,50.302l39.842,78.755l80.93,42.304l45.283-45.283c-1.623,27.796-11.633,56.543-32.871,77.78
		c-25.354,25.355-60.808,36.725-93.956,34.124l-0.001,35.376c42.563,2.543,85.979-12.437,118.499-44.958
		C736.992,224.719,747.125,154.161,720.012,96.838z"/>
</g>
</svg>
