<?xml version="1.0" encoding="utf-8"?>
<!-- Generator: Adobe Illustrator 16.0.0, SVG Export Plug-In . SVG Version: 6.00 Build 0)  -->
<!DOCTYPE svg PUBLIC "-//W3C//DTD SVG 1.1//EN" "http://www.w3.org/Graphics/SVG/1.1/DTD/svg11.dtd">
<svg version="1.1" id="Layer_1" xmlns="http://www.w3.org/2000/svg" xmlns:xlink="http://www.w3.org/1999/xlink" x="0px" y="0px"
	 width="293.645px" height="150px" viewBox="0 0 293.645 150" enable-background="new 0 0 293.645 150" xml:space="preserve">
<g>
	<g opacity="0.4">
		<g>
			<g>
				<path fill="#00AEEF" d="M119.146,140.943h6.705v1.744h-4.771v1.805h4.198v1.743h-4.198v1.871h4.833v1.744h-6.767
					L119.146,140.943L119.146,140.943z"/>
				<path fill="#00AEEF" d="M130.849,149.974c-0.678,0-1.344-0.116-1.997-0.349s-1.247-0.592-1.78-1.075l1.157-1.388
					c0.407,0.33,0.824,0.593,1.253,0.788c0.428,0.196,0.896,0.293,1.405,0.293c0.407,0,0.724-0.076,0.947-0.224
					c0.225-0.147,0.338-0.354,0.338-0.616v-0.024c0-0.128-0.022-0.239-0.07-0.34c-0.047-0.096-0.137-0.187-0.268-0.271
					c-0.132-0.084-0.314-0.171-0.548-0.257c-0.235-0.082-0.54-0.173-0.913-0.266c-0.449-0.11-0.857-0.231-1.225-0.369
					c-0.365-0.138-0.675-0.303-0.931-0.502c-0.254-0.2-0.452-0.448-0.592-0.743c-0.141-0.299-0.21-0.668-0.21-1.109v-0.024
					c0-0.408,0.075-0.773,0.227-1.102c0.152-0.325,0.365-0.608,0.639-0.843c0.273-0.239,0.601-0.423,0.98-0.548
					c0.381-0.127,0.799-0.192,1.258-0.192c0.652,0,1.254,0.1,1.8,0.293c0.547,0.196,1.05,0.477,1.506,0.84l-1.016,1.478
					c-0.398-0.274-0.788-0.486-1.171-0.644c-0.38-0.157-0.763-0.235-1.144-0.235c-0.382,0-0.669,0.076-0.86,0.224
					c-0.189,0.147-0.285,0.331-0.285,0.554v0.024c0,0.145,0.027,0.271,0.082,0.378c0.056,0.105,0.155,0.199,0.3,0.284
					c0.146,0.086,0.344,0.166,0.593,0.241c0.252,0.076,0.568,0.165,0.951,0.268c0.452,0.118,0.853,0.252,1.207,0.4
					c0.353,0.147,0.649,0.327,0.893,0.535c0.241,0.207,0.426,0.451,0.548,0.731c0.124,0.28,0.186,0.615,0.186,1.005v0.025
					c0,0.441-0.079,0.834-0.24,1.177c-0.159,0.343-0.383,0.632-0.669,0.866c-0.288,0.231-0.629,0.411-1.027,0.533
					C131.773,149.914,131.332,149.974,130.849,149.974z"/>
				<path fill="#00AEEF" d="M137.886,142.749h-2.71v-1.807h7.378v1.807h-2.71v7.099h-1.959L137.886,142.749L137.886,142.749z"/>
				<path fill="#00AEEF" d="M143.776,147.812h2.047v2.036h-2.047V147.812z"/>
				<path fill="#00AEEF" d="M151.064,148.299l2.965-2.427c0.279-0.229,0.517-0.435,0.712-0.614c0.195-0.184,0.354-0.356,0.479-0.524
					c0.123-0.163,0.212-0.325,0.267-0.48c0.054-0.155,0.083-0.329,0.083-0.514c0-0.382-0.109-0.67-0.331-0.864
					c-0.221-0.194-0.509-0.292-0.865-0.292c-0.349,0-0.655,0.098-0.922,0.292c-0.269,0.196-0.568,0.496-0.898,0.905l-1.374-1.106
					c0.221-0.3,0.444-0.566,0.669-0.796c0.224-0.229,0.466-0.424,0.724-0.582c0.26-0.159,0.546-0.279,0.861-0.361
					c0.313-0.078,0.669-0.122,1.068-0.122c0.458,0,0.873,0.066,1.251,0.198s0.699,0.316,0.968,0.552
					c0.268,0.239,0.474,0.527,0.623,0.867c0.147,0.339,0.223,0.718,0.223,1.134v0.024c0,0.374-0.048,0.707-0.146,1
					c-0.098,0.291-0.243,0.567-0.432,0.826c-0.19,0.26-0.436,0.518-0.732,0.776c-0.299,0.259-0.641,0.539-1.03,0.845l-1.451,1.12
					h3.881v1.692h-6.59V148.299z"/>
				<path fill="#00AEEF" d="M162.998,150c-0.593,0-1.136-0.116-1.622-0.35s-0.902-0.557-1.246-0.966
					c-0.343-0.413-0.608-0.897-0.795-1.457c-0.188-0.561-0.278-1.161-0.278-1.806v-0.027c0-0.645,0.093-1.245,0.284-1.806
					c0.189-0.559,0.46-1.047,0.808-1.463s0.765-0.742,1.254-0.979c0.487-0.238,1.028-0.355,1.622-0.355
					c0.585,0,1.12,0.116,1.61,0.347c0.487,0.236,0.902,0.557,1.244,0.968c0.345,0.411,0.611,0.896,0.803,1.458
					c0.19,0.559,0.285,1.161,0.285,1.805v0.024c0,0.644-0.095,1.247-0.285,1.808c-0.191,0.559-0.461,1.048-0.808,1.463
					c-0.35,0.415-0.766,0.741-1.254,0.979C164.134,149.882,163.592,150,162.998,150z M163.021,148.232
					c0.298,0,0.563-0.07,0.803-0.209c0.237-0.14,0.441-0.335,0.611-0.585c0.169-0.249,0.299-0.548,0.387-0.89
					c0.09-0.344,0.135-0.72,0.135-1.126v-0.027c0-0.406-0.048-0.781-0.141-1.125c-0.094-0.344-0.227-0.643-0.402-0.896
					c-0.174-0.255-0.381-0.453-0.622-0.599c-0.243-0.143-0.508-0.217-0.796-0.217c-0.299,0-0.565,0.071-0.803,0.211
					c-0.238,0.14-0.438,0.335-0.604,0.584c-0.165,0.251-0.294,0.546-0.387,0.891s-0.141,0.72-0.141,1.126v0.024
					c0,0.406,0.048,0.786,0.141,1.134c0.093,0.347,0.224,0.646,0.394,0.895c0.171,0.252,0.375,0.449,0.618,0.595
					C162.457,148.159,162.727,148.232,163.021,148.232z"/>
				<path fill="#00AEEF" d="M169.919,142.865l-1.552,0.38l-0.408-1.603l2.558-0.764h1.338v8.969h-1.935L169.919,142.865
					L169.919,142.865z"/>
				<path fill="#00AEEF" d="M178.088,147.927h-4.352l-0.319-1.387l4.887-5.661h1.652v5.458h1.196v1.59h-1.196v1.921h-1.868V147.927z
					 M178.088,146.337v-2.772l-2.367,2.772H178.088z"/>
			</g>
			<polygon fill="#00AEEF" points="32.181,145.54 65.99,144.759 99.797,143.977 99.797,145.54 99.797,147.105 65.99,146.323 			"/>
			<polygon fill="#00AEEF" points="266.602,145.542 232.791,146.324 198.984,147.105 198.984,145.542 198.984,143.977 
				232.791,144.759 			"/>
		</g>
		<g>
			<path fill="#00AEEF" d="M230.606,67.49h-12.034V45.224l-2.968-0.601c-0.147-0.029-7.038-1.408-17.858-2.893l2.591-4.737
				c1.254,0.335,2.549,0.511,3.845,0.511c0.002,0,0,0,0.002,0c5.483,0,10.521-2.987,13.149-7.795
				c3.963-7.245,1.29-16.362-5.954-20.323c-2.201-1.204-4.682-1.839-7.175-1.839c-5.484,0-10.521,2.987-13.15,7.794
				c-3.372,6.167-1.926,13.68,3.046,18.225l-3.935,7.195c-11.522-1.365-25.907-2.587-40.903-2.662l-1.388-0.003
				c-14.874,0-29.073,1.231-40.38,2.623l-3.91-7.151c4.97-4.544,6.417-12.059,3.044-18.225C104,10.536,98.959,7.549,93.479,7.549
				c-2.495,0-4.977,0.634-7.175,1.838c-3.51,1.92-6.062,5.09-7.187,8.929c-1.124,3.839-0.687,7.886,1.232,11.396
				c2.628,4.807,7.668,7.792,13.15,7.792c1.297,0,2.591-0.176,3.844-0.511l2.589,4.735c-10.341,1.489-16.884,2.874-17.023,2.904
				l-2.929,0.628V67.49H68.241v34.926h11.738v20.564l2.766,0.725c1.264,0.331,31.336,8.104,66.495,8.104
				c35.159,0,65.294-7.772,66.561-8.104l2.769-0.725v-20.567h12.034V67.49H230.606z M197.555,18.898
				c1.329-2.43,3.876-3.938,6.649-3.938c1.272,0,2.489,0.312,3.619,0.931c3.66,2.001,5.009,6.607,3.008,10.267
				c-1.328,2.43-3.874,3.938-6.649,3.938c-1.271,0-2.49-0.312-3.619-0.93C196.902,27.163,195.555,22.556,197.555,18.898z
				 M97.118,29.165c-1.113,0.608-2.364,0.93-3.619,0.93c-2.773,0-5.32-1.51-6.648-3.938c-0.969-1.773-1.19-3.817-0.622-5.756
				c0.567-1.939,1.856-3.541,3.629-4.511c1.113-0.608,2.364-0.929,3.62-0.929c2.771,0,5.318,1.509,6.647,3.938
				C102.127,22.556,100.778,27.163,97.118,29.165z M211.16,117.199c-8.225,1.899-33.696,7.199-61.917,7.199
				c-28.182,0-53.631-5.298-61.852-7.198V51.299c8.318-1.57,33.239-5.793,60.482-5.793l1.349,0.003
				c27.773,0.143,53.426,4.295,61.938,5.821V117.199z"/>
			<polygon fill="#00AEEF" points="116.719,20.982 129.317,18.335 136.033,7.749 141.829,18.335 149.024,2.454 157.475,18.335 
				163.578,7.749 169.964,17.805 182.129,20.982 167.834,20.982 164.006,15.687 157.899,24.687 149.024,12.248 141.829,24.687 
				135.607,16.217 131.874,20.982 			"/>
			<g>
				<path fill="#00AEEF" d="M26.174,58.717c0,0-5.511,2.073-9.457,3.649C12.771,63.943,7.75,66.25,7.75,66.25
					s0.026,21.134-0.164,26.715c-0.161,4.744-2.451,8.345-2.451,8.345l7.658,4.184c0,0,0.737-0.159,1.85-4.976l0,0l1.039,6.034
					c0,0,4.226,1.83,6.356,2.626c2.129,0.794,4.013-0.958,4.135-3.183C26.295,103.773,26.174,58.717,26.174,58.717z M15.245,68.14
					l3.705-0.65l-0.493,6.455l-3.212,0.617V68.14z M15.245,81.111h3.212v6.298h-3.212V81.111z M18.457,100.13
					c-1.836,0.787-3.161,0.162-3.688-0.178c0.947-4.412,0.538-6.367,0.538-6.367l3.926,0.367
					C19.231,93.95,19.754,99.573,18.457,100.13z"/>
				<path fill="#00AEEF" d="M27.471,62.334c0,0,10.375-2.099,17.292-2.964c6.917-0.864,18.156-2.222,18.156-2.222v10.34
					c0,0-8.152,0.032-17.725,0.898c-9.572,0.864-17.724,1.976-17.724,1.976V62.334z"/>
				<path fill="#00AEEF" d="M38.582,54.534c0,0,2.628-0.819,4.597-1.39c1.972-0.574,5.01-1.426,5.01-1.426l1.885,8.023l-9.387,1.729
					L38.582,54.534z"/>
				<path fill="#00AEEF" d="M28.336,76.045v34.089c0,0,9.279,3.741,15.992,5.567c6.712,1.828,18.592,4.686,18.592,4.686
					s0.198-15.815,0.11-24.084c-0.083-7.909-0.11-21.863-0.11-21.863h-7.904c0,0-0.129,11.501,0,19.021
					c0.091,5.253-0.166,17.199-0.166,17.199l-18.361-5.094l0.247-30.261L28.336,76.045z"/>
				<path fill="#00AEEF" d="M34.017,72.71c0,0,6.917,11.61,8.769,15.315c1.853,3.705,6.299,15.192,6.299,15.192l8.028-5.187
					c0,0-6.792-12.105-8.521-15.563c-1.729-3.458-8.152-14.978-8.152-14.978L34.017,72.71z"/>
				<path fill="#00AEEF" d="M34.017,95.684c0,0,5.348-6.545,8.892-12.969c3.272-5.932,6.546-16.428,6.546-16.428l6.916,4.077
					c0,0-4.737,11.297-8.275,18.032c-3.24,6.166-9.018,14.018-9.018,14.018L34.017,95.684z"/>
			</g>
			<g>
				<polygon fill="#00AEEF" points="237.68,58.012 244.657,50.547 252.884,59.989 246.586,68.141 				"/>
				<polygon fill="#00AEEF" points="241.397,69.006 235.471,76.786 245.282,85.927 251.404,77.467 				"/>
				<polygon fill="#00AEEF" points="241.274,88.151 238.558,114.21 247.815,116.292 250.416,90.867 				"/>
				<path fill="#00AEEF" d="M253.996,59.343c0,0,13.676,2.26,20.626,3.98c6.987,1.729,18.993,4.505,18.993,4.505l0.027,10.192
					l-7.779-1.296l0.265-4.244c0,0-16.939-2.735-10.271-1.747c6.67,0.987-13.46-1.729-13.46-1.729s-0.293,23.842-1.405,30.266
					c-1.109,6.423-5.017,14.349-5.017,14.349l-6.548-4.351c0,0,3.584-9.634,4.446-16.922
					C254.738,85.062,253.996,59.343,253.996,59.343z"/>
				<path fill="#00AEEF" d="M270.577,58.548v18.917l9.605,4.756l-0.477-20.177c0,0-1.966-0.862-4.33-1.705
					C273.019,59.494,270.577,58.548,270.577,58.548z"/>
				<path fill="#00AEEF" d="M261.531,77.467c0,0,9.141,0.309,15.193,0.679c6.053,0.371,15.512,1.986,15.512,1.986l-0.445,8.02
					c0,0-5.556,7.647-12.596,14.07c-7.041,6.423-16.468,9.529-16.468,9.529l-3.485-6.035c0,0,7.532-3.138,14.272-9.289
					c6.669-6.09,9.384-10.499,9.384-10.499h-22.478L261.531,77.467z"/>
				<path fill="#00AEEF" d="M262.642,90.372l7.936-4.938c0,0,2.251,5.528,7.012,9.175c4.76,3.646,16.056,4.527,16.056,4.527
					l-13.461,6.103c0,0-8.647-1.896-12.063-6.596C265.4,94.903,262.642,90.372,262.642,90.372z"/>
			</g>
			<polygon fill="#00AEEF" points="115.317,106.465 183.529,97.855 174.079,112.619 			"/>
			<path fill="#00AEEF" d="M179.206,61.47h-59.565c-6.282,0-11.375,5.094-11.375,11.376s5.093,11.374,11.375,11.374h59.565
				c6.284,0,11.375-5.092,11.375-11.374C190.581,66.565,185.49,61.47,179.206,61.47z M135.327,76.537H118.12v-7.385h17.207V76.537z
				 M179.799,76.537h-17.206v-7.385h17.206V76.537z"/>
		</g>
	</g>
	<g>
		<g>
			<g>
				<path d="M114.009,138.489h6.705v1.743h-4.771v1.806h4.198v1.744h-4.198v1.87h4.835v1.743h-6.768L114.009,138.489
					L114.009,138.489z"/>
				<path d="M125.713,147.52c-0.679,0-1.344-0.116-1.998-0.348c-0.652-0.233-1.247-0.592-1.78-1.076l1.158-1.386
					c0.405,0.329,0.824,0.594,1.252,0.787c0.428,0.196,0.897,0.293,1.405,0.293c0.406,0,0.724-0.074,0.947-0.223
					c0.225-0.147,0.338-0.354,0.338-0.615v-0.026c0-0.126-0.022-0.239-0.07-0.337c-0.047-0.098-0.136-0.188-0.268-0.273
					c-0.131-0.083-0.314-0.169-0.548-0.255c-0.235-0.084-0.539-0.174-0.911-0.267c-0.451-0.109-0.859-0.232-1.226-0.368
					c-0.365-0.136-0.676-0.303-0.931-0.502s-0.452-0.448-0.593-0.744c-0.14-0.299-0.21-0.667-0.21-1.108v-0.025
					c0-0.405,0.075-0.773,0.228-1.1c0.151-0.326,0.364-0.608,0.638-0.846c0.273-0.238,0.602-0.421,0.981-0.548
					c0.38-0.126,0.799-0.191,1.257-0.191c0.653,0,1.254,0.1,1.8,0.292c0.548,0.196,1.05,0.478,1.507,0.841l-1.016,1.476
					c-0.399-0.272-0.788-0.484-1.171-0.644c-0.381-0.157-0.763-0.236-1.145-0.236c-0.381,0-0.669,0.076-0.858,0.224
					c-0.191,0.148-0.287,0.332-0.287,0.554v0.024c0,0.145,0.027,0.271,0.082,0.377c0.057,0.106,0.156,0.2,0.301,0.286
					c0.144,0.085,0.343,0.165,0.594,0.239c0.251,0.078,0.566,0.167,0.95,0.27c0.451,0.118,0.853,0.252,1.206,0.4
					c0.353,0.147,0.651,0.325,0.893,0.533c0.242,0.207,0.426,0.453,0.548,0.732c0.125,0.278,0.186,0.614,0.186,1.003v0.026
					c0,0.442-0.079,0.833-0.24,1.176c-0.159,0.345-0.383,0.632-0.669,0.866c-0.288,0.232-0.629,0.411-1.027,0.535
					C126.636,147.459,126.197,147.52,125.713,147.52z"/>
				<path d="M132.748,140.295h-2.71v-1.808h7.378v1.808h-2.71v7.098h-1.959L132.748,140.295L132.748,140.295z"/>
				<path d="M138.639,145.359h2.049v2.035h-2.049V145.359z"/>
				<path d="M145.928,145.844l2.966-2.427c0.278-0.228,0.517-0.433,0.713-0.614c0.194-0.182,0.353-0.355,0.478-0.521
					c0.123-0.164,0.211-0.325,0.266-0.483c0.055-0.156,0.083-0.327,0.083-0.514c0-0.381-0.109-0.669-0.33-0.864
					s-0.509-0.29-0.864-0.29c-0.35,0-0.656,0.097-0.925,0.291c-0.267,0.195-0.565,0.496-0.897,0.904l-1.374-1.107
					c0.223-0.299,0.444-0.564,0.669-0.793c0.224-0.231,0.467-0.425,0.726-0.583s0.545-0.277,0.858-0.36
					c0.313-0.08,0.669-0.121,1.068-0.121c0.459,0,0.877,0.065,1.254,0.199c0.377,0.13,0.699,0.314,0.966,0.552
					c0.268,0.238,0.476,0.527,0.624,0.866c0.147,0.339,0.223,0.718,0.223,1.134v0.023c0,0.375-0.05,0.706-0.147,1
					c-0.098,0.291-0.242,0.567-0.432,0.826c-0.19,0.26-0.435,0.519-0.731,0.777c-0.299,0.26-0.642,0.539-1.031,0.845l-1.451,1.122
					h3.881v1.691h-6.59V145.844z"/>
				<path d="M157.861,147.546c-0.595,0-1.135-0.116-1.623-0.35c-0.487-0.234-0.903-0.557-1.246-0.967
					c-0.342-0.411-0.607-0.897-0.796-1.456c-0.187-0.562-0.278-1.163-0.278-1.807v-0.026c0-0.645,0.095-1.246,0.285-1.808
					c0.19-0.56,0.459-1.046,0.808-1.463c0.348-0.415,0.766-0.742,1.253-0.979c0.488-0.238,1.029-0.355,1.623-0.355
					c0.587,0,1.122,0.117,1.609,0.35c0.488,0.234,0.904,0.556,1.246,0.967c0.345,0.411,0.61,0.897,0.802,1.459
					c0.19,0.559,0.285,1.161,0.285,1.806v0.024c0,0.645-0.096,1.249-0.285,1.809c-0.191,0.559-0.46,1.047-0.81,1.463
					c-0.349,0.414-0.764,0.741-1.252,0.979C158.994,147.429,158.455,147.546,157.861,147.546z M157.887,145.776
					c0.296,0,0.563-0.067,0.803-0.208c0.235-0.14,0.44-0.334,0.608-0.586c0.171-0.249,0.3-0.546,0.388-0.889
					c0.09-0.344,0.135-0.719,0.135-1.126v-0.026c0-0.406-0.047-0.781-0.141-1.124c-0.093-0.345-0.228-0.644-0.4-0.899
					c-0.177-0.253-0.382-0.454-0.625-0.598c-0.242-0.145-0.506-0.217-0.796-0.217c-0.297,0-0.565,0.07-0.801,0.209
					c-0.238,0.141-0.438,0.337-0.604,0.587c-0.165,0.25-0.295,0.545-0.388,0.889s-0.14,0.719-0.14,1.127v0.025
					c0,0.407,0.047,0.786,0.14,1.131c0.094,0.349,0.226,0.648,0.395,0.897c0.171,0.252,0.376,0.449,0.617,0.593
					C157.32,145.706,157.591,145.776,157.887,145.776z"/>
				<path d="M164.781,140.408l-1.553,0.384l-0.406-1.604l2.559-0.763h1.337v8.968h-1.937V140.408L164.781,140.408z"/>
				<path d="M172.949,145.473h-4.351l-0.318-1.387l4.886-5.661h1.652v5.458h1.196v1.59h-1.196v1.921h-1.869V145.473L172.949,145.473
					z M172.949,143.884v-2.773l-2.365,2.773H172.949z"/>
			</g>
			<polygon points="27.045,143.087 60.853,142.304 94.662,141.522 94.662,143.087 94.662,144.651 60.853,143.868 			"/>
			<polygon points="261.464,143.088 227.653,143.869 193.847,144.651 193.847,143.088 193.847,141.522 227.653,142.304 			"/>
		</g>
		<g>
			<path fill="#231F20" d="M225.469,65.034h-12.033V42.77l-2.97-0.602c-0.147-0.03-7.038-1.409-17.857-2.892l2.592-4.738
				c1.252,0.335,2.547,0.512,3.846,0.512l0,0c5.483,0,10.521-2.986,13.148-7.794c3.963-7.245,1.291-16.363-5.953-20.324
				c-2.201-1.203-4.682-1.839-7.175-1.839c-5.484,0-10.521,2.986-13.15,7.793c-3.372,6.168-1.926,13.68,3.046,18.227l-3.935,7.195
				c-11.521-1.366-25.907-2.588-40.904-2.664l-1.386-0.004c-14.875,0-29.074,1.233-40.381,2.625l-3.911-7.151
				c4.97-4.545,6.419-12.059,3.045-18.227c-2.627-4.807-7.667-7.793-13.15-7.793c-2.494,0-4.976,0.635-7.175,1.839
				c-3.51,1.92-6.062,5.089-7.187,8.928c-1.125,3.839-0.687,7.885,1.232,11.396c2.628,4.807,7.668,7.792,13.149,7.792
				c1.297,0,2.591-0.177,3.844-0.512l2.59,4.735c-10.342,1.488-16.884,2.874-17.024,2.904l-2.929,0.629v22.229H63.104v34.926h11.737
				v20.563l2.767,0.727c1.265,0.329,31.337,8.104,66.496,8.104c35.158,0,65.295-7.775,66.56-8.104l2.771-0.726V99.96h12.033V65.034
				H225.469z M192.418,16.442c1.329-2.43,3.877-3.937,6.649-3.937c1.273,0,2.489,0.312,3.618,0.93
				c3.66,2.001,5.01,6.607,3.01,10.267c-1.33,2.429-3.876,3.937-6.649,3.937c-1.271,0-2.491-0.312-3.618-0.929
				C191.768,24.708,190.417,20.103,192.418,16.442z M91.982,26.71c-1.113,0.608-2.364,0.929-3.619,0.929
				c-2.772,0-5.32-1.508-6.647-3.937c-0.97-1.773-1.19-3.818-0.623-5.756c0.568-1.939,1.856-3.542,3.629-4.511
				c1.113-0.608,2.364-0.929,3.621-0.929c2.771,0,5.318,1.508,6.648,3.937C96.99,20.103,95.64,24.708,91.982,26.71z
				 M206.023,114.746c-8.226,1.899-33.697,7.198-61.919,7.198c-28.181,0-53.63-5.298-61.851-7.197V48.846
				c8.318-1.57,33.238-5.793,60.483-5.793l1.35,0.003c27.772,0.141,53.425,4.293,61.937,5.82V114.746z"/>
			<polygon fill="#231F20" points="111.582,18.526 124.183,15.88 130.896,5.294 136.691,15.88 143.887,0 152.337,15.88 
				158.44,5.294 164.825,15.352 176.991,18.526 162.696,18.526 158.868,13.233 152.762,22.233 143.887,9.792 136.691,22.233 
				130.47,13.762 126.735,18.526 			"/>
			<g>
				<path fill="#231F20" d="M21.037,56.262c0,0-5.51,2.073-9.457,3.649c-3.945,1.577-8.966,3.885-8.966,3.885
					S2.64,84.931,2.45,90.51C2.289,95.257,0,98.857,0,98.857l7.658,4.183c0,0,0.737-0.159,1.85-4.976l0,0l1.039,6.033
					c0,0,4.226,1.832,6.356,2.627c2.129,0.795,4.014-0.958,4.135-3.183C21.159,101.319,21.037,56.262,21.037,56.262z M10.107,65.685
					l3.705-0.65l-0.493,6.455l-3.211,0.618V65.685z M10.107,78.654h3.211v6.3h-3.211V78.654z M13.32,97.676
					c-1.836,0.785-3.161,0.162-3.688-0.179c0.947-4.412,0.537-6.369,0.537-6.369l3.926,0.369
					C14.094,91.496,14.616,97.119,13.32,97.676z"/>
				<path fill="#231F20" d="M22.334,59.882c0,0,10.375-2.101,17.292-2.965c6.916-0.865,18.155-2.223,18.155-2.223v10.341
					c0,0-8.152,0.032-17.724,0.898c-9.573,0.864-17.724,1.976-17.724,1.976V59.882z"/>
				<path fill="#231F20" d="M33.444,52.081c0,0,2.628-0.819,4.598-1.392c1.971-0.572,5.01-1.426,5.01-1.426l1.885,8.024l-9.388,1.73
					L33.444,52.081z"/>
				<path fill="#231F20" d="M23.2,73.591v34.089c0,0,9.279,3.741,15.991,5.568s18.593,4.683,18.593,4.683s0.198-15.814,0.11-24.085
					c-0.083-7.906-0.11-21.86-0.11-21.86h-7.904c0,0-0.129,11.5,0,19.021c0.091,5.253-0.166,17.197-0.166,17.197l-18.361-5.092
					l0.246-30.261L23.2,73.591z"/>
				<path fill="#231F20" d="M28.879,70.255c0,0,6.917,11.611,8.769,15.316c1.853,3.704,6.299,15.192,6.299,15.192l8.029-5.188
					c0,0-6.792-12.104-8.522-15.562c-1.729-3.458-8.151-14.979-8.151-14.979L28.879,70.255z"/>
				<path fill="#231F20" d="M28.879,93.23c0,0,5.348-6.545,8.893-12.969c3.272-5.932,6.545-16.428,6.545-16.428l6.917,4.075
					c0,0-4.738,11.297-8.276,18.034C39.719,92.109,33.94,99.96,33.94,99.96L28.879,93.23z"/>
			</g>
			<g>
				<polygon fill="#231F20" points="232.545,55.558 239.52,48.092 247.748,57.533 241.447,65.687 				"/>
				<polygon fill="#231F20" points="236.26,66.55 230.333,74.332 240.146,83.472 246.267,75.011 				"/>
				<polygon fill="#231F20" points="236.138,85.696 233.421,111.757 242.679,113.838 245.277,88.412 				"/>
				<path fill="#231F20" d="M248.86,56.89c0,0,13.676,2.259,20.626,3.979c6.986,1.729,18.993,4.505,18.993,4.505l0.028,10.192
					l-7.78-1.295l0.264-4.244c0,0-16.938-2.736-10.271-1.748c6.67,0.988-13.46-1.729-13.46-1.729s-0.292,23.843-1.404,30.267
					c-1.11,6.422-5.019,14.349-5.019,14.349l-6.547-4.351c0,0,3.583-9.634,4.446-16.922C249.602,82.608,248.86,56.89,248.86,56.89z"
					/>
				<path fill="#231F20" d="M265.439,56.094v18.917l9.604,4.756l-0.476-20.176c0,0-1.966-0.862-4.328-1.707
					C267.88,57.041,265.439,56.094,265.439,56.094z"/>
				<path fill="#231F20" d="M256.394,75.011c0,0,9.142,0.31,15.192,0.681c6.054,0.37,15.514,1.986,15.514,1.986l-0.445,8.018
					c0,0-5.557,7.647-12.598,14.072c-7.04,6.423-16.467,9.527-16.467,9.527l-3.485-6.035c0,0,7.531-3.137,14.271-9.288
					c6.671-6.091,9.385-10.5,9.385-10.5h-22.479L256.394,75.011z"/>
				<path fill="#231F20" d="M257.506,87.918l7.934-4.939c0,0,2.252,5.529,7.011,9.175c4.76,3.646,16.058,4.528,16.058,4.528
					l-13.461,6.101c0,0-8.647-1.896-12.065-6.595C260.265,92.447,257.506,87.918,257.506,87.918z"/>
			</g>
			<polygon fill="#231F20" points="110.181,104.012 178.395,95.402 168.943,110.165 			"/>
			<path fill="#231F20" d="M174.07,59.017h-59.565c-6.283,0-11.375,5.092-11.375,11.375c0,6.281,5.092,11.375,11.375,11.375h59.565
				c6.284,0,11.374-5.094,11.374-11.375C185.444,64.109,180.354,59.017,174.07,59.017z M130.188,74.083h-17.206v-7.386h17.206
				V74.083z M174.661,74.083h-17.205v-7.386h17.205V74.083z"/>
		</g>
	</g>
</g>
</svg>
