<?xml version="1.0" encoding="utf-8"?>
<!-- Generator: Adobe Illustrator 16.0.0, SVG Export Plug-In . SVG Version: 6.00 Build 0)  -->
<!DOCTYPE svg PUBLIC "-//W3C//DTD SVG 1.1//EN" "http://www.w3.org/Graphics/SVG/1.1/DTD/svg11.dtd">
<svg version="1.1" id="Layer_1" xmlns="http://www.w3.org/2000/svg" xmlns:xlink="http://www.w3.org/1999/xlink" x="0px" y="0px"
	 width="253.301px" height="61.691px" viewBox="0 0 253.301 61.691" enable-background="new 0 0 253.301 61.691"
	 xml:space="preserve">
<rect x="-301.912" y="-119.677" display="none" fill="#0995FF" width="842.924" height="338.279"/>
<g>
	<path fill="#0995FF" d="M32.051,0.499l-10.525,53.7H9.993c-0.827-1.824-2.645-3.094-4.759-3.094C2.344,51.106,0,53.476,0,56.399
		c0,2.925,2.344,5.293,5.234,5.293c2.307,0,4.26-1.509,4.957-3.601h14.521l3.38-18.429h13.312l-3.037,18.429h3.553L52.163,0.499
		H32.051z M5.236,58.903c-1.365,0-2.478-1.12-2.478-2.504c0-1.383,1.111-2.504,2.478-2.504c1.368,0,2.479,1.121,2.479,2.504
		C7.714,57.782,6.604,58.903,5.236,58.903z M42.77,34.436H29.116l2.39-12.623h13.312L42.77,34.436z M32.393,17.099l2.392-12.623
		h13.312l-2.049,12.623H32.393z"/>
	<polygon fill="#0995FF" points="83.332,8.466 64.892,8.466 66.6,0.499 85.039,0.499 	"/>
	<path fill="#0995FF" d="M82.512,14.199h11.29l0.342-2.391H55.217l-0.342,2.391h5.468l10.748,12.792l-7.188,15.438H57.38
		l-0.342,2.275h5.806h4.896h0.568l6.301-13.53l6.396,7.612l-3.251,15.479H50.892L56.7,20.119h-3.19l-6.829,38.017h38.245
		l7.512-38.017h-7.512L81.868,34.68l-5.771-6.7L82.512,14.199z M64.228,14.199H77.05l-4.499,9.661L64.228,14.199z"/>
	<polygon fill="#0995FF" points="125.559,10.215 126.173,6.645 142.518,6.645 143.542,0.499 109.509,0.499 108.485,6.645 
		122.644,6.645 122.028,10.215 101.086,10.215 97.672,29.11 100.631,29.11 103.705,13.63 121.44,13.63 120.484,19.168 
		114.062,16.59 101.997,27.062 114.29,19.891 119.718,23.603 118.729,29.338 122.258,29.338 122.875,25.76 127.606,28.996 
		143.086,16.703 128.519,22.395 123.784,20.494 124.968,13.63 144.679,13.63 141.95,29.11 148.325,29.11 151.738,10.215 	"/>
	<polygon fill="#0995FF" points="147.299,34.915 147.64,32.752 96.99,32.752 91.867,58.135 97.216,58.135 99.626,47.208 
		107.117,47.208 104.957,57.909 123.397,57.909 123.851,55.858 109.054,55.858 110.675,47.208 122.647,47.208 137.85,57.909 
		142.86,57.909 127.655,47.208 144.679,47.208 145.023,44.59 100.205,44.59 101.007,40.949 146.163,40.949 146.5,38.672 
		101.51,38.672 102.338,34.915 	"/>
	<path fill="#0995FF" d="M225.37,0c-2.437,0-4.476,1.683-5.062,3.955h-14.799l0.521-3.456h-14.455l-0.521,3.456h-10.586l0.523-3.456
		h-14.455l-0.523,3.456h-8.242l-0.342,2.731h8.171l-0.433,2.847h14.457l0.431-2.847h10.584l-0.431,2.847h14.457l0.431-2.847h15.228
		c0.605,2.246,2.635,3.897,5.047,3.897c2.893,0,5.233-2.37,5.233-5.293C230.604,2.369,228.26,0,225.37,0z M225.37,7.797
		c-1.369,0-2.479-1.121-2.479-2.504s1.108-2.504,2.479-2.504c1.366,0,2.477,1.121,2.477,2.504S226.737,7.797,225.37,7.797z"/>
	<polygon fill="#0995FF" points="171.088,21.939 163.349,21.939 155.836,14.085 163.575,14.085 	"/>
	<polygon fill="#0995FF" points="161.297,39.24 152.193,39.24 157.999,27.745 167.104,27.745 	"/>
	<polygon fill="#0995FF" points="158.682,57.909 149.689,57.909 157.202,45.5 166.195,45.5 	"/>
	<polygon fill="#0995FF" points="206.661,23.99 208.536,14.085 178.256,14.085 177.577,16.931 202.387,16.931 200.875,23.99 
		172.681,23.99 171.657,26.948 182.635,26.948 180.993,33.323 171.088,33.323 170.631,35.257 183.836,35.257 186.254,26.948 
		194.392,26.948 190.778,42.998 172.454,42.998 171.542,46.185 195.9,46.185 200.2,26.948 208.079,26.948 202.275,54.606 
		175.073,54.606 174.047,57.793 207.284,57.793 214.456,23.99 	"/>
</g>
</svg>
