<?xml version="1.0" encoding="utf-8"?>
<!-- Generator: Adobe Illustrator 23.0.3, SVG Export Plug-In . SVG Version: 6.00 Build 0)  -->
<svg version="1.1" id="Layer_1" xmlns="http://www.w3.org/2000/svg" xmlns:xlink="http://www.w3.org/1999/xlink" x="0px" y="0px"
	 viewBox="0 0 230.6 81.3" style="enable-background:new 0 0 230.6 81.3;" xml:space="preserve">
<style type="text/css">
	.st0{display:none;fill:#888888;}
	.st1{fill:#0995FF;}
	.st2{fill:#333333;}
</style>
<rect x="-301.9" y="-119.7" class="st0" width="842.9" height="338.3"/>
<g>
	<path class="st1" d="M32.1,0.5L21.5,54.2H10c-0.8-1.8-2.6-3.1-4.8-3.1c-2.9,0-5.2,2.4-5.2,5.3c0,2.9,2.3,5.3,5.2,5.3
		c2.3,0,4.3-1.5,5-3.6h14.5l3.4-18.4h13.3l-3,18.4h3.6L52.2,0.5H32.1z M5.2,58.9c-1.4,0-2.5-1.1-2.5-2.5c0-1.4,1.1-2.5,2.5-2.5
		s2.5,1.1,2.5,2.5C7.7,57.8,6.6,58.9,5.2,58.9z M42.8,34.4H29.1l2.4-12.6h13.3L42.8,34.4z M32.4,17.1l2.4-12.6h13.3l-2,12.6H32.4z"
		/>
	<polygon class="st1" points="83.3,8.5 64.9,8.5 66.6,0.5 85,0.5 	"/>
	<path class="st1" d="M82.5,14.2h11.3l0.3-2.4H55.2l-0.3,2.4h5.5L71.1,27l-7.2,15.4h-6.5L57,44.7h5.8h4.9h0.6l6.3-13.5l6.4,7.6
		l-3.3,15.5H50.9l5.8-34.1h-3.2l-6.8,38h38.2l7.5-38h-7.5l-3.1,14.6L76.1,28L82.5,14.2z M64.2,14.2H77l-4.5,9.7L64.2,14.2z"/>
	<polygon class="st1" points="125.6,10.2 126.2,6.6 142.5,6.6 143.5,0.5 109.5,0.5 108.5,6.6 122.6,6.6 122,10.2 101.1,10.2 
		97.7,29.1 100.6,29.1 103.7,13.6 121.4,13.6 120.5,19.2 114.1,16.6 102,27.1 114.3,19.9 119.7,23.6 118.7,29.3 122.3,29.3 
		122.9,25.8 127.6,29 143.1,16.7 128.5,22.4 123.8,20.5 125,13.6 144.7,13.6 141.9,29.1 148.3,29.1 151.7,10.2 	"/>
	<polygon class="st1" points="147.3,34.9 147.6,32.8 97,32.8 91.9,58.1 97.2,58.1 99.6,47.2 107.1,47.2 105,57.9 123.4,57.9 
		123.9,55.9 109.1,55.9 110.7,47.2 122.6,47.2 137.9,57.9 142.9,57.9 127.7,47.2 144.7,47.2 145,44.6 100.2,44.6 101,40.9 
		146.2,40.9 146.5,38.7 101.5,38.7 102.3,34.9 	"/>
	<path class="st1" d="M225.4,0c-2.4,0-4.5,1.7-5.1,4h-14.8l0.5-3.5h-14.5L191.1,4h-10.6l0.5-3.5h-14.5L166,4h-8.2l-0.3,2.7h8.2
		l-0.4,2.8h14.5l0.4-2.8h10.6l-0.4,2.8h14.5l0.4-2.8h15.2c0.6,2.2,2.6,3.9,5,3.9c2.9,0,5.2-2.4,5.2-5.3C230.6,2.4,228.3,0,225.4,0z
		 M225.4,7.8c-1.4,0-2.5-1.1-2.5-2.5s1.1-2.5,2.5-2.5c1.4,0,2.5,1.1,2.5,2.5S226.7,7.8,225.4,7.8z"/>
	<polygon class="st1" points="171.1,21.9 163.3,21.9 155.8,14.1 163.6,14.1 	"/>
	<polygon class="st1" points="161.3,39.2 152.2,39.2 158,27.7 167.1,27.7 	"/>
	<polygon class="st1" points="158.7,57.9 149.7,57.9 157.2,45.5 166.2,45.5 	"/>
	<polygon class="st1" points="206.7,24 208.5,14.1 178.3,14.1 177.6,16.9 202.4,16.9 200.9,24 172.7,24 171.7,26.9 182.6,26.9 
		181,33.3 171.1,33.3 170.6,35.3 183.8,35.3 186.3,26.9 194.4,26.9 190.8,43 172.5,43 171.5,46.2 195.9,46.2 200.2,26.9 208.1,26.9 
		202.3,54.6 175.1,54.6 174,57.8 207.3,57.8 214.5,24 	"/>
</g>
<g>
	<path class="st2" d="M75.8,73v0.8H62.1V73H75.8z"/>
	<path class="st2" d="M88.4,70.8c1.2,2.8,3.3,5.3,5.6,6.5c-0.2,0.2-0.4,0.4-0.5,0.6c-2.4-1.3-4.5-4.1-5.7-7.1h-0.3v5.9h3.8v0.7h-3.8
		v3h-0.7v-3h-3.7v-0.7h3.7v-5.9h-0.3c-1.2,3-3.4,5.7-5.6,7.1c-0.1-0.2-0.3-0.4-0.5-0.6c2.1-1.2,4.2-3.8,5.4-6.6h-5.1v-0.7h6.1v-3.3
		h0.7v3.3h6.2v0.7L88.4,70.8L88.4,70.8z"/>
	<path class="st2" d="M111.8,79v0.7H98.4V79h2.2v-7.3h0.7V79h3.7V68.6h-6v-0.7h12.2v0.7h-5.5v4.4h5v0.7h-5V79L111.8,79L111.8,79z"/>
	<path class="st2" d="M121.3,74.7c0,0.2,0,0.5,0,0.6c-3.9,0.8-4.4,0.9-4.7,1.1c0-0.2-0.2-0.5-0.2-0.7c0.3,0,0.7-0.4,1.1-1
		c0.3-0.3,1.1-1.3,1.9-2.4c-2.3,0.3-2.6,0.4-2.8,0.5c0-0.2-0.2-0.5-0.3-0.7c0.3,0,0.5-0.4,0.9-1c0.4-0.5,1.6-2.5,2.3-4.4l0.7,0.3
		c-0.8,1.7-1.7,3.5-2.7,4.8l2.4-0.3c0.4-0.6,0.7-1.1,1-1.7l0.6,0.4c-1.1,1.8-2.4,3.6-3.7,5L121.3,74.7z M121.4,78.1
		c-1.7,0.4-3.6,0.9-4.9,1.2l-0.2-0.7c1.2-0.3,3.1-0.7,5-1.2L121.4,78.1z M129.6,73.5c-0.9-0.6-2.6-1.5-4.1-2.1
		c-1.3,0.9-2.7,1.7-4.1,2.2c-0.1-0.2-0.3-0.4-0.5-0.6c2.4-0.9,5.2-2.6,6.6-4.8H122v-0.7h6.1l0.1,0l0.5,0.3c-0.6,1.2-1.6,2.3-2.7,3.2
		c1.4,0.6,3.1,1.4,4,2L129.6,73.5z M126,79.3h4v0.7h-8.8v-0.7h4.1V75h-3.1v-0.7h7.2V75H126C126,75,126,79.3,126,79.3z"/>
	<path class="st2" d="M137.2,75.9c0.6-0.3,1.2-0.5,1.9-0.8l0.1,0.6c-1.6,0.7-3.3,1.5-4.6,2l-0.3-0.7c0.6-0.2,1.3-0.5,2.2-0.9v-5.1
		h-1.9v-0.7h1.9v-3.5h0.7v3.5h1.8v0.7h-1.8L137.2,75.9L137.2,75.9z M146.3,79.4c0.9,0,1.1-0.5,1.2-2.3c0.2,0.1,0.5,0.3,0.7,0.3
		c-0.1,2-0.4,2.7-1.9,2.7h-4c-1.5,0-2-0.3-2-1.7v-5.3l-1.4,0.6l-0.3-0.6l1.7-0.7v-4.2h0.7V72l2.5-1.1v-4.2h0.7v4l2.7-1.1l0.5,0.2
		l0,0.2c-0.2,2.1-0.5,4.9-0.9,6.6l-0.6-0.2c0.3-1.5,0.6-3.9,0.7-5.9l-2.5,1v5.7h-0.7v-5.4l-2.5,1.1v5.6c0,0.8,0.2,1,1.3,1
		L146.3,79.4L146.3,79.4z"/>
	<path class="st2" d="M157.9,77c-1.9,0.5-3.8,1.1-5.2,1.5l-0.2-0.7c0.6-0.2,1.4-0.4,2.2-0.6V73h-1.8v-0.7h1.8v-3.7h-2.1v-0.7h5v0.7
		h-2.2v3.7h1.9V73h-1.9v4c0.8-0.2,1.6-0.4,2.4-0.7L157.9,77z M165.2,79.6c0.4,0,0.4-0.3,0.5-2.1c0.2,0.1,0.5,0.2,0.7,0.3
		c-0.1,1.9-0.3,2.4-1.1,2.4h-1.5c-0.9,0-1.1-0.2-1.1-1.1v-6.3h-2.1c-0.2,3.9-0.8,6.3-4,7.5c-0.1-0.2-0.3-0.4-0.4-0.5
		c3.1-1.2,3.6-3.4,3.7-7h-2.2v-0.7h8.5v0.7h-2.8v6.2c0,0.4,0.1,0.5,0.5,0.5L165.2,79.6L165.2,79.6z M165.4,68.5h-7v-0.7h7V68.5z"/>
</g>
</svg>
