<?xml version="1.0" encoding="utf-8"?>
<!-- Generator: Adobe Illustrator 16.0.0, SVG Export Plug-In . SVG Version: 6.00 Build 0)  -->
<!DOCTYPE svg PUBLIC "-//W3C//DTD SVG 1.1//EN" "http://www.w3.org/Graphics/SVG/1.1/DTD/svg11.dtd">
<svg version="1.1" id="Layer_1" xmlns="http://www.w3.org/2000/svg" xmlns:xlink="http://www.w3.org/1999/xlink" x="0px" y="0px"
	 width="422.864px" height="150px" viewBox="0 0 422.864 150" enable-background="new 0 0 422.864 150" xml:space="preserve">
<g>
	<path d="M31.092,38.203l22.326,12.073l-31.422,58.71L0,95.425L31.092,38.203z M56.064,0h29.106v146.857H49.779l6.286-7.938V0z
		 M88.147,50.276l22.327-12.073l31.091,57.223l-21.995,13.561L88.147,50.276z"/>
	<path d="M272.705,113.285h-22.326c11.577,10.42,25.965,16.705,25.965,16.705L262.452,150
		c-19.185-8.104-31.092-19.845-38.203-29.771c-11.578,10.42-30.596,22.824-60.033,29.771L153.3,129.326
		c0,0,22.988-6.613,40.849-16.041h-39.195V94.101h23.483l-17.861-8.931l8.931-14.387l25.634,13.064l-6.284,10.253h21.665V62.018
		h26.792v32.083h35.391V113.285z M156.443,40.188v18.687h25.633l-5.953,9.758l25.799,12.734l8.6-14.389l-16.373-8.104h53.418v17.2
		h26.626V40.188H227.06V32.58h37.045V13.231H227.06V1.488h-26.791v11.743h-35.227V32.58h35.227v7.608H156.443z"/>
	<path d="M293.206,15.215h21.5V0.331h24.642v14.884h22.492v20.01h-7.442v20.343h9.096v21.499h-73.759V55.568h9.592V35.226h-6.119
		V15.215z M296.018,146.857h63.341v-60.86h-63.341V146.857z M319.502,125.357v-17.363h16.869v17.363H319.502z M321.651,55.568h10.75
		V35.226h-10.75V55.568z M389.457,146.691v-9.922h8.104c15.215,0,23.815-16.702,23.815-36.217c0-12.57-3.804-26.462-10.915-37.872
		l12.403-59.373H366.47v143.383H389.457z M389.457,60.529V25.8h6.616L389.457,60.529z M389.457,112.128V68.467
		c5.292,9.592,8.27,21.5,8.27,29.106c0,8.436-2.646,14.555-6.947,14.555H389.457z"/>
</g>
</svg>
