<?xml version="1.0" encoding="utf-8"?>
<!-- Generator: Adobe Illustrator 16.0.0, SVG Export Plug-In . SVG Version: 6.00 Build 0)  -->
<!DOCTYPE svg PUBLIC "-//W3C//DTD SVG 1.1//EN" "http://www.w3.org/Graphics/SVG/1.1/DTD/svg11.dtd">
<svg version="1.1" id="Layer_1" xmlns="http://www.w3.org/2000/svg" xmlns:xlink="http://www.w3.org/1999/xlink" x="0px" y="0px"
	 width="150px" height="150px" viewBox="0 0 150 150" enable-background="new 0 0 150 150" xml:space="preserve">
<g>
	<g id="qr_code">
		<rect fill="#231F20" width="28.379" height="4.052"/>
		<rect x="40.542" fill="#231F20" width="12.163" height="4.052"/>
		<rect x="56.756" fill="#231F20" width="8.111" height="4.052"/>
		<rect x="72.97" fill="#231F20" width="8.111" height="4.052"/>
		<rect x="85.133" fill="#231F20" width="8.11" height="4.052"/>
		<rect x="113.511" fill="#231F20" width="4.057" height="4.052"/>
		<rect x="121.62" fill="#231F20" width="28.379" height="4.052"/>
		<rect y="4.052" fill="#231F20" width="4.052" height="4.052"/>
		<rect x="24.325" y="4.052" fill="#231F20" width="4.054" height="4.052"/>
		<rect x="40.542" y="4.052" fill="#231F20" width="4.052" height="4.052"/>
		<rect x="60.808" y="4.052" fill="#231F20" width="12.162" height="4.052"/>
		<rect x="81.081" y="4.052" fill="#231F20" width="4.052" height="4.052"/>
		<rect x="93.243" y="4.052" fill="#231F20" width="12.163" height="4.052"/>
		<rect x="113.511" y="4.052" fill="#231F20" width="4.057" height="4.052"/>
		<rect x="121.62" y="4.052" fill="#231F20" width="4.054" height="4.052"/>
		<rect x="145.948" y="4.052" fill="#231F20" width="4.052" height="4.052"/>
		<rect y="8.104" fill="#231F20" width="4.052" height="4.059"/>
		<rect x="8.108" y="8.104" fill="#231F20" width="12.163" height="4.059"/>
		<rect x="24.325" y="8.104" fill="#231F20" width="4.054" height="4.059"/>
		<rect x="44.593" y="8.104" fill="#231F20" width="8.111" height="4.059"/>
		<rect x="56.756" y="8.104" fill="#231F20" width="4.052" height="4.059"/>
		<rect x="64.867" y="8.104" fill="#231F20" width="8.104" height="4.059"/>
		<rect x="93.243" y="8.104" fill="#231F20" width="24.325" height="4.059"/>
		<rect x="121.62" y="8.104" fill="#231F20" width="4.054" height="4.059"/>
		<rect x="129.726" y="8.104" fill="#231F20" width="12.163" height="4.059"/>
		<rect x="145.948" y="8.104" fill="#231F20" width="4.052" height="4.059"/>
		<rect y="12.163" fill="#231F20" width="4.052" height="4.059"/>
		<rect x="8.108" y="12.163" fill="#231F20" width="12.163" height="4.059"/>
		<rect x="24.325" y="12.163" fill="#231F20" width="4.054" height="4.059"/>
		<rect x="44.593" y="12.163" fill="#231F20" width="4.054" height="4.059"/>
		<rect x="56.756" y="12.163" fill="#231F20" width="4.052" height="4.059"/>
		<rect x="68.918" y="12.163" fill="#231F20" width="8.11" height="4.059"/>
		<rect x="81.081" y="12.163" fill="#231F20" width="4.052" height="4.059"/>
		<rect x="93.243" y="12.163" fill="#231F20" width="8.111" height="4.059"/>
		<rect x="105.406" y="12.163" fill="#231F20" width="12.162" height="4.059"/>
		<rect x="121.62" y="12.163" fill="#231F20" width="4.054" height="4.059"/>
		<rect x="129.726" y="12.163" fill="#231F20" width="12.163" height="4.059"/>
		<rect x="145.948" y="12.163" fill="#231F20" width="4.052" height="4.059"/>
		<rect y="16.222" fill="#231F20" width="4.052" height="4.052"/>
		<rect x="8.108" y="16.222" fill="#231F20" width="12.163" height="4.052"/>
		<rect x="24.325" y="16.222" fill="#231F20" width="4.054" height="4.052"/>
		<rect x="32.431" y="16.222" fill="#231F20" width="16.216" height="4.052"/>
		<rect x="56.756" y="16.222" fill="#231F20" width="4.052" height="4.052"/>
		<rect x="64.867" y="16.222" fill="#231F20" width="4.052" height="4.052"/>
		<rect x="72.97" y="16.222" fill="#231F20" width="12.163" height="4.052"/>
		<rect x="89.191" y="16.222" fill="#231F20" width="4.052" height="4.052"/>
		<rect x="101.354" y="16.222" fill="#231F20" width="4.052" height="4.052"/>
		<rect x="109.457" y="16.222" fill="#231F20" width="8.111" height="4.052"/>
		<rect x="121.62" y="16.222" fill="#231F20" width="4.054" height="4.052"/>
		<rect x="129.726" y="16.222" fill="#231F20" width="12.163" height="4.052"/>
		<rect x="145.948" y="16.222" fill="#231F20" width="4.052" height="4.052"/>
		<rect y="20.274" fill="#231F20" width="4.052" height="4.052"/>
		<rect x="24.325" y="20.274" fill="#231F20" width="4.054" height="4.052"/>
		<rect x="40.542" y="20.274" fill="#231F20" width="4.052" height="4.052"/>
		<rect x="52.704" y="20.274" fill="#231F20" width="8.104" height="4.052"/>
		<rect x="64.867" y="20.274" fill="#231F20" width="16.214" height="4.052"/>
		<rect x="85.133" y="20.274" fill="#231F20" width="8.11" height="4.052"/>
		<rect x="101.354" y="20.274" fill="#231F20" width="4.052" height="4.052"/>
		<rect x="121.62" y="20.274" fill="#231F20" width="4.054" height="4.052"/>
		<rect x="145.948" y="20.274" fill="#231F20" width="4.052" height="4.052"/>
		<rect y="24.326" fill="#231F20" width="28.379" height="4.052"/>
		<rect x="32.431" y="24.326" fill="#231F20" width="4.055" height="4.052"/>
		<rect x="40.542" y="24.326" fill="#231F20" width="4.052" height="4.052"/>
		<rect x="48.647" y="24.326" fill="#231F20" width="4.057" height="4.052"/>
		<rect x="56.756" y="24.326" fill="#231F20" width="4.052" height="4.052"/>
		<rect x="64.867" y="24.326" fill="#231F20" width="4.052" height="4.052"/>
		<rect x="72.97" y="24.326" fill="#231F20" width="4.059" height="4.052"/>
		<rect x="81.081" y="24.326" fill="#231F20" width="4.052" height="4.052"/>
		<rect x="89.191" y="24.326" fill="#231F20" width="4.052" height="4.052"/>
		<rect x="97.295" y="24.326" fill="#231F20" width="4.058" height="4.052"/>
		<rect x="105.406" y="24.326" fill="#231F20" width="4.051" height="4.052"/>
		<rect x="113.511" y="24.326" fill="#231F20" width="4.057" height="4.052"/>
		<rect x="121.62" y="24.326" fill="#231F20" width="28.379" height="4.052"/>
		<rect x="32.431" y="28.378" fill="#231F20" width="8.11" height="4.052"/>
		<rect x="44.593" y="28.378" fill="#231F20" width="8.111" height="4.052"/>
		<rect x="56.756" y="28.378" fill="#231F20" width="4.052" height="4.052"/>
		<rect x="68.918" y="28.378" fill="#231F20" width="12.163" height="4.052"/>
		<rect x="93.243" y="28.378" fill="#231F20" width="8.111" height="4.052"/>
		<rect x="109.457" y="28.378" fill="#231F20" width="8.111" height="4.052"/>
		<rect x="8.108" y="32.43" fill="#231F20" width="8.106" height="4.059"/>
		<rect x="24.325" y="32.43" fill="#231F20" width="12.161" height="4.059"/>
		<rect x="44.593" y="32.43" fill="#231F20" width="4.054" height="4.059"/>
		<rect x="52.704" y="32.43" fill="#231F20" width="8.104" height="4.059"/>
		<rect x="64.867" y="32.43" fill="#231F20" width="4.052" height="4.059"/>
		<rect x="93.243" y="32.43" fill="#231F20" width="4.053" height="4.059"/>
		<rect x="101.354" y="32.43" fill="#231F20" width="12.158" height="4.059"/>
		<rect x="117.568" y="32.43" fill="#231F20" width="8.106" height="4.059"/>
		<rect x="129.726" y="32.43" fill="#231F20" width="4.056" height="4.059"/>
		<rect y="36.489" fill="#231F20" width="4.052" height="4.052"/>
		<rect x="12.164" y="36.489" fill="#231F20" width="12.161" height="4.052"/>
		<rect x="28.379" y="36.489" fill="#231F20" width="4.052" height="4.052"/>
		<rect x="40.542" y="36.489" fill="#231F20" width="16.214" height="4.052"/>
		<rect x="60.808" y="36.489" fill="#231F20" width="4.059" height="4.052"/>
		<rect x="72.97" y="36.489" fill="#231F20" width="4.059" height="4.052"/>
		<rect x="81.081" y="36.489" fill="#231F20" width="8.11" height="4.052"/>
		<rect x="93.243" y="36.489" fill="#231F20" width="8.111" height="4.052"/>
		<rect x="113.511" y="36.489" fill="#231F20" width="4.057" height="4.052"/>
		<rect x="125.674" y="36.489" fill="#231F20" width="4.052" height="4.052"/>
		<rect x="16.215" y="40.541" fill="#231F20" width="4.056" height="4.058"/>
		<rect x="24.325" y="40.541" fill="#231F20" width="16.216" height="4.058"/>
		<rect x="44.593" y="40.541" fill="#231F20" width="4.054" height="4.058"/>
		<rect x="52.704" y="40.541" fill="#231F20" width="4.052" height="4.058"/>
		<rect x="68.918" y="40.541" fill="#231F20" width="4.052" height="4.058"/>
		<rect x="77.029" y="40.541" fill="#231F20" width="8.104" height="4.058"/>
		<rect x="101.354" y="40.541" fill="#231F20" width="4.052" height="4.058"/>
		<rect x="113.511" y="40.541" fill="#231F20" width="8.109" height="4.058"/>
		<rect x="125.674" y="40.541" fill="#231F20" width="12.163" height="4.058"/>
		<rect x="141.889" y="40.541" fill="#231F20" width="4.059" height="4.058"/>
		<rect y="44.599" fill="#231F20" width="8.108" height="4.046"/>
		<rect x="12.164" y="44.599" fill="#231F20" width="4.051" height="4.046"/>
		<rect x="28.379" y="44.599" fill="#231F20" width="4.052" height="4.046"/>
		<rect x="68.918" y="44.599" fill="#231F20" width="8.11" height="4.046"/>
		<rect x="81.081" y="44.599" fill="#231F20" width="8.11" height="4.046"/>
		<rect x="93.243" y="44.599" fill="#231F20" width="4.053" height="4.046"/>
		<rect x="101.354" y="44.599" fill="#231F20" width="8.104" height="4.046"/>
		<rect x="113.511" y="44.599" fill="#231F20" width="4.057" height="4.046"/>
		<rect x="133.782" y="44.599" fill="#231F20" width="8.107" height="4.046"/>
		<rect x="145.948" y="44.599" fill="#231F20" width="4.052" height="4.046"/>
		<rect y="48.645" fill="#231F20" width="16.215" height="4.059"/>
		<rect x="24.325" y="48.645" fill="#231F20" width="8.106" height="4.059"/>
		<rect x="36.486" y="48.645" fill="#231F20" width="4.056" height="4.059"/>
		<rect x="48.647" y="48.645" fill="#231F20" width="20.271" height="4.059"/>
		<rect x="72.97" y="48.645" fill="#231F20" width="4.059" height="4.059"/>
		<rect x="85.133" y="48.645" fill="#231F20" width="4.058" height="4.059"/>
		<rect x="93.243" y="48.645" fill="#231F20" width="4.053" height="4.059"/>
		<rect x="101.354" y="48.645" fill="#231F20" width="8.104" height="4.059"/>
		<rect x="113.511" y="48.645" fill="#231F20" width="4.057" height="4.059"/>
		<rect x="121.62" y="48.645" fill="#231F20" width="8.106" height="4.059"/>
		<rect x="133.782" y="48.645" fill="#231F20" width="4.055" height="4.059"/>
		<rect x="145.948" y="48.645" fill="#231F20" width="4.052" height="4.059"/>
		<rect y="52.704" fill="#231F20" width="4.052" height="4.052"/>
		<rect x="12.164" y="52.704" fill="#231F20" width="12.161" height="4.052"/>
		<rect x="32.431" y="52.704" fill="#231F20" width="4.055" height="4.052"/>
		<rect x="44.593" y="52.704" fill="#231F20" width="4.054" height="4.052"/>
		<rect x="52.704" y="52.704" fill="#231F20" width="4.052" height="4.052"/>
		<rect x="64.867" y="52.704" fill="#231F20" width="8.104" height="4.052"/>
		<rect x="77.029" y="52.704" fill="#231F20" width="20.267" height="4.052"/>
		<rect x="101.354" y="52.704" fill="#231F20" width="16.214" height="4.052"/>
		<rect x="121.62" y="52.704" fill="#231F20" width="12.162" height="4.052"/>
		<rect x="137.837" y="52.704" fill="#231F20" width="12.163" height="4.052"/>
		<rect x="4.052" y="56.756" fill="#231F20" width="12.163" height="4.059"/>
		<rect x="20.271" y="56.756" fill="#231F20" width="8.108" height="4.059"/>
		<rect x="32.431" y="56.756" fill="#231F20" width="8.11" height="4.059"/>
		<rect x="44.593" y="56.756" fill="#231F20" width="4.054" height="4.059"/>
		<rect x="52.704" y="56.756" fill="#231F20" width="4.052" height="4.059"/>
		<rect x="64.867" y="56.756" fill="#231F20" width="4.052" height="4.059"/>
		<rect x="81.081" y="56.756" fill="#231F20" width="16.214" height="4.059"/>
		<rect x="105.406" y="56.756" fill="#231F20" width="4.051" height="4.059"/>
		<rect x="113.511" y="56.756" fill="#231F20" width="4.057" height="4.059"/>
		<rect x="125.674" y="56.756" fill="#231F20" width="8.108" height="4.059"/>
		<rect x="137.837" y="56.756" fill="#231F20" width="8.111" height="4.059"/>
		<rect x="4.052" y="60.814" fill="#231F20" width="4.057" height="4.052"/>
		<rect x="16.215" y="60.814" fill="#231F20" width="4.056" height="4.052"/>
		<rect x="28.379" y="60.814" fill="#231F20" width="4.052" height="4.052"/>
		<rect x="36.486" y="60.814" fill="#231F20" width="12.162" height="4.052"/>
		<rect x="52.704" y="60.814" fill="#231F20" width="8.104" height="4.052"/>
		<rect x="68.918" y="60.814" fill="#231F20" width="4.052" height="4.052"/>
		<rect x="81.081" y="60.814" fill="#231F20" width="12.162" height="4.052"/>
		<rect x="97.295" y="60.814" fill="#231F20" width="4.058" height="4.052"/>
		<rect x="105.406" y="60.814" fill="#231F20" width="4.051" height="4.052"/>
		<rect x="117.568" y="60.814" fill="#231F20" width="16.214" height="4.052"/>
		<rect x="145.948" y="60.814" fill="#231F20" width="4.052" height="4.052"/>
		<rect y="64.866" fill="#231F20" width="4.052" height="4.054"/>
		<rect x="12.164" y="64.866" fill="#231F20" width="4.051" height="4.054"/>
		<rect x="24.325" y="64.866" fill="#231F20" width="16.216" height="4.054"/>
		<rect x="44.593" y="64.866" fill="#231F20" width="4.054" height="4.054"/>
		<rect x="52.704" y="64.866" fill="#231F20" width="16.214" height="4.054"/>
		<rect x="77.029" y="64.866" fill="#231F20" width="4.052" height="4.054"/>
		<rect x="85.133" y="64.866" fill="#231F20" width="4.058" height="4.054"/>
		<rect x="101.354" y="64.866" fill="#231F20" width="4.052" height="4.054"/>
		<rect x="109.457" y="64.866" fill="#231F20" width="4.054" height="4.054"/>
		<rect x="125.674" y="64.866" fill="#231F20" width="4.052" height="4.054"/>
		<rect x="133.782" y="64.866" fill="#231F20" width="16.217" height="4.054"/>
		<rect y="68.92" fill="#231F20" width="16.215" height="4.051"/>
		<rect x="28.379" y="68.92" fill="#231F20" width="4.052" height="4.051"/>
		<rect x="36.486" y="68.92" fill="#231F20" width="8.107" height="4.051"/>
		<rect x="52.704" y="68.92" fill="#231F20" width="4.052" height="4.051"/>
		<rect x="72.97" y="68.92" fill="#231F20" width="4.059" height="4.051"/>
		<rect x="81.081" y="68.92" fill="#231F20" width="4.052" height="4.051"/>
		<rect x="89.191" y="68.92" fill="#231F20" width="4.052" height="4.051"/>
		<rect x="97.295" y="68.92" fill="#231F20" width="8.11" height="4.051"/>
		<rect x="109.457" y="68.92" fill="#231F20" width="4.054" height="4.051"/>
		<rect x="117.568" y="68.92" fill="#231F20" width="8.106" height="4.051"/>
		<rect x="145.948" y="68.92" fill="#231F20" width="4.052" height="4.051"/>
		<rect x="4.052" y="72.972" fill="#231F20" width="4.057" height="4.057"/>
		<rect x="12.164" y="72.972" fill="#231F20" width="4.051" height="4.057"/>
		<rect x="24.325" y="72.972" fill="#231F20" width="8.106" height="4.057"/>
		<rect x="44.593" y="72.972" fill="#231F20" width="4.054" height="4.057"/>
		<rect x="52.704" y="72.972" fill="#231F20" width="20.266" height="4.057"/>
		<rect x="77.029" y="72.972" fill="#231F20" width="8.104" height="4.057"/>
		<rect x="109.457" y="72.972" fill="#231F20" width="4.054" height="4.057"/>
		<rect x="117.568" y="72.972" fill="#231F20" width="8.106" height="4.057"/>
		<rect x="129.726" y="72.972" fill="#231F20" width="4.056" height="4.057"/>
		<rect x="141.889" y="72.972" fill="#231F20" width="8.11" height="4.057"/>
		<rect y="77.028" fill="#231F20" width="8.108" height="4.054"/>
		<rect x="16.215" y="77.028" fill="#231F20" width="4.056" height="4.054"/>
		<rect x="28.379" y="77.028" fill="#231F20" width="4.052" height="4.054"/>
		<rect x="40.542" y="77.028" fill="#231F20" width="4.052" height="4.054"/>
		<rect x="52.704" y="77.028" fill="#231F20" width="4.052" height="4.054"/>
		<rect x="64.867" y="77.028" fill="#231F20" width="8.104" height="4.054"/>
		<rect x="81.081" y="77.028" fill="#231F20" width="20.272" height="4.054"/>
		<rect x="105.406" y="77.028" fill="#231F20" width="12.162" height="4.054"/>
		<rect x="121.62" y="77.028" fill="#231F20" width="8.106" height="4.054"/>
		<rect x="133.782" y="77.028" fill="#231F20" width="4.055" height="4.054"/>
		<rect x="145.948" y="77.028" fill="#231F20" width="4.052" height="4.054"/>
		<rect y="81.082" fill="#231F20" width="8.108" height="4.054"/>
		<rect x="12.164" y="81.082" fill="#231F20" width="20.267" height="4.054"/>
		<rect x="48.647" y="81.082" fill="#231F20" width="4.057" height="4.054"/>
		<rect x="56.756" y="81.082" fill="#231F20" width="4.052" height="4.054"/>
		<rect x="64.867" y="81.082" fill="#231F20" width="16.214" height="4.054"/>
		<rect x="85.133" y="81.082" fill="#231F20" width="36.487" height="4.054"/>
		<rect x="129.726" y="81.082" fill="#231F20" width="4.056" height="4.054"/>
		<rect x="145.948" y="81.082" fill="#231F20" width="4.052" height="4.054"/>
		<rect x="28.379" y="85.136" fill="#231F20" width="4.052" height="4.051"/>
		<rect x="36.486" y="85.136" fill="#231F20" width="4.056" height="4.051"/>
		<rect x="48.647" y="85.136" fill="#231F20" width="8.108" height="4.051"/>
		<rect x="60.808" y="85.136" fill="#231F20" width="4.059" height="4.051"/>
		<rect x="68.918" y="85.136" fill="#231F20" width="4.052" height="4.051"/>
		<rect x="77.029" y="85.136" fill="#231F20" width="4.052" height="4.051"/>
		<rect x="85.133" y="85.136" fill="#231F20" width="4.058" height="4.051"/>
		<rect x="93.243" y="85.136" fill="#231F20" width="4.053" height="4.051"/>
		<rect x="117.568" y="85.136" fill="#231F20" width="12.158" height="4.051"/>
		<rect x="137.837" y="85.136" fill="#231F20" width="8.111" height="4.051"/>
		<rect x="4.052" y="89.187" fill="#231F20" width="4.057" height="4.058"/>
		<rect x="12.164" y="89.187" fill="#231F20" width="4.051" height="4.058"/>
		<rect x="24.325" y="89.187" fill="#231F20" width="12.161" height="4.058"/>
		<rect x="48.647" y="89.187" fill="#231F20" width="8.108" height="4.058"/>
		<rect x="60.808" y="89.187" fill="#231F20" width="8.11" height="4.058"/>
		<rect x="85.133" y="89.187" fill="#231F20" width="4.058" height="4.058"/>
		<rect x="93.243" y="89.187" fill="#231F20" width="4.053" height="4.058"/>
		<rect x="113.511" y="89.187" fill="#231F20" width="4.057" height="4.058"/>
		<rect x="129.726" y="89.187" fill="#231F20" width="16.222" height="4.058"/>
		<rect y="93.244" fill="#231F20" width="4.052" height="4.053"/>
		<rect x="8.108" y="93.244" fill="#231F20" width="4.056" height="4.053"/>
		<rect x="20.271" y="93.244" fill="#231F20" width="4.054" height="4.053"/>
		<rect x="36.486" y="93.244" fill="#231F20" width="16.218" height="4.053"/>
		<rect x="72.97" y="93.244" fill="#231F20" width="4.059" height="4.053"/>
		<rect x="85.133" y="93.244" fill="#231F20" width="8.11" height="4.053"/>
		<rect x="101.354" y="93.244" fill="#231F20" width="4.052" height="4.053"/>
		<rect x="109.457" y="93.244" fill="#231F20" width="4.054" height="4.053"/>
		<rect x="121.62" y="93.244" fill="#231F20" width="4.054" height="4.053"/>
		<rect x="137.837" y="93.244" fill="#231F20" width="4.052" height="4.053"/>
		<rect x="8.108" y="97.297" fill="#231F20" width="12.163" height="4.058"/>
		<rect x="24.325" y="97.297" fill="#231F20" width="8.106" height="4.058"/>
		<rect x="36.486" y="97.297" fill="#231F20" width="12.162" height="4.058"/>
		<rect x="52.704" y="97.297" fill="#231F20" width="8.104" height="4.058"/>
		<rect x="64.867" y="97.297" fill="#231F20" width="8.104" height="4.058"/>
		<rect x="81.081" y="97.297" fill="#231F20" width="8.11" height="4.058"/>
		<rect x="93.243" y="97.297" fill="#231F20" width="16.214" height="4.058"/>
		<rect x="113.511" y="97.297" fill="#231F20" width="16.215" height="4.058"/>
		<rect x="137.837" y="97.297" fill="#231F20" width="8.111" height="4.058"/>
		<rect x="12.164" y="101.354" fill="#231F20" width="8.107" height="4.052"/>
		<rect x="28.379" y="101.354" fill="#231F20" width="8.106" height="4.052"/>
		<rect x="40.542" y="101.354" fill="#231F20" width="16.214" height="4.052"/>
		<rect x="60.808" y="101.354" fill="#231F20" width="16.221" height="4.052"/>
		<rect x="81.081" y="101.354" fill="#231F20" width="4.052" height="4.052"/>
		<rect x="89.191" y="101.354" fill="#231F20" width="12.163" height="4.052"/>
		<rect x="105.406" y="101.354" fill="#231F20" width="8.105" height="4.052"/>
		<rect x="121.62" y="101.354" fill="#231F20" width="12.162" height="4.052"/>
		<rect x="145.948" y="101.354" fill="#231F20" width="4.052" height="4.052"/>
		<rect x="4.052" y="105.406" fill="#231F20" width="8.112" height="4.052"/>
		<rect x="20.271" y="105.406" fill="#231F20" width="16.215" height="4.052"/>
		<rect x="40.542" y="105.406" fill="#231F20" width="8.106" height="4.052"/>
		<rect x="56.756" y="105.406" fill="#231F20" width="4.052" height="4.052"/>
		<rect x="64.867" y="105.406" fill="#231F20" width="8.104" height="4.052"/>
		<rect x="81.081" y="105.406" fill="#231F20" width="4.052" height="4.052"/>
		<rect x="89.191" y="105.406" fill="#231F20" width="8.104" height="4.052"/>
		<rect x="101.354" y="105.406" fill="#231F20" width="8.104" height="4.052"/>
		<rect x="121.62" y="105.406" fill="#231F20" width="12.162" height="4.052"/>
		<rect x="141.889" y="105.406" fill="#231F20" width="4.059" height="4.052"/>
		<rect y="109.458" fill="#231F20" width="4.052" height="4.052"/>
		<rect x="8.108" y="109.458" fill="#231F20" width="16.217" height="4.052"/>
		<rect x="32.431" y="109.458" fill="#231F20" width="4.055" height="4.052"/>
		<rect x="40.542" y="109.458" fill="#231F20" width="8.106" height="4.052"/>
		<rect x="52.704" y="109.458" fill="#231F20" width="8.104" height="4.052"/>
		<rect x="72.97" y="109.458" fill="#231F20" width="4.059" height="4.052"/>
		<rect x="93.243" y="109.458" fill="#231F20" width="4.053" height="4.052"/>
		<rect x="105.406" y="109.458" fill="#231F20" width="4.051" height="4.052"/>
		<rect x="141.889" y="109.458" fill="#231F20" width="4.059" height="4.052"/>
		<rect x="16.215" y="113.51" fill="#231F20" width="4.056" height="4.061"/>
		<rect x="24.325" y="113.51" fill="#231F20" width="8.106" height="4.061"/>
		<rect x="40.542" y="113.51" fill="#231F20" width="4.052" height="4.061"/>
		<rect x="52.704" y="113.51" fill="#231F20" width="4.052" height="4.061"/>
		<rect x="60.808" y="113.51" fill="#231F20" width="12.162" height="4.061"/>
		<rect x="77.029" y="113.51" fill="#231F20" width="8.104" height="4.061"/>
		<rect x="89.191" y="113.51" fill="#231F20" width="4.052" height="4.061"/>
		<rect x="101.354" y="113.51" fill="#231F20" width="4.052" height="4.061"/>
		<rect x="113.511" y="113.51" fill="#231F20" width="28.378" height="4.061"/>
		<rect x="145.948" y="113.51" fill="#231F20" width="4.052" height="4.061"/>
		<rect x="32.431" y="117.57" fill="#231F20" width="4.055" height="4.053"/>
		<rect x="40.542" y="117.57" fill="#231F20" width="4.052" height="4.053"/>
		<rect x="48.647" y="117.57" fill="#231F20" width="20.271" height="4.053"/>
		<rect x="81.081" y="117.57" fill="#231F20" width="4.052" height="4.053"/>
		<rect x="93.243" y="117.57" fill="#231F20" width="8.111" height="4.053"/>
		<rect x="113.511" y="117.57" fill="#231F20" width="4.057" height="4.053"/>
		<rect x="129.726" y="117.57" fill="#231F20" width="20.273" height="4.053"/>
		<rect y="121.623" fill="#231F20" width="28.379" height="4.051"/>
		<rect x="32.431" y="121.623" fill="#231F20" width="8.11" height="4.051"/>
		<rect x="52.704" y="121.623" fill="#231F20" width="8.104" height="4.051"/>
		<rect x="72.97" y="121.623" fill="#231F20" width="20.272" height="4.051"/>
		<rect x="97.295" y="121.623" fill="#231F20" width="4.058" height="4.051"/>
		<rect x="105.406" y="121.623" fill="#231F20" width="4.051" height="4.051"/>
		<rect x="113.511" y="121.623" fill="#231F20" width="4.057" height="4.051"/>
		<rect x="121.62" y="121.623" fill="#231F20" width="4.054" height="4.051"/>
		<rect x="129.726" y="121.623" fill="#231F20" width="8.111" height="4.051"/>
		<rect x="141.889" y="121.623" fill="#231F20" width="8.11" height="4.051"/>
		<rect y="125.674" fill="#231F20" width="4.052" height="4.054"/>
		<rect x="24.325" y="125.674" fill="#231F20" width="4.054" height="4.054"/>
		<rect x="40.542" y="125.674" fill="#231F20" width="12.163" height="4.054"/>
		<rect x="56.756" y="125.674" fill="#231F20" width="4.052" height="4.054"/>
		<rect x="64.867" y="125.674" fill="#231F20" width="8.104" height="4.054"/>
		<rect x="81.081" y="125.674" fill="#231F20" width="4.052" height="4.054"/>
		<rect x="93.243" y="125.674" fill="#231F20" width="4.053" height="4.054"/>
		<rect x="109.457" y="125.674" fill="#231F20" width="8.111" height="4.054"/>
		<rect x="129.726" y="125.674" fill="#231F20" width="8.111" height="4.054"/>
		<rect y="129.728" fill="#231F20" width="4.052" height="4.052"/>
		<rect x="8.108" y="129.728" fill="#231F20" width="12.163" height="4.052"/>
		<rect x="24.325" y="129.728" fill="#231F20" width="4.054" height="4.052"/>
		<rect x="64.867" y="129.728" fill="#231F20" width="4.052" height="4.052"/>
		<rect x="72.97" y="129.728" fill="#231F20" width="4.059" height="4.052"/>
		<rect x="81.081" y="129.728" fill="#231F20" width="4.052" height="4.052"/>
		<rect x="113.511" y="129.728" fill="#231F20" width="24.326" height="4.052"/>
		<rect x="145.948" y="129.728" fill="#231F20" width="4.052" height="4.052"/>
		<rect y="133.779" fill="#231F20" width="4.052" height="4.058"/>
		<rect x="8.108" y="133.779" fill="#231F20" width="12.163" height="4.058"/>
		<rect x="24.325" y="133.779" fill="#231F20" width="4.054" height="4.058"/>
		<rect x="32.431" y="133.779" fill="#231F20" width="4.055" height="4.058"/>
		<rect x="40.542" y="133.779" fill="#231F20" width="8.106" height="4.058"/>
		<rect x="52.704" y="133.779" fill="#231F20" width="4.052" height="4.058"/>
		<rect x="72.97" y="133.779" fill="#231F20" width="4.059" height="4.058"/>
		<rect x="81.081" y="133.779" fill="#231F20" width="8.11" height="4.058"/>
		<rect x="97.295" y="133.779" fill="#231F20" width="4.058" height="4.058"/>
		<rect x="109.457" y="133.779" fill="#231F20" width="4.054" height="4.058"/>
		<rect x="121.62" y="133.779" fill="#231F20" width="4.054" height="4.058"/>
		<rect x="129.726" y="133.779" fill="#231F20" width="4.056" height="4.058"/>
		<rect x="137.837" y="133.779" fill="#231F20" width="4.052" height="4.058"/>
		<rect y="137.837" fill="#231F20" width="4.052" height="4.06"/>
		<rect x="8.108" y="137.837" fill="#231F20" width="12.163" height="4.06"/>
		<rect x="24.325" y="137.837" fill="#231F20" width="4.054" height="4.06"/>
		<rect x="32.431" y="137.837" fill="#231F20" width="4.055" height="4.06"/>
		<rect x="40.542" y="137.837" fill="#231F20" width="4.052" height="4.06"/>
		<rect x="48.647" y="137.837" fill="#231F20" width="12.161" height="4.06"/>
		<rect x="64.867" y="137.837" fill="#231F20" width="12.162" height="4.06"/>
		<rect x="93.243" y="137.837" fill="#231F20" width="8.111" height="4.06"/>
		<rect x="113.511" y="137.837" fill="#231F20" width="20.271" height="4.06"/>
		<rect x="137.837" y="137.837" fill="#231F20" width="8.111" height="4.06"/>
		<rect y="141.896" fill="#231F20" width="4.052" height="4.051"/>
		<rect x="24.325" y="141.896" fill="#231F20" width="4.054" height="4.051"/>
		<rect x="56.756" y="141.896" fill="#231F20" width="8.111" height="4.051"/>
		<rect x="68.918" y="141.896" fill="#231F20" width="12.163" height="4.051"/>
		<rect x="89.191" y="141.896" fill="#231F20" width="20.266" height="4.051"/>
		<rect x="125.674" y="141.896" fill="#231F20" width="4.052" height="4.051"/>
		<rect x="137.837" y="141.896" fill="#231F20" width="4.052" height="4.051"/>
		<rect y="145.947" fill="#231F20" width="28.379" height="4.053"/>
		<rect x="44.593" y="145.947" fill="#231F20" width="4.054" height="4.053"/>
		<rect x="56.756" y="145.947" fill="#231F20" width="4.052" height="4.053"/>
		<rect x="64.867" y="145.947" fill="#231F20" width="8.104" height="4.053"/>
		<rect x="77.029" y="145.947" fill="#231F20" width="8.104" height="4.053"/>
		<rect x="89.191" y="145.947" fill="#231F20" width="4.052" height="4.053"/>
		<rect x="105.406" y="145.947" fill="#231F20" width="8.105" height="4.053"/>
		<rect x="117.568" y="145.947" fill="#231F20" width="8.106" height="4.053"/>
		<rect x="129.726" y="145.947" fill="#231F20" width="20.273" height="4.053"/>
	</g>
	<path fill="#FFFFFF" d="M94.977,89.187c0,3.197-2.592,5.79-5.79,5.79H60.814c-3.199,0-5.792-2.593-5.792-5.79V60.814
		c0-3.199,2.592-5.791,5.792-5.791h28.372c3.198,0,5.79,2.592,5.79,5.791V89.187z"/>
	<g>
		<polygon fill="#0196FB" points="67.431,70.842 63.002,70.842 58.701,66.347 63.131,66.347 		"/>
		<polygon fill="#0196FB" points="61.828,80.744 56.617,80.744 59.94,74.165 65.149,74.165 		"/>
		<polygon fill="#0196FB" points="60.33,91.43 55.184,91.43 59.484,84.326 64.629,84.326 		"/>
		<polygon fill="#0196FB" points="87.791,72.017 88.862,66.347 71.535,66.347 71.144,67.977 85.346,67.977 84.48,72.017 
			68.342,72.017 67.757,73.708 74.041,73.708 73.099,77.357 67.431,77.357 67.17,78.465 74.728,78.465 76.11,73.708 80.768,73.708 
			78.701,82.896 68.214,82.896 67.691,84.72 81.631,84.72 84.094,73.708 88.602,73.708 85.28,89.537 69.712,89.537 69.125,91.362 
			88.147,91.362 92.251,72.017 		"/>
		<polygon fill="#0196FB" points="86.647,63.741 86.895,62.111 94.485,62.111 94.816,60.55 87.129,60.55 87.428,58.57 79.155,58.57 
			78.855,60.55 72.799,60.55 73.097,58.57 64.824,58.57 64.525,60.55 59.808,60.55 59.612,62.111 64.288,62.111 64.041,63.741 
			72.313,63.741 72.561,62.111 78.618,62.111 78.373,63.741 		"/>
	</g>
</g>
</svg>
