<?xml version="1.0" encoding="utf-8"?>
<!-- Generator: Adobe Illustrator 23.0.3, SVG Export Plug-In . SVG Version: 6.00 Build 0)  -->
<svg version="1.1" id="Layer_1" xmlns="http://www.w3.org/2000/svg" xmlns:xlink="http://www.w3.org/1999/xlink" x="0px" y="0px"
	 viewBox="0 0 29 30" style="enable-background:new 0 0 29 30;" xml:space="preserve">
<style type="text/css">
	.st0{fill:#666666;}
</style>
<path class="st0" d="M29,4.6H16.7v21.4h3l0.4,2.6l4.1-2.6H29V4.6z M23.8,23.3l-2.4,1.5l-0.2-1.5h-1.7v-16h6.8v16L23.8,23.3
	L23.8,23.3z M14.5,14.2H10c0-0.5,0-1,0-1.5V7.2h5.1V5.9c0-0.4-0.1-0.7-0.4-1c-0.3-0.3-0.6-0.4-1-0.4h-8c0-0.1,0.1-0.2,0.1-0.3
	C6.1,3.5,7,1,7,1C6.2,1,5.3,1.2,4.6,1.7C4,2.1,3.7,2.4,3.2,3.6c-0.5,1.5-1,2.9-1.3,3.7C1.4,8.7,0.3,11,0.3,11c0.9,0,1.7-0.2,2.5-0.6
	c1.1-0.6,1.7-1.5,2.1-2.9l0.1-0.3h2.3v5.5c0,0.5,0,1-0.1,1.5H3.1c-0.7,0-1.4,0.3-1.9,0.8c-0.5,0.5-0.8,1.2-0.8,1.9h6.5
	c-0.1,1.2-0.4,2.5-0.8,3.6c-0.7,1.9-1.7,3.7-3,5.3c-1,1.1-2,2.1-3.1,3c0,0,3.1,1.2,5.4-1c1.4-1.3,2.6-3.8,3.2-5.7
	c0.5-1.7,0.9-3.5,1.1-5.2h6v-1.4c0-0.3-0.1-0.7-0.4-0.9C15.1,14.3,14.8,14.2,14.5,14.2z"/>
<path class="st0" d="M11.3,19.7L9,21.2l5,7.5c0.3-0.7,0.6-1.4,0.7-2.2c0.2-0.7,0.1-1.5-0.3-2.2L11.3,19.7z"/>
</svg>
